<?xml version="1.0" encoding="UTF-8" standalone="no"?>
<!-- Created with Inkscape (http://www.inkscape.org/) -->

<svg
   width="210mm"
   height="297mm"
   viewBox="0 0 210 297"
   version="1.1"
   id="svg5"
   inkscape:version="1.2.2 (b0a84865, 2022-12-01)"
   sodipodi:docname="logo-birthday.svg"
   xmlns:inkscape="http://www.inkscape.org/namespaces/inkscape"
   xmlns:sodipodi="http://sodipodi.sourceforge.net/DTD/sodipodi-0.dtd"
   xmlns="http://www.w3.org/2000/svg"
   xmlns:svg="http://www.w3.org/2000/svg">
  <sodipodi:namedview
     id="namedview7"
     pagecolor="#ffffff"
     bordercolor="#999999"
     borderopacity="1"
     inkscape:showpageshadow="0"
     inkscape:pageopacity="0"
     inkscape:pagecheckerboard="0"
     inkscape:deskcolor="#d1d1d1"
     inkscape:document-units="mm"
     showgrid="false"
     inkscape:zoom="0.43591663"
     inkscape:cx="455.3623"
     inkscape:cy="395.71787"
     inkscape:window-width="1440"
     inkscape:window-height="847"
     inkscape:window-x="0"
     inkscape:window-y="25"
     inkscape:window-maximized="1"
     inkscape:current-layer="layer1" />
  <defs
     id="defs2">
    <linearGradient
       id="linearGradient13268"
       inkscape:swatch="solid">
      <stop
         style="stop-color:#eaeaea;stop-opacity:1;"
         offset="0"
         id="stop13266" />
    </linearGradient>
  </defs>
  <g
     inkscape:label="Layer 1"
     inkscape:groupmode="layer"
     id="layer1">
    <circle
       style="fill:#008000;stroke:#1e1a1a;stroke-width:0.6;stroke-linejoin:bevel;stroke-miterlimit:3.4;stroke-dasharray:none"
       id="path577"
       cx="104.84738"
       cy="140.36922"
       r="49.950783"
       inkscape:export-filename="logo-birthday.png"
       inkscape:export-xdpi="109.21772"
       inkscape:export-ydpi="109.21772" />
    <ellipse
       style="fill:#ffffff;stroke:#1e1a1a;stroke-width:0.6;stroke-linejoin:bevel;stroke-miterlimit:3.4;stroke-dasharray:none"
       id="path789"
       cx="130.32359"
       cy="122.94245"
       rx="11.302401"
       ry="12.686368" />
    <ellipse
       style="fill:#ffffff;stroke:#1e1a1a;stroke-width:0.6;stroke-linejoin:bevel;stroke-miterlimit:3.4;stroke-dasharray:none"
       id="path789-0"
       cx="102.4136"
       cy="125.47973"
       rx="11.302401"
       ry="12.686368" />
    <path
       style="fill:#901600;fill-opacity:1;stroke:#000000;stroke-width:0.6;stroke-linecap:butt;stroke-linejoin:miter;stroke-opacity:1;stroke-dasharray:none"
       d="m 135.29273,148.41464 c -4.41659,1.4602 -9.07107,1.57648 -16.05635,2.47412 -10.80109,1.38798 -13.75474,1.62222 -15.70254,3.85011 -2.5424,2.90799 -4.305824,6.768 -2.52151,9.20747 1.55524,2.12628 3.65572,3.33748 7.22763,3.33748 3.57191,0 9.72606,-1.99618 14.67851,-1.90143 5.58164,0.10679 11.22154,-2.61686 15.61774,-3.71591 4.63695,-3.18801 3.41254,-4.47987 3.63809,-7.42886 -1.13681,-4.02316 -2.2876,-6.70648 -6.88157,-5.82298 z"
       id="path1369"
       sodipodi:nodetypes="csssssccc" />
    <ellipse
       style="fill:#000000;fill-opacity:1;stroke:#1e1a1a;stroke-width:0.0927953;stroke-linejoin:bevel;stroke-miterlimit:3.4"
       id="path2097"
       cx="106.83224"
       cy="127.01723"
       rx="6.8085122"
       ry="6.5738606" />
    <ellipse
       style="fill:#000000;fill-opacity:1;stroke:#1e1a1a;stroke-width:0.0927953;stroke-linejoin:bevel;stroke-miterlimit:3.4"
       id="path2097-3"
       cx="134.44757"
       cy="125.60141"
       rx="6.8085122"
       ry="6.5738606" />
    <path
       style="fill:#008000;stroke:#000000;stroke-width:0.623157;stroke-linecap:butt;stroke-linejoin:miter;stroke-dasharray:none;stroke-opacity:1"
       d="M 100.37154,92.233873 C 97.647491,84.288875 95.823232,81.090308 91.734907,77.055401 86.882916,72.2668 83.678897,71.484802 74.577282,69.069449 c 1.391845,7.292892 4.158537,11.10189 8.582666,15.107639 3.136677,2.840053 6.088521,4.986431 17.211592,8.056785 z"
       id="path8291"
       sodipodi:nodetypes="cscsc" />
    <path
       style="fill:#ff3446;fill-opacity:1;stroke:#000000;stroke-width:0.465903;stroke-linecap:butt;stroke-linejoin:miter;stroke-dasharray:none;stroke-opacity:1"
       d="m 151.97476,110.49462 c 0,0 -16.11156,-11.994108 -13.89673,-29.955168 1.99543,-16.181942 26.69444,-17.255787 28.10227,0 1.46223,17.92263 -14.20554,29.955168 -14.20554,29.955168 z"
       id="path1114-3"
       sodipodi:nodetypes="cssc" />
    <path
       style="fill:none;stroke:#000000;stroke-width:0.465903;stroke-linecap:butt;stroke-linejoin:miter;stroke-dasharray:none;stroke-opacity:1"
       d="m 152.04572,110.35978 c 0,0 -2.07967,11.99981 -1.69921,18.12493 0.36437,5.86619 3.14163,12.24783 3.20962,18.12494 0.0684,5.91169 -2.07681,16.23691 -2.07681,16.23691"
       id="path1244"
       sodipodi:nodetypes="cssc" />
    <path
       style="fill:none;stroke:#000000;stroke-width:0.465903;stroke-linecap:butt;stroke-linejoin:miter;stroke-dasharray:none;stroke-opacity:1"
       d="m 64.638198,159.47736 c 0,0 -2.07967,11.99981 -1.69921,18.12493 0.36437,5.86619 2.385197,9.2221 1.696755,16.61207"
       id="path1244-7"
       sodipodi:nodetypes="csc" />
    <path
       style="fill:#fffb4c;fill-opacity:1;stroke:#000000;stroke-width:0.465903;stroke-linecap:butt;stroke-linejoin:miter;stroke-dasharray:none;stroke-opacity:1"
       d="m 93.259744,195.15665 c 0,0 -16.11156,-11.99411 -13.89673,-29.95517 1.99543,-16.18194 26.694446,-17.25579 28.102276,0 1.46223,17.92263 -14.205546,29.95517 -14.205546,29.95517 z"
       id="path1114-3-6"
       sodipodi:nodetypes="cssc" />
    <path
       style="fill:none;stroke:#000000;stroke-width:0.435833;stroke-linecap:butt;stroke-linejoin:miter;stroke-dasharray:none;stroke-opacity:1"
       d="m 93.12215,195.00343 0.261185,3.76589"
       id="path1325" />
    <path
       style="fill:#4c6fff;fill-opacity:1;stroke:#000000;stroke-width:0.465903;stroke-linecap:butt;stroke-linejoin:miter;stroke-dasharray:none;stroke-opacity:1"
       d="m 64.567238,159.6122 c 0,0 -16.11156,-11.99411 -13.89673,-29.95517 1.99543,-16.18194 26.69444,-17.25578 28.10227,0 1.46223,17.92263 -14.20554,29.95517 -14.20554,29.95517 z"
       id="path1114-3-5"
       sodipodi:nodetypes="cssc" />
    <path
       style="fill:#ce2910;fill-opacity:1;stroke:#000000;stroke-width:0.502179;stroke-linecap:butt;stroke-linejoin:miter;stroke-dasharray:none;stroke-opacity:1"
       d="M 85.981076,60.801569 66.386901,106.36539 126.75984,93.599828 Z"
       id="path893" />
    <path
       style="fill:#f42500;fill-opacity:1;stroke:none;stroke-width:0.221447px;stroke-linecap:butt;stroke-linejoin:miter;stroke-opacity:1"
       d="m 86.084077,61.230749 -0.296549,40.786881 -19.177994,4.21978 z"
       id="path24387"
       sodipodi:nodetypes="cccc" />
    <text
       xml:space="preserve"
       style="font-style:normal;font-weight:normal;font-size:10.5833px;line-height:1.25;font-family:sans-serif;fill:#000000;fill-opacity:1;stroke:none;stroke-width:0.265;stroke-dasharray:none"
       x="64.03302"
       y="115.11627"
       id="text9021"
       transform="rotate(-12.353643)"
       inkscape:export-filename="logo-birthday.png"
       inkscape:export-xdpi="109.21772"
       inkscape:export-ydpi="109.21772"><tspan
         sodipodi:role="line"
         id="tspan9019"
         style="font-style:normal;font-variant:normal;font-weight:normal;font-stretch:normal;font-size:31.75px;font-family:STSong;-inkscape-font-specification:'STSong, Normal';font-variant-ligatures:normal;font-variant-caps:normal;font-variant-numeric:normal;font-variant-east-asian:normal;stroke-width:0.265;stroke-dasharray:none"
         x="64.03302"
         y="115.11627">1</tspan></text>
  </g>
</svg>
