<?xml version="1.0" encoding="UTF-8" standalone="no"?>
<!-- Created with Inkscape (http://www.inkscape.org/) -->

<svg
   width="210mm"
   height="297mm"
   viewBox="0 0 210 297"
   version="1.1"
   id="svg5"
   inkscape:version="1.2.2 (b0a84865, 2022-12-01)"
   sodipodi:docname="logo-tub-sticker-path.svg"
   inkscape:export-filename="logo-tub.png"
   inkscape:export-xdpi="60.476189"
   inkscape:export-ydpi="60.476189"
   xmlns:inkscape="http://www.inkscape.org/namespaces/inkscape"
   xmlns:sodipodi="http://sodipodi.sourceforge.net/DTD/sodipodi-0.dtd"
   xmlns="http://www.w3.org/2000/svg"
   xmlns:svg="http://www.w3.org/2000/svg">
  <sodipodi:namedview
     id="namedview7"
     pagecolor="#ffffff"
     bordercolor="#999999"
     borderopacity="1"
     inkscape:showpageshadow="0"
     inkscape:pageopacity="0"
     inkscape:pagecheckerboard="0"
     inkscape:deskcolor="#d1d1d1"
     inkscape:document-units="mm"
     showgrid="false"
     inkscape:zoom="0.53990754"
     inkscape:cx="90.75628"
     inkscape:cy="498.23346"
     inkscape:window-width="1309"
     inkscape:window-height="456"
     inkscape:window-x="0"
     inkscape:window-y="25"
     inkscape:window-maximized="0"
     inkscape:current-layer="layer1" />
  <defs
     id="defs2">
    <linearGradient
       id="linearGradient13268"
       inkscape:swatch="solid">
      <stop
         style="stop-color:#eaeaea;stop-opacity:1;"
         offset="0"
         id="stop13266" />
    </linearGradient>
  </defs>
  <g
     inkscape:label="Layer 1"
     inkscape:groupmode="layer"
     id="layer1">
    <ellipse
       style="fill:#29a429;fill-opacity:1;stroke:#1e1a1a;stroke-width:0.559765;stroke-linejoin:bevel;stroke-miterlimit:3.4;stroke-dasharray:none"
       id="path577-5"
       cx="94.234833"
       cy="133.20647"
       inkscape:export-filename="logo-tub.png"
       inkscape:export-xdpi="124.58931"
       inkscape:export-ydpi="124.58931"
       rx="49.970901"
       ry="43.45863"
       transform="rotate(-3.2663822)" />
    <ellipse
       style="fill:#ffffff;stroke:#1e1a1a;stroke-width:0.565679;stroke-linejoin:bevel;stroke-miterlimit:3.4;stroke-dasharray:none"
       id="path789-4"
       cx="114.81712"
       cy="127.29449"
       rx="9.4349384"
       ry="9.4167328"
       transform="rotate(-3.2663822)" />
    <ellipse
       style="fill:#ffffff;stroke:#1e1a1a;stroke-width:0.550443;stroke-linejoin:bevel;stroke-miterlimit:3.4;stroke-dasharray:none"
       id="path789-0-5"
       cx="86.819191"
       cy="128.03241"
       rx="9.5218973"
       ry="9.4501829"
       transform="rotate(-3.2663822)" />
    <ellipse
       style="fill:#000000;fill-opacity:1;stroke:#1e1a1a;stroke-width:0.0812139;stroke-linejoin:bevel;stroke-miterlimit:3.4"
       id="path2097-30"
       cx="86.883461"
       cy="131.8232"
       rx="6.1259942"
       ry="5.5963531"
       transform="rotate(-3.2663822)" />
    <ellipse
       style="fill:#000000;fill-opacity:1;stroke:#1e1a1a;stroke-width:0.0799088;stroke-linejoin:bevel;stroke-miterlimit:3.4"
       id="path2097-3-1"
       cx="114.78143"
       cy="131.19768"
       rx="5.929987"
       ry="5.5970058"
       transform="rotate(-3.2663822)" />
    <path
       style="fill:none;stroke:#000000;stroke-width:0.574924;stroke-linecap:butt;stroke-linejoin:miter;stroke-dasharray:none;stroke-opacity:1"
       d="m 94.279855,153.94747 c 11.391285,3.09302 24.836245,0.48591 31.828815,-2.69775"
       id="path15573"
       sodipodi:nodetypes="cc" />
    <path
       style="fill:none;stroke:#000000;stroke-width:0.6;stroke-linecap:butt;stroke-linejoin:miter;stroke-dasharray:none;stroke-opacity:1"
       d="m 109.31444,130.90894 c 4.68059,3.60922 8.62106,9.64857 7.00705,10.71547 -3.34149,1.37645 -5.4176,1.66981 -10.27833,1.80668"
       id="path1740"
       sodipodi:nodetypes="ccc" />
    <path
       style="fill:#cdb263;fill-opacity:1;stroke:#000000;stroke-width:0.6;stroke-linecap:butt;stroke-linejoin:miter;stroke-dasharray:none;stroke-opacity:1"
       d="M 99.505878,83.2936 C 86.384985,83.895894 72.66649,85.064561 64.332327,93.409307 54.705368,102.38395 52.705182,114.15162 51.434976,123.83736 c -0.713928,17.09497 7.791103,25.28026 8.737718,45.50862 l 3.973244,-12.24067 c 2.732338,3.34351 4.430486,5.58793 5.43461,13.39536 1.181554,-4.33404 3.077325,-8.06821 4.259806,-18.10971 3.69981,11.43726 5.028072,12.71617 7.676948,16.54326 -1.206405,-22.25631 -4.460081,-48.31156 6.078945,-67.07925 2.760764,4.62527 3.709794,6.04157 6.213456,7.92171 1.598329,-3.7867 2.812534,-5.67609 5.309431,-7.54174 3.319746,4.50762 6.044936,9.25185 8.207606,14.21995 1.54005,-5.4618 1.88382,-10.85532 1.06479,-16.1825 3.00545,1.05936 5.77281,2.38566 6.58641,5.9022 1.72491,-1.69582 2.91521,-2.56975 4.76533,-6.238932 18.06541,8.549732 15.9078,34.495732 17.40642,64.138122 2.25292,-4.24405 4.8912,-10.49022 6.41061,-18.80658 1.4199,10.83403 0.3302,4.97498 1.55498,18.91619 1.99319,-7.26511 2.40813,-9.73875 3.28379,-14.55632 0.43921,8.27844 3.47577,13.65556 3.68529,12.74225 0.32986,-1.32614 -0.81707,-4.92338 -0.92117,-18.00887 -0.0207,-2.60233 0.40321,-16.80252 0.36481,-20.18019 -0.15182,-13.35412 -7.00896,-26.870334 -13.25862,-33.859844 -10.4246,-11.125233 -24.04668,-8.168793 -38.763462,-7.026818 z"
       id="path3381"
       sodipodi:nodetypes="ccccccccccccccccccccssccc" />
    <path
       style="fill:none;stroke:#000000;stroke-width:0.6;stroke-linecap:butt;stroke-linejoin:miter;stroke-dasharray:none;stroke-opacity:1"
       d="m 108.41481,100.39903 c -0.46372,-3.396656 -0.72508,-4.382316 -3.52538,-8.363106"
       id="path25489"
       sodipodi:nodetypes="cc" />
    <path
       style="fill:none;stroke:#000000;stroke-width:0.6;stroke-linecap:butt;stroke-linejoin:miter;stroke-dasharray:none;stroke-opacity:1"
       d="m 143.54023,145.97747 c 0.82735,-7.40914 0.26385,-16.11234 -1.09896,-22.89467"
       id="path25495"
       sodipodi:nodetypes="cc" />
    <path
       style="fill:none;stroke:#000000;stroke-width:0.6;stroke-linecap:butt;stroke-linejoin:miter;stroke-dasharray:none;stroke-opacity:1"
       d="m 73.886463,152.25257 c -0.683086,-3.81744 -1.445284,-11.56852 -1.065867,-15.99273"
       id="path25522"
       sodipodi:nodetypes="cc" />
    <rect
       style="fill:#ba00bd;fill-opacity:1;stroke:#1e1a1a;stroke-width:0.632155;stroke-linecap:round;stroke-linejoin:round;stroke-miterlimit:4.7;stroke-dasharray:none"
       id="rect1145"
       width="99.669464"
       height="8.9015341"
       x="52.122757"
       y="177.35538"
       ry="4.4507675" />
    <rect
       style="fill:#f800fc;fill-opacity:1;stroke:#1e1a1a;stroke-width:0.632155;stroke-linecap:round;stroke-linejoin:round;stroke-miterlimit:4.7;stroke-dasharray:none"
       id="rect1145-8"
       width="99.669464"
       height="8.9015341"
       x="52.216656"
       y="168.51393"
       ry="4.4507675" />
    <g
       id="g3988"
       style="fill:#ff0a00;fill-opacity:1"
       transform="matrix(1.9593521,-0.6428175,0.74845358,1.9858253,-357.77851,75.030039)">
      <path
         style="fill:#ff0a00;fill-opacity:1;stroke:#000000;stroke-width:0.264583px;stroke-linecap:butt;stroke-linejoin:miter;stroke-opacity:1"
         d="m 177.72832,103.21526 -4.51816,-4.935088 c 0,0 -2.38729,-2.231374 -0.32188,-4.149985 2.14478,-1.992344 4.86842,0.888714 4.86842,0.888714"
         id="path3952"
         sodipodi:nodetypes="ccsc" />
      <path
         style="fill:#ff0a00;fill-opacity:1;stroke:#000000;stroke-width:0.264583px;stroke-linecap:butt;stroke-linejoin:miter;stroke-opacity:1"
         d="m 177.5911,103.21811 4.51816,-4.935087 c 0,0 2.38729,-2.23138 0.32189,-4.14999 -2.14478,-1.99234 -4.86843,0.88872 -4.86843,0.88872"
         id="path3952-0"
         sodipodi:nodetypes="ccsc" />
    </g>
    <rect
       style="fill:#fd61ff;fill-opacity:1;stroke:#1e1a1a;stroke-width:0.632155;stroke-linecap:round;stroke-linejoin:round;stroke-miterlimit:4.7;stroke-dasharray:none"
       id="rect1145-7"
       width="99.669464"
       height="8.9015341"
       x="51.956863"
       y="159.6626"
       ry="4.4507675" />
    <g
       aria-label="Moblin"
       transform="rotate(-90.044118,47.609181,194.9369)"
       id="text257"
       style="font-size:28.2222px;line-height:1.25;font-family:'Lao MN';-inkscape-font-specification:'Lao MN, Normal';white-space:pre;inline-size:107.25;display:inline;stroke-width:0.264583">
      <path
         d="m 59.214842,174.31407 h 3.141924 l 7.110672,14.01463 h 0.151584 l 6.972868,-14.01463 h 3.086803 v 18.27277 H 76.59189 v -14.97927 h -0.09646 l -7.496522,14.97927 H 68.365008 L 60.785804,177.7316 h -0.206705 v 14.85524 h -1.364257 z"
         id="path851" />
      <path
         d="m 91.143963,192.89001 q -1.626084,0 -2.990341,-0.565 -1.364257,-0.56499 -2.356443,-1.52962 -0.992187,-0.97841 -1.557182,-2.27376 -0.551215,-1.30914 -0.551215,-2.79742 0,-1.55718 0.551215,-2.92144 0.564995,-1.37803 1.557182,-2.39778 0.992186,-1.01975 2.356443,-1.59852 1.364257,-0.59256 2.990341,-0.59256 1.612303,0 2.96278,0.53743 1.364256,0.53744 2.356443,1.4745 0.992187,0.93707 1.543402,2.20486 0.564995,1.25402 0.564995,2.70096 0,1.59852 -0.564995,3.0179 -0.551215,1.4056 -1.543402,2.46668 -0.992187,1.04731 -2.356443,1.66743 -1.350477,0.60634 -2.96278,0.60634 z m 0.537434,-1.03353 q 0.826822,0 1.515841,-0.42719 0.689019,-0.42719 1.185112,-1.14377 0.496093,-0.73036 0.771701,-1.68121 0.275607,-0.95085 0.275607,-2.01193 0,-1.52962 -0.261827,-2.86632 -0.261827,-1.3367 -0.854383,-2.32888 -0.592556,-0.99219 -1.543401,-1.55719 -0.950846,-0.57877 -2.315103,-0.57877 -0.702799,0 -1.364257,0.41341 -0.661457,0.39963 -1.171331,1.10243 -0.496094,0.7028 -0.799262,1.65364 -0.303168,0.93707 -0.303168,1.99816 0,1.5434 0.316949,2.89388 0.330729,1.35047 0.950845,2.35644 0.633897,1.00597 1.529621,1.59852 0.909505,0.57878 2.067056,0.57878 z"
         id="path853" />
      <path
         d="m 102.55411,172.06786 1.98437,-0.78548 h 0.82683 v 9.85297 q 0.3445,-0.59256 0.89572,-1.12999 0.56499,-0.53744 1.21267,-0.92329 0.66146,-0.39963 1.36426,-0.63389 0.71658,-0.23427 1.36426,-0.23427 1.22645,0 2.25998,0.49609 1.03352,0.4961 1.77766,1.35048 0.74414,0.85438 1.15756,1.99815 0.42719,1.12999 0.42719,2.42535 0,1.75011 -0.62012,3.27973 -0.60634,1.52962 -1.6812,2.67339 -1.06109,1.12999 -2.49425,1.79145 -1.43316,0.66146 -3.05924,0.66146 -1.57097,0 -2.96278,-0.41342 -1.37804,-0.41341 -2.45291,-1.25401 z m 2.8112,18.21766 q 0.26182,0.24804 0.56499,0.50987 0.31695,0.26183 0.7028,0.48231 0.38585,0.20671 0.85438,0.34451 0.48232,0.12403 1.07487,0.12403 0.97841,0 1.77767,-0.46854 0.79926,-0.48231 1.36426,-1.32291 0.57877,-0.85439 0.88194,-2.01194 0.31695,-1.17133 0.31695,-2.54937 0,-1.0473 -0.33073,-1.95681 -0.31695,-0.92328 -0.88194,-1.59852 -0.55122,-0.68902 -1.30914,-1.07487 -0.74414,-0.39963 -1.59852,-0.39963 -0.48232,0 -0.99219,0.1378 -0.49609,0.13781 -0.95084,0.37207 -0.45476,0.23427 -0.84061,0.55122 -0.38585,0.30317 -0.63389,0.66145 z"
         id="path855" />
      <path
         d="m 122.63211,192.58684 h -2.8112 v -20.50519 l 1.99816,-0.79927 h 0.81304 z"
         id="path857" />
      <path
         d="m 127.79975,179.01317 1.9706,-0.79926 h 0.81304 v 14.37293 h -2.78364 z m -0.22048,-5.93934 q 0,-0.33073 0.12402,-0.62011 0.12402,-0.28939 0.34451,-0.50988 0.22049,-0.22048 0.50987,-0.34451 0.28939,-0.12402 0.62012,-0.12402 0.33073,0 0.62012,0.12402 0.28939,0.12403 0.50987,0.34451 0.22049,0.22049 0.34451,0.50988 0.12402,0.28938 0.12402,0.62011 0,0.33073 -0.12402,0.62012 -0.12402,0.28939 -0.34451,0.50987 -0.22048,0.22049 -0.50987,0.34451 -0.28939,0.12403 -0.62012,0.12403 -0.33073,0 -0.62012,-0.12403 -0.28938,-0.12402 -0.50987,-0.34451 -0.22049,-0.22048 -0.34451,-0.50987 -0.12402,-0.28939 -0.12402,-0.62012 z"
         id="path859" />
      <path
         d="m 137.74918,178.21391 h 0.79926 v 2.85254 q 1.28157,-1.43316 2.65961,-2.13596 1.37804,-0.71658 2.79741,-0.71658 0.74414,0 1.37804,0.33073 0.64768,0.33073 1.12999,0.9095 0.48232,0.57878 0.75792,1.36426 0.27561,0.7717 0.27561,1.65365 v 10.11479 h -2.79742 v -9.63248 q 0,-0.7028 -0.16536,-1.22645 -0.16536,-0.53744 -0.46853,-0.89573 -0.30317,-0.35829 -0.71658,-0.53743 -0.39963,-0.19293 -0.89573,-0.19293 -0.44097,0 -0.93706,0.15159 -0.49609,0.15158 -1.01975,0.42719 -0.50987,0.26182 -1.01975,0.63389 -0.50987,0.37207 -0.9784,0.82683 v 10.44552 h -2.8112 v -13.58745 z"
         id="path861" />
    </g>
  </g>
</svg>
