<?xml version="1.0" encoding="UTF-8" standalone="no"?>
<!-- Created with Inkscape (http://www.inkscape.org/) -->

<svg
   width="210mm"
   height="297mm"
   viewBox="0 0 210 297"
   version="1.1"
   id="svg5"
   inkscape:version="1.4 (e7c3feb1, 2024-10-09)"
   sodipodi:docname="logo-moblink.svg"
   xml:space="preserve"
   xmlns:inkscape="http://www.inkscape.org/namespaces/inkscape"
   xmlns:sodipodi="http://sodipodi.sourceforge.net/DTD/sodipodi-0.dtd"
   xmlns="http://www.w3.org/2000/svg"
   xmlns:svg="http://www.w3.org/2000/svg"><sodipodi:namedview
     id="namedview7"
     pagecolor="#ffffff"
     bordercolor="#999999"
     borderopacity="1"
     inkscape:showpageshadow="0"
     inkscape:pageopacity="0"
     inkscape:pagecheckerboard="0"
     inkscape:deskcolor="#d1d1d1"
     inkscape:document-units="mm"
     showgrid="false"
     inkscape:zoom="0.42096563"
     inkscape:cx="290.99763"
     inkscape:cy="465.59621"
     inkscape:window-width="1440"
     inkscape:window-height="847"
     inkscape:window-x="0"
     inkscape:window-y="25"
     inkscape:window-maximized="1"
     inkscape:current-layer="layer1" /><defs
     id="defs2"><linearGradient
       id="linearGradient13268"
       inkscape:swatch="solid"><stop
         style="stop-color:#eaeaea;stop-opacity:1;"
         offset="0"
         id="stop13266" /></linearGradient></defs><g
     inkscape:label="Layer 1"
     inkscape:groupmode="layer"
     id="layer1"><circle
       style="fill:#008000;stroke:#1e1a1a;stroke-width:0.6;stroke-linejoin:bevel;stroke-miterlimit:3.4;stroke-dasharray:none"
       id="path577"
       cx="104.84738"
       cy="157.80132"
       r="49.950783"
       inkscape:export-filename="logo.png"
       inkscape:export-xdpi="25.18"
       inkscape:export-ydpi="25.18" /><ellipse
       style="fill:#ffffff;stroke:#1e1a1a;stroke-width:0.6;stroke-linejoin:bevel;stroke-miterlimit:3.4;stroke-dasharray:none"
       id="path789"
       cx="130.32359"
       cy="140.37454"
       rx="11.302401"
       ry="12.686368" /><ellipse
       style="fill:#ffffff;stroke:#1e1a1a;stroke-width:0.6;stroke-linejoin:bevel;stroke-miterlimit:3.4;stroke-dasharray:none"
       id="path789-0"
       cx="102.4136"
       cy="142.91182"
       rx="11.302401"
       ry="12.686368" /><path
       style="fill:#901600;fill-opacity:1;stroke:#000000;stroke-width:0.6;stroke-linecap:butt;stroke-linejoin:miter;stroke-dasharray:none;stroke-opacity:1"
       d="m 135.29273,165.84682 c -4.41659,1.4602 -9.07107,1.57648 -16.05635,2.47412 -10.80109,1.38798 -13.75474,1.62222 -15.70254,3.85011 -2.5424,2.90799 -4.305824,6.768 -2.52151,9.20747 1.55524,2.12628 3.65572,3.33748 7.22763,3.33748 3.57191,0 9.72606,-1.99618 14.67851,-1.90143 5.58164,0.10679 11.22154,-2.61686 15.61774,-3.71591 4.63695,-3.18801 3.41254,-4.47987 3.63809,-7.42886 -1.13681,-4.02316 -2.2876,-6.70648 -6.88157,-5.82298 z"
       id="path1369"
       sodipodi:nodetypes="csssssccc" /><ellipse
       style="fill:#000000;fill-opacity:1;stroke:#1e1a1a;stroke-width:0.0927953;stroke-linejoin:bevel;stroke-miterlimit:3.4"
       id="path2097"
       cx="106.83224"
       cy="144.44933"
       rx="6.8085122"
       ry="6.5738606" /><ellipse
       style="fill:#000000;fill-opacity:1;stroke:#1e1a1a;stroke-width:0.0927953;stroke-linejoin:bevel;stroke-miterlimit:3.4"
       id="path2097-3"
       cx="134.44757"
       cy="143.03351"
       rx="6.8085122"
       ry="6.5738606" /><path
       style="fill:#008000;stroke:#000000;stroke-width:0.623157;stroke-linecap:butt;stroke-linejoin:miter;stroke-dasharray:none;stroke-opacity:1"
       d="m 100.37154,109.66605 c -2.724049,-7.94501 -4.548308,-11.143585 -8.636633,-15.178492 -4.851991,-4.788601 -8.05601,-5.570599 -17.157625,-7.985952 1.391845,7.292892 4.158537,11.10189 8.582666,15.107644 3.136677,2.84007 6.088521,4.98645 17.211592,8.0568 z"
       id="path8291"
       sodipodi:nodetypes="cscsc" /><path
       d="m 65.533703,192.40864 a 1.6070492,1.6070492 0 0 1 -2.408228,2.12858 c -3.806446,-4.30323 -5.750793,-8.87293 -5.675125,-13.51832 0.07896,-4.52365 2.069364,-9.03085 6.122557,-13.33407 a 1.6120649,1.6120649 0 0 1 2.345718,2.20753 c -3.480744,3.69459 -5.178347,7.48459 -5.250725,11.17919 -0.0658,3.81303 1.605485,7.64908 4.865803,11.33709 z m 13.597275,-7.79384 v 21.50296 a 1.4936277,1.4936277 0 0 1 -2.987255,0 V 184.6148 a 3.7899975,3.7899975 0 1 1 2.987255,0 z m 7.155594,4.66182 a 1.6090156,1.6090156 0 0 1 -2.497055,-2.02988 c 1.608774,-1.97396 2.444416,-4.06964 2.450995,-6.1423 0.0066,-2.07265 -0.779712,-4.09596 -2.408227,-6.09294 a 1.6090169,1.6090169 0 1 1 2.497056,-2.02989 c 2.115424,2.59247 3.132005,5.35271 3.125427,8.12283 0,2.83264 -1.092251,5.61263 -3.168196,8.17218 z m -14.801388,-2.02988 a 1.6090161,1.6090161 0 0 1 -2.497056,2.02988 c -2.075944,-2.55955 -3.158331,-5.33954 -3.168201,-8.17218 0,-2.77012 1.010009,-5.53036 3.128722,-8.12283 a 1.608775,1.608775 0 1 1 2.493766,2.02989 c -1.644965,1.99698 -2.411518,4.06635 -2.408228,6.09294 0.0032,2.0266 0.845512,4.16834 2.450997,6.1423 z m 20.664039,7.29048 a 1.6070492,1.6070492 0 0 1 -2.408228,-2.12858 c 3.263613,-3.68801 4.934893,-7.52406 4.865807,-11.33709 -0.06255,-3.71104 -1.769983,-7.4846 -5.263893,-11.18576 a 1.6120649,1.6120649 0 1 1 2.34572,-2.20754 c 4.053195,4.30323 6.043598,8.81043 6.119261,13.33408 0.07896,4.64538 -1.865375,9.21179 -5.671823,13.51831 z"
       id="path1"
       style="stroke-width:0.328992" /></g></svg>
