<?xml version="1.0" encoding="UTF-8" standalone="no"?>
<!-- Created with Inkscape (http://www.inkscape.org/) -->

<svg
   width="210mm"
   height="297mm"
   viewBox="0 0 210 297"
   version="1.1"
   id="svg5"
   inkscape:version="1.2.2 (b0a84865, 2022-12-01)"
   sodipodi:docname="logo-south-korea.svg"
   xmlns:inkscape="http://www.inkscape.org/namespaces/inkscape"
   xmlns:sodipodi="http://sodipodi.sourceforge.net/DTD/sodipodi-0.dtd"
   xmlns="http://www.w3.org/2000/svg"
   xmlns:svg="http://www.w3.org/2000/svg">
  <sodipodi:namedview
     id="namedview7"
     pagecolor="#ffffff"
     bordercolor="#999999"
     borderopacity="1"
     inkscape:showpageshadow="0"
     inkscape:pageopacity="0"
     inkscape:pagecheckerboard="0"
     inkscape:deskcolor="#d1d1d1"
     inkscape:document-units="mm"
     showgrid="false"
     inkscape:zoom="0.5731241"
     inkscape:cx="170.99263"
     inkscape:cy="388.22307"
     inkscape:window-width="1440"
     inkscape:window-height="847"
     inkscape:window-x="0"
     inkscape:window-y="25"
     inkscape:window-maximized="1"
     inkscape:current-layer="layer1" />
  <defs
     id="defs2"><linearGradient
   id="linearGradient13268"
   inkscape:swatch="solid">
  <stop
     style="stop-color:#eaeaea;stop-opacity:1;"
     offset="0"
     id="stop13266" />
</linearGradient>

	
	
	
	
	
	
	
	
	
	
	
	
	
	
	
	
	
	
	
	
	
	
	
</defs>
  <g
     inkscape:label="Layer 1"
     inkscape:groupmode="layer"
     id="layer1">
    <circle
       style="fill:#008000;stroke:#1e1a1a;stroke-width:0.6;stroke-linejoin:bevel;stroke-miterlimit:3.4;stroke-dasharray:none"
       id="path577"
       cx="104.84738"
       cy="140.36922"
       inkscape:export-filename="logo-south-korea.png"
       inkscape:export-xdpi="126.36619"
       inkscape:export-ydpi="126.36619"
       r="49.950783" />
    <ellipse
       style="fill:#ffffff;stroke:#1e1a1a;stroke-width:0.6;stroke-linejoin:bevel;stroke-miterlimit:3.4;stroke-dasharray:none"
       id="path789"
       cx="130.32359"
       cy="122.94245"
       rx="11.302401"
       ry="12.686368" />
    <ellipse
       style="fill:#ffffff;stroke:#1e1a1a;stroke-width:0.6;stroke-linejoin:bevel;stroke-miterlimit:3.4;stroke-dasharray:none"
       id="path789-0"
       cx="102.4136"
       cy="125.47973"
       rx="11.302401"
       ry="12.686368" />
    <path
       style="fill:#901600;fill-opacity:1;stroke:#000000;stroke-width:0.6;stroke-linecap:butt;stroke-linejoin:miter;stroke-opacity:1;stroke-dasharray:none"
       d="m 135.29273,148.41464 c -4.41659,1.4602 -9.07107,1.57648 -16.05635,2.47412 -10.80109,1.38798 -13.75474,1.62222 -15.70254,3.85011 -2.5424,2.90799 -4.305824,6.768 -2.52151,9.20747 1.55524,2.12628 3.65572,3.33748 7.22763,3.33748 3.57191,0 9.72606,-1.99618 14.67851,-1.90143 5.58164,0.10679 11.22154,-2.61686 15.61774,-3.71591 4.63695,-3.18801 3.41254,-4.47987 3.63809,-7.42886 -1.13681,-4.02316 -2.2876,-6.70648 -6.88157,-5.82298 z"
       id="path1369"
       sodipodi:nodetypes="csssssccc" />
    <ellipse
       style="fill:#000000;fill-opacity:1;stroke:#1e1a1a;stroke-width:0.0927953;stroke-linejoin:bevel;stroke-miterlimit:3.4"
       id="path2097"
       cx="106.83224"
       cy="127.01723"
       rx="6.8085122"
       ry="6.5738606" />
    <ellipse
       style="fill:#000000;fill-opacity:1;stroke:#1e1a1a;stroke-width:0.0927953;stroke-linejoin:bevel;stroke-miterlimit:3.4"
       id="path2097-3"
       cx="134.44757"
       cy="125.60141"
       rx="6.8085122"
       ry="6.5738606" />
    <path
       style="fill:#008000;stroke:#000000;stroke-width:0.623157;stroke-linecap:butt;stroke-linejoin:miter;stroke-dasharray:none;stroke-opacity:1"
       d="M 100.37154,92.233873 C 97.647491,84.288875 95.823232,81.090308 91.734907,77.055401 86.882916,72.2668 83.678897,71.484802 74.577282,69.069449 c 1.391845,7.292892 4.158537,11.10189 8.582666,15.107639 3.136677,2.840053 6.088521,4.986431 17.211592,8.056785 z"
       id="path8291"
       sodipodi:nodetypes="cscsc" />
    <g
       id="g7910"
       transform="matrix(1.3226373,0.01188492,0.0184495,1.3052931,37.634657,108.99262)"
       style="stroke-width:0.463124;stroke-dasharray:none">
      <polygon
         fill-rule="evenodd"
         clip-rule="evenodd"
         fill="#ffffff"
         points="393.252,338.297 217.504,338.297 217.504,454.459 393.252,454.459 "
         id="polygon7560"
         transform="matrix(0.26458333,0,0,0.26458333,-44.471373,-58.43694)"
         style="stroke-width:1.75039;stroke-dasharray:none" />
      <polygon
         fill="none"
         stroke="#000000"
         stroke-width="0.4964"
         stroke-miterlimit="2.6131"
         points="393.252,338.297 217.504,338.297 217.504,454.459 393.252,454.459 "
         id="polygon7562"
         transform="matrix(0.26458333,0,0,0.26458333,-44.471373,-58.43694)"
         style="stroke-width:1.75039;stroke-dasharray:none" />
      <path
         fill-rule="evenodd"
         clip-rule="evenodd"
         fill="#0072bc"
         d="m 42.906743,46.591794 c 0,0 -2.34659,-3.174206 -5.624777,-0.14896 l -0.733161,0.539485 -0.73316,0.539485 C 32.572911,50.213675 30.168643,46.91194 30.168643,46.91194 l 0.0048,0.338402 c 0.03942,0.960702 0.297127,1.926431 0.793221,2.824692 1.705769,3.087687 5.587735,4.205552 8.67066,2.497402 2.156354,-1.195388 3.350684,-3.456252 3.290094,-5.763948 z"
         id="path7564"
         style="stroke-width:0.463124;stroke-dasharray:none" />
      <path
         fill-rule="evenodd"
         clip-rule="evenodd"
         fill="#ed1c24"
         d="m 30.203832,46.589677 c 0.13335,-2.102643 1.278996,-4.101835 3.256757,-5.197475 3.082924,-1.708414 6.965156,-0.590285 8.670924,2.497138 0.408252,0.739246 0.633413,1.51765 0.729986,2.30796 l 0.04551,0.394494 c 0,0 -2.346589,-3.174206 -5.624777,-0.14896 l -0.73316,0.539485 -0.733161,0.539485 C 32.573176,50.213675 30.168907,46.91194 30.168907,46.91194 Z"
         id="path7566"
         style="stroke-width:0.463124;stroke-dasharray:none" />
      <polygon
         fill-rule="evenodd"
         clip-rule="evenodd"
         points="265.777,348.421 249.921,375.926 254.351,378.487 270.207,350.983 "
         id="polygon7568"
         transform="matrix(0.26458333,0,0,0.26458333,-44.471373,-58.43694)"
         style="stroke-width:1.75039;stroke-dasharray:none" />
      <polygon
         fill-rule="evenodd"
         clip-rule="evenodd"
         points="272.643,352.392 256.787,379.896 261.216,382.457 277.073,354.953 "
         id="polygon7570"
         transform="matrix(0.26458333,0,0,0.26458333,-44.471373,-58.43694)"
         style="stroke-width:1.75039;stroke-dasharray:none" />
      <polygon
         fill-rule="evenodd"
         clip-rule="evenodd"
         points="279.51,356.361 263.653,383.865 268.083,386.426 283.939,358.922 "
         id="polygon7572"
         transform="matrix(0.26458333,0,0,0.26458333,-44.471373,-58.43694)"
         style="stroke-width:1.75039;stroke-dasharray:none" />
      <polygon
         fill-rule="evenodd"
         clip-rule="evenodd"
         points="356.147,364.173 363.223,376.566 358.793,379.127 351.718,366.734 "
         id="polygon7574"
         transform="matrix(0.26458333,0,0,0.26458333,-44.471373,-58.43694)"
         style="stroke-width:1.75039;stroke-dasharray:none" />
      <polygon
         fill-rule="evenodd"
         clip-rule="evenodd"
         points="347.665,349.019 354.74,361.412 350.311,363.974 343.235,351.58 "
         id="polygon7576"
         transform="matrix(0.26458333,0,0,0.26458333,-44.471373,-58.43694)"
         style="stroke-width:1.75039;stroke-dasharray:none" />
      <polygon
         fill-rule="evenodd"
         clip-rule="evenodd"
         points="342.337,372.113 349.412,384.505 344.982,387.066 337.907,374.674 "
         id="polygon7578"
         transform="matrix(0.26458333,0,0,0.26458333,-44.471373,-58.43694)"
         style="stroke-width:1.75039;stroke-dasharray:none" />
      <polygon
         fill-rule="evenodd"
         clip-rule="evenodd"
         points="333.854,356.958 340.93,369.352 336.5,371.913 329.424,359.52 "
         id="polygon7580"
         transform="matrix(0.26458333,0,0,0.26458333,-44.471373,-58.43694)"
         style="stroke-width:1.75039;stroke-dasharray:none" />
      <polygon
         fill-rule="evenodd"
         clip-rule="evenodd"
         points="340.5,353.032 356.356,380.536 351.927,383.097 336.07,355.593 "
         id="polygon7582"
         transform="matrix(0.26458333,0,0,0.26458333,-44.471373,-58.43694)"
         style="stroke-width:1.75039;stroke-dasharray:none" />
      <polygon
         fill-rule="evenodd"
         clip-rule="evenodd"
         points="336.243,422.938 329.168,435.33 333.598,437.893 340.673,425.498 "
         id="polygon7584"
         transform="matrix(0.26458333,0,0,0.26458333,-44.471373,-58.43694)"
         style="stroke-width:1.75039;stroke-dasharray:none" />
      <polygon
         fill-rule="evenodd"
         clip-rule="evenodd"
         points="344.726,407.783 337.65,420.178 342.08,422.738 349.155,410.346 "
         id="polygon7586"
         transform="matrix(0.26458333,0,0,0.26458333,-44.471373,-58.43694)"
         style="stroke-width:1.75039;stroke-dasharray:none" />
      <polygon
         fill-rule="evenodd"
         clip-rule="evenodd"
         points="350.054,430.877 342.979,443.271 347.408,445.832 354.483,433.439 "
         id="polygon7588"
         transform="matrix(0.26458333,0,0,0.26458333,-44.471373,-58.43694)"
         style="stroke-width:1.75039;stroke-dasharray:none" />
      <polygon
         fill-rule="evenodd"
         clip-rule="evenodd"
         points="358.536,415.725 351.461,428.117 355.891,430.678 362.966,418.285 "
         id="polygon7590"
         transform="matrix(0.26458333,0,0,0.26458333,-44.471373,-58.43694)"
         style="stroke-width:1.75039;stroke-dasharray:none" />
      <polygon
         fill-rule="evenodd"
         clip-rule="evenodd"
         points="343.188,426.822 336.112,439.215 340.542,441.777 347.617,429.383 "
         id="polygon7592"
         transform="matrix(0.26458333,0,0,0.26458333,-44.471373,-58.43694)"
         style="stroke-width:1.75039;stroke-dasharray:none" />
      <polygon
         fill-rule="evenodd"
         clip-rule="evenodd"
         points="351.671,411.668 344.595,424.063 349.024,426.623 356.101,414.229 "
         id="polygon7594"
         transform="matrix(0.26458333,0,0,0.26458333,-44.471373,-58.43694)"
         style="stroke-width:1.75039;stroke-dasharray:none" />
      <polygon
         fill-rule="evenodd"
         clip-rule="evenodd"
         points="268.381,406.846 284.237,434.35 279.808,436.91 263.952,409.406 "
         id="polygon7596"
         transform="matrix(0.26458333,0,0,0.26458333,-44.471373,-58.43694)"
         style="stroke-width:1.75039;stroke-dasharray:none" />
      <polygon
         fill-rule="evenodd"
         clip-rule="evenodd"
         points="270.211,425.926 277.372,438.318 272.942,440.881 265.781,428.486 "
         id="polygon7598"
         transform="matrix(0.26458333,0,0,0.26458333,-44.471373,-58.43694)"
         style="stroke-width:1.75039;stroke-dasharray:none" />
      <polygon
         fill-rule="evenodd"
         clip-rule="evenodd"
         points="261.771,411.07 268.932,423.463 264.502,426.025 257.341,413.631 "
         id="polygon7600"
         transform="matrix(0.26458333,0,0,0.26458333,-44.471373,-58.43694)"
         style="stroke-width:1.75039;stroke-dasharray:none" />
      <polygon
         fill-rule="evenodd"
         clip-rule="evenodd"
         points="254.649,414.785 270.506,442.289 266.076,444.85 250.219,417.346 "
         id="polygon7602"
         transform="matrix(0.26458333,0,0,0.26458333,-44.471373,-58.43694)"
         style="stroke-width:1.75039;stroke-dasharray:none" />
    </g>
  </g>
</svg>
