<?xml version="1.0" encoding="UTF-8" standalone="no"?>
<!-- Created with Inkscape (http://www.inkscape.org/) -->

<svg
   width="210mm"
   height="297mm"
   viewBox="0 0 210 297"
   version="1.1"
   id="svg5"
   inkscape:version="1.4 (e7c3feb1, 2024-10-09)"
   sodipodi:docname="logo-watch-accented.svg"
   inkscape:export-filename="logo-watch-accented.png"
   inkscape:export-xdpi="17.691267"
   inkscape:export-ydpi="17.691267"
   xmlns:inkscape="http://www.inkscape.org/namespaces/inkscape"
   xmlns:sodipodi="http://sodipodi.sourceforge.net/DTD/sodipodi-0.dtd"
   xmlns="http://www.w3.org/2000/svg"
   xmlns:svg="http://www.w3.org/2000/svg">
  <sodipodi:namedview
     id="namedview7"
     pagecolor="#ffffff"
     bordercolor="#999999"
     borderopacity="1"
     inkscape:showpageshadow="0"
     inkscape:pageopacity="0"
     inkscape:pagecheckerboard="0"
     inkscape:deskcolor="#d1d1d1"
     inkscape:document-units="mm"
     showgrid="false"
     inkscape:zoom="0.82764812"
     inkscape:cx="474.83948"
     inkscape:cy="540.0846"
     inkscape:window-width="1440"
     inkscape:window-height="847"
     inkscape:window-x="0"
     inkscape:window-y="25"
     inkscape:window-maximized="1"
     inkscape:current-layer="layer1" />
  <defs
     id="defs2">
    <inkscape:path-effect
       effect="powerclip"
       message=""
       id="path-effect14"
       is_visible="true"
       lpeversion="1"
       inverse="true"
       flatten="false"
       hide_clip="false" />
    <linearGradient
       id="linearGradient13268"
       inkscape:swatch="solid">
      <stop
         style="stop-color:#eaeaea;stop-opacity:1;"
         offset="0"
         id="stop13266" />
    </linearGradient>
    <clipPath
       clipPathUnits="userSpaceOnUse"
       id="clipPath12">
      <g
         id="g14"
         style="display:none;opacity:0.668008">
        <ellipse
           style="fill:#ffffff;stroke:#1e1a1a;stroke-width:0.6;stroke-linejoin:bevel;stroke-miterlimit:3.4;stroke-dasharray:none"
           id="ellipse13"
           cx="130.32359"
           cy="122.94245"
           rx="11.302401"
           ry="12.686368"
           d="m 141.62599,122.94245 a 11.302401,12.686368 0 0 1 -11.3024,12.68637 11.302401,12.686368 0 0 1 -11.3024,-12.68637 11.302401,12.686368 0 0 1 11.3024,-12.68637 11.302401,12.686368 0 0 1 11.3024,12.68637 z" />
        <ellipse
           style="fill:#ffffff;stroke:#1e1a1a;stroke-width:0.6;stroke-linejoin:bevel;stroke-miterlimit:3.4;stroke-dasharray:none"
           id="ellipse14"
           cx="102.4136"
           cy="125.47973"
           rx="11.302401"
           ry="12.686368"
           d="M 113.716,125.47973 A 11.302401,12.686368 0 0 1 102.4136,138.1661 11.302401,12.686368 0 0 1 91.111197,125.47973 11.302401,12.686368 0 0 1 102.4136,112.79336 11.302401,12.686368 0 0 1 113.716,125.47973 Z" />
        <path
           style="fill:#901600;fill-opacity:1;stroke:#000000;stroke-width:0.6;stroke-linecap:butt;stroke-linejoin:miter;stroke-dasharray:none;stroke-opacity:1"
           d="m 135.29273,148.41464 c -4.41659,1.4602 -9.07107,1.57648 -16.05635,2.47412 -10.80109,1.38798 -13.75474,1.62222 -15.70254,3.85011 -2.5424,2.90799 -4.305824,6.768 -2.52151,9.20747 1.55524,2.12628 3.65572,3.33748 7.22763,3.33748 3.57191,0 9.72606,-1.99618 14.67851,-1.90143 5.58164,0.10679 11.22154,-2.61686 15.61774,-3.71591 4.63695,-3.18801 3.41254,-4.47987 3.63809,-7.42886 -1.13681,-4.02316 -2.2876,-6.70648 -6.88157,-5.82298 z"
           id="path14"
           sodipodi:nodetypes="csssssccc" />
      </g>
      <path
         id="lpe_path-effect14"
         style="opacity:0.668008"
         class="powerclip"
         d="M 49.596599,85.118434 H 160.09816 V 195.62 H 49.596599 Z m 92.029391,37.824016 a 11.302401,12.686368 0 0 0 -11.3024,-12.68637 11.302401,12.686368 0 0 0 -11.3024,12.68637 11.302401,12.686368 0 0 0 11.3024,12.68637 11.302401,12.686368 0 0 0 11.3024,-12.68637 z M 113.716,125.47973 A 11.302401,12.686368 0 0 0 102.4136,112.79336 11.302401,12.686368 0 0 0 91.111197,125.47973 11.302401,12.686368 0 0 0 102.4136,138.1661 11.302401,12.686368 0 0 0 113.716,125.47973 Z m 21.57673,22.93491 c -4.41659,1.4602 -9.07107,1.57648 -16.05635,2.47412 -10.80109,1.38798 -13.75474,1.62222 -15.70254,3.85011 -2.5424,2.90799 -4.305824,6.768 -2.52151,9.20747 1.55524,2.12628 3.65572,3.33748 7.22763,3.33748 3.57191,0 9.72606,-1.99618 14.67851,-1.90143 5.58164,0.10679 11.22154,-2.61686 15.61774,-3.71591 4.63695,-3.18801 3.41254,-4.47987 3.63809,-7.42886 -1.13681,-4.02316 -2.2876,-6.70648 -6.88157,-5.82298 z" />
    </clipPath>
  </defs>
  <g
     inkscape:label="Layer 1"
     inkscape:groupmode="layer"
     id="layer1">
    <path
       style="fill:#008000;stroke:#1e1a1a;stroke-width:0.6;stroke-linejoin:bevel;stroke-miterlimit:3.4;stroke-dasharray:none"
       id="path577"
       inkscape:export-filename="logo.png"
       inkscape:export-xdpi="25.18"
       inkscape:export-ydpi="25.18"
       clip-path="url(#clipPath12)"
       inkscape:path-effect="#path-effect14"
       sodipodi:type="arc"
       sodipodi:cx="104.84738"
       sodipodi:cy="140.36922"
       sodipodi:rx="49.950783"
       sodipodi:ry="49.950783"
       d="M 154.79816,140.36922 A 49.950783,49.950783 0 0 1 104.84738,190.32 49.950783,49.950783 0 0 1 54.896599,140.36922 49.950783,49.950783 0 0 1 104.84738,90.418434 49.950783,49.950783 0 0 1 154.79816,140.36922 Z" />
    <g
       id="g3"
       style="opacity:0.5">
      <ellipse
         style="fill:#ffffff;stroke:#1e1a1a;stroke-width:0.6;stroke-linejoin:bevel;stroke-miterlimit:3.4;stroke-dasharray:none"
         id="path789"
         cx="130.32359"
         cy="122.94245"
         rx="11.302401"
         ry="12.686368" />
      <ellipse
         style="fill:#ffffff;stroke:#1e1a1a;stroke-width:0.6;stroke-linejoin:bevel;stroke-miterlimit:3.4;stroke-dasharray:none"
         id="path789-0"
         cx="102.4136"
         cy="125.47973"
         rx="11.302401"
         ry="12.686368" />
      <path
         style="fill:#901600;fill-opacity:1;stroke:#000000;stroke-width:0.6;stroke-linecap:butt;stroke-linejoin:miter;stroke-opacity:1;stroke-dasharray:none"
         d="m 135.29273,148.41464 c -4.41659,1.4602 -9.07107,1.57648 -16.05635,2.47412 -10.80109,1.38798 -13.75474,1.62222 -15.70254,3.85011 -2.5424,2.90799 -4.305824,6.768 -2.52151,9.20747 1.55524,2.12628 3.65572,3.33748 7.22763,3.33748 3.57191,0 9.72606,-1.99618 14.67851,-1.90143 5.58164,0.10679 11.22154,-2.61686 15.61774,-3.71591 4.63695,-3.18801 3.41254,-4.47987 3.63809,-7.42886 -1.13681,-4.02316 -2.2876,-6.70648 -6.88157,-5.82298 z"
         id="path1369"
         sodipodi:nodetypes="csssssccc" />
    </g>
    <ellipse
       style="fill:#000000;fill-opacity:0.64999998;stroke:#1e1a1a;stroke-width:0.0927953;stroke-linejoin:bevel;stroke-miterlimit:3.4;opacity:1"
       id="path2097"
       cx="106.83224"
       cy="127.01723"
       rx="6.8085122"
       ry="6.5738606" />
    <ellipse
       style="fill:#000000;fill-opacity:0.64999998;stroke:#1e1a1a;stroke-width:0.0927953;stroke-linejoin:bevel;stroke-miterlimit:3.4;opacity:1"
       id="path2097-3"
       cx="134.44757"
       cy="125.60141"
       rx="6.8085122"
       ry="6.5738606" />
    <path
       style="fill:#008000;stroke:#000000;stroke-width:0.623157;stroke-linecap:butt;stroke-linejoin:miter;stroke-dasharray:none;stroke-opacity:1"
       d="M 100.37154,92.233873 C 97.647491,84.288875 95.823232,81.090308 91.734907,77.055401 86.882916,72.2668 83.678897,71.484802 74.577282,69.069449 c 1.391845,7.292892 4.158537,11.10189 8.582666,15.107639 3.136677,2.840053 6.088521,4.986431 17.211592,8.056785 z"
       id="path8291"
       sodipodi:nodetypes="cscsc"
       inkscape:export-filename="logo-watch-accented.png"
       inkscape:export-xdpi="17.691267"
       inkscape:export-ydpi="17.691267" />
  </g>
</svg>
