<?xml version="1.0" encoding="UTF-8" standalone="no"?>
<!-- Created with Inkscape (http://www.inkscape.org/) -->

<svg
   width="210mm"
   height="297mm"
   viewBox="0 0 210 297"
   version="1.1"
   id="svg5"
   inkscape:version="1.2.2 (b0a84865, 2022-12-01)"
   sodipodi:docname="logo-goblina-square.svg"
   xmlns:inkscape="http://www.inkscape.org/namespaces/inkscape"
   xmlns:sodipodi="http://sodipodi.sourceforge.net/DTD/sodipodi-0.dtd"
   xmlns="http://www.w3.org/2000/svg"
   xmlns:svg="http://www.w3.org/2000/svg">
  <sodipodi:namedview
     id="namedview7"
     pagecolor="#ffffff"
     bordercolor="#999999"
     borderopacity="1"
     inkscape:showpageshadow="0"
     inkscape:pageopacity="0"
     inkscape:pagecheckerboard="0"
     inkscape:deskcolor="#d1d1d1"
     inkscape:document-units="mm"
     showgrid="false"
     inkscape:zoom="0.47320837"
     inkscape:cx="103.54846"
     inkscape:cy="449.06221"
     inkscape:window-width="1440"
     inkscape:window-height="847"
     inkscape:window-x="0"
     inkscape:window-y="25"
     inkscape:window-maximized="1"
     inkscape:current-layer="layer1" />
  <defs
     id="defs2">
    <linearGradient
       id="linearGradient13268"
       inkscape:swatch="solid">
      <stop
         style="stop-color:#eaeaea;stop-opacity:1;"
         offset="0"
         id="stop13266" />
    </linearGradient>
  </defs>
  <g
     inkscape:label="Layer 1"
     inkscape:groupmode="layer"
     id="layer1">
    <rect
       style="fill:#1e1f22;stroke:#1e1f22;stroke-width:0.535711;stroke-linejoin:bevel;stroke-miterlimit:3.4"
       id="rect906"
       width="129.46428"
       height="129.46429"
       x="40.267857"
       y="64.267853"
       inkscape:export-filename="logo-goblina-square.png"
       inkscape:export-xdpi="200.07385"
       inkscape:export-ydpi="200.07385" />
    <path
       style="fill:#29a429;fill-opacity:1;stroke:#000000;stroke-width:0.6;stroke-linecap:butt;stroke-linejoin:miter;stroke-dasharray:none;stroke-opacity:1"
       d="m 56.675921,130.18255 c -2.471274,-16.32562 0.308528,-28.3802 -4.071279,-49.47182 19.627259,18.277098 23.077339,24.93232 28.180095,36.38068"
       id="path350"
       sodipodi:nodetypes="ccc"
       inkscape:export-filename="logo-goblina.png"
       inkscape:export-xdpi="123.25063"
       inkscape:export-ydpi="123.25063" />
    <path
       style="fill:#29a429;fill-opacity:1;stroke:#000000;stroke-width:0.6;stroke-linecap:butt;stroke-linejoin:miter;stroke-dasharray:none;stroke-opacity:1"
       d="m 147.64261,126.13211 c 2.47127,-16.32562 -0.30853,-28.380221 4.07128,-49.471833 -19.62726,18.277098 -23.07734,24.932333 -28.1801,36.380693"
       id="path350-3"
       sodipodi:nodetypes="ccc" />
    <ellipse
       style="fill:#29a429;fill-opacity:1;stroke:#1e1a1a;stroke-width:0.559765;stroke-linejoin:bevel;stroke-miterlimit:3.4;stroke-dasharray:none"
       id="path577"
       cx="104.84738"
       cy="135.44443"
       inkscape:export-filename="logo.png"
       inkscape:export-xdpi="25.18"
       inkscape:export-ydpi="25.18"
       rx="49.970901"
       ry="43.45863" />
    <ellipse
       style="fill:#ffffff;stroke:#1e1a1a;stroke-width:0.6;stroke-linejoin:bevel;stroke-miterlimit:3.4;stroke-dasharray:none"
       id="path789"
       cx="125.25385"
       cy="125.90037"
       rx="11.351924"
       ry="8.8050442" />
    <ellipse
       style="fill:#ffffff;stroke:#1e1a1a;stroke-width:0.6;stroke-linejoin:bevel;stroke-miterlimit:3.4;stroke-dasharray:none"
       id="path789-0"
       cx="97.343834"
       cy="127.80872"
       rx="11.343349"
       ry="9.4254045" />
    <ellipse
       style="fill:#000000;fill-opacity:1;stroke:#1e1a1a;stroke-width:0.0927953;stroke-linejoin:bevel;stroke-miterlimit:3.4"
       id="path2097"
       cx="101.76247"
       cy="127.63177"
       rx="6.8085122"
       ry="6.5738606" />
    <ellipse
       style="fill:#000000;fill-opacity:1;stroke:#1e1a1a;stroke-width:0.0927953;stroke-linejoin:bevel;stroke-miterlimit:3.4"
       id="path2097-3"
       cx="129.75775"
       cy="126.0667"
       rx="6.8085122"
       ry="6.5738606" />
    <path
       style="fill:none;stroke:#000000;stroke-width:0.6;stroke-linecap:butt;stroke-linejoin:miter;stroke-dasharray:none;stroke-opacity:1"
       d="m 96.308514,165.21595 c 10.035446,-2.05337 20.974736,-3.37357 33.897946,-3.08453"
       id="path15573"
       sodipodi:nodetypes="cc" />
    <path
       style="fill:none;stroke:#000000;stroke-width:0.6;stroke-linecap:butt;stroke-linejoin:miter;stroke-dasharray:none;stroke-opacity:1"
       d="m 112.29044,135.45857 c 4.46734,3.87005 8.05729,10.1241 6.38512,11.09731 -3.41449,1.18382 -5.50395,1.35841 -10.36458,1.2181"
       id="path1740"
       sodipodi:nodetypes="ccc" />
    <path
       style="fill:#c24444;fill-opacity:1;stroke:#000000;stroke-width:0.6;stroke-linecap:butt;stroke-linejoin:miter;stroke-dasharray:none;stroke-opacity:1"
       d="m 112.85161,162.48412 c 0,0 -5.34959,-9.21335 -9.76325,-8.33035 -6.030111,1.20638 -0.59076,9.66951 -0.59076,9.66951"
       id="path9804"
       sodipodi:nodetypes="csc" />
    <path
       style="fill:#9c2d9a;fill-opacity:1;stroke:#000000;stroke-width:0.6;stroke-linecap:butt;stroke-linejoin:miter;stroke-dasharray:none;stroke-opacity:1"
       d="m 105.21085,91.065912 c -13.133892,-0.14629 -26.896688,0.238822 -35.69278,8.09515 -10.122679,8.411548 -12.790117,20.046098 -14.610136,29.643728 -1.686809,17.02652 6.338021,25.68312 6.130522,45.93255 l 4.66424,-11.99439 c 2.537392,3.49376 4.104899,5.83129 4.662538,13.68325 1.42658,-4.25968 3.532038,-7.87976 5.284745,-17.83757 3.042124,11.62948 4.295358,12.982 6.721869,16.9538 0.06368,-22.28889 -1.700126,-48.4872 9.891128,-66.62389 2.492739,4.77504 3.359529,6.24311 5.751996,8.26285 1.811492,-3.68947 3.131378,-5.5066 5.730518,-7.22694 3.05752,4.68943 5.50796,9.58123 7.38404,14.66448 1.84876,-5.36517 2.49928,-10.73035 1.98511,-16.09552 2.94021,1.22889 5.62751,2.7107 6.23942,6.26788 1.81873,-1.59479 3.05689,-2.39948 5.11307,-5.95726 17.54891,9.56516 13.91645,35.34607 13.72366,65.02569 2.49108,-4.10879 5.48097,-10.19448 7.47176,-18.41076 0.80029,10.89733 0.0462,4.98571 0.47465,18.97406 2.4039,-7.13974 2.95911,-9.58572 4.10785,-14.34557 -0.0332,8.29002 2.69205,13.83142 2.95327,12.93153 0.40488,-1.30519 -0.53522,-4.96194 0.10644,-18.0321 0.12761,-2.59928 1.35993,-16.75225 1.51405,-20.12662 0.60932,-13.34107 -5.46655,-27.22601 -11.30781,-34.56027 -9.77377,-11.701136 -23.54217,-9.525661 -38.30011,-9.224078 z"
       id="path3381"
       sodipodi:nodetypes="ccccccccccccccccccccssccc" />
    <path
       style="fill:none;stroke:#000000;stroke-width:0.6;stroke-linecap:butt;stroke-linejoin:miter;stroke-dasharray:none;stroke-opacity:1"
       d="m 113.13067,108.65117 c -0.26943,-3.41755 -0.4742,-4.4165 -3.04314,-8.5504"
       id="path25489"
       sodipodi:nodetypes="cc" />
    <path
       style="fill:none;stroke:#000000;stroke-width:0.6;stroke-linecap:butt;stroke-linejoin:miter;stroke-dasharray:none;stroke-opacity:1"
       d="m 145.60205,156.15693 c 1.24816,-7.34996 1.18147,-16.07113 0.20732,-22.92009"
       id="path25495"
       sodipodi:nodetypes="cc" />
    <path
       style="fill:none;stroke:#000000;stroke-width:0.6;stroke-linecap:butt;stroke-linejoin:miter;stroke-dasharray:none;stroke-opacity:1"
       d="M 75.703898,158.45309 C 75.239433,154.60293 74.920116,146.82101 75.551,142.42561"
       id="path25522"
       sodipodi:nodetypes="cc" />
  </g>
</svg>
