<?xml version="1.0" encoding="UTF-8" standalone="no"?>
<!-- Created with Inkscape (http://www.inkscape.org/) -->

<svg
   width="210mm"
   height="297mm"
   viewBox="0 0 210 297"
   version="1.1"
   id="svg5"
   inkscape:version="1.2.2 (b0a84865, 2022-12-01)"
   sodipodi:docname="logo-united-kingdom.svg"
   xmlns:inkscape="http://www.inkscape.org/namespaces/inkscape"
   xmlns:sodipodi="http://sodipodi.sourceforge.net/DTD/sodipodi-0.dtd"
   xmlns="http://www.w3.org/2000/svg"
   xmlns:svg="http://www.w3.org/2000/svg">
  <sodipodi:namedview
     id="namedview7"
     pagecolor="#ffffff"
     bordercolor="#999999"
     borderopacity="1"
     inkscape:showpageshadow="0"
     inkscape:pageopacity="0"
     inkscape:pagecheckerboard="0"
     inkscape:deskcolor="#d1d1d1"
     inkscape:document-units="mm"
     showgrid="false"
     inkscape:zoom="0.59502777"
     inkscape:cx="524.34527"
     inkscape:cy="508.37963"
     inkscape:window-width="1440"
     inkscape:window-height="847"
     inkscape:window-x="0"
     inkscape:window-y="25"
     inkscape:window-maximized="1"
     inkscape:current-layer="layer1" />
  <defs
     id="defs2">
    <linearGradient
       id="linearGradient13268"
       inkscape:swatch="solid">
      <stop
         style="stop-color:#eaeaea;stop-opacity:1;"
         offset="0"
         id="stop13266" />
    </linearGradient>
    <clipPath
       id="s-5">
      <path
         d="M 0,0 V 30 H 60 V 0 Z"
         id="path381" />
    </clipPath>
    <clipPath
       id="t">
      <path
         d="m 30,15 h 30 v 15 z m 0,0 V 30 H 0 Z m 0,0 H 0 V 0 Z m 0,0 V 0 h 30 z"
         id="path384" />
    </clipPath>
    <clipPath
       id="s">
      <path
         d="M 0,0 V 30 H 60 V 0 Z"
         id="path693" />
    </clipPath>
    <clipPath
       id="t-7">
      <path
         d="m 30,15 h 30 v 15 z m 0,0 V 30 H 0 Z m 0,0 H 0 V 0 Z m 0,0 V 0 h 30 z"
         id="path696" />
    </clipPath>
  </defs>
  <g
     inkscape:label="Layer 1"
     inkscape:groupmode="layer"
     id="layer1">
    <circle
       style="fill:#008000;stroke:#1e1a1a;stroke-width:0.6;stroke-linejoin:bevel;stroke-miterlimit:3.4;stroke-dasharray:none"
       id="path577"
       cx="104.84738"
       cy="140.36922"
       r="49.950783"
       inkscape:export-filename="logo-china.png"
       inkscape:export-xdpi="126.31773"
       inkscape:export-ydpi="126.31773" />
    <ellipse
       style="fill:#ffffff;stroke:#1e1a1a;stroke-width:0.6;stroke-linejoin:bevel;stroke-miterlimit:3.4;stroke-dasharray:none"
       id="path789"
       cx="130.32359"
       cy="122.94245"
       rx="11.302401"
       ry="12.686368" />
    <ellipse
       style="fill:#ffffff;stroke:#1e1a1a;stroke-width:0.6;stroke-linejoin:bevel;stroke-miterlimit:3.4;stroke-dasharray:none"
       id="path789-0"
       cx="102.4136"
       cy="125.47973"
       rx="11.302401"
       ry="12.686368" />
    <path
       style="fill:#901600;fill-opacity:1;stroke:#000000;stroke-width:0.6;stroke-linecap:butt;stroke-linejoin:miter;stroke-opacity:1;stroke-dasharray:none"
       d="m 135.29273,148.41464 c -4.41659,1.4602 -9.07107,1.57648 -16.05635,2.47412 -10.80109,1.38798 -13.75474,1.62222 -15.70254,3.85011 -2.5424,2.90799 -4.305824,6.768 -2.52151,9.20747 1.55524,2.12628 3.65572,3.33748 7.22763,3.33748 3.57191,0 9.72606,-1.99618 14.67851,-1.90143 5.58164,0.10679 11.22154,-2.61686 15.61774,-3.71591 4.63695,-3.18801 3.41254,-4.47987 3.63809,-7.42886 -1.13681,-4.02316 -2.2876,-6.70648 -6.88157,-5.82298 z"
       id="path1369"
       sodipodi:nodetypes="csssssccc" />
    <ellipse
       style="fill:#000000;fill-opacity:1;stroke:#1e1a1a;stroke-width:0.0927953;stroke-linejoin:bevel;stroke-miterlimit:3.4"
       id="path2097"
       cx="106.83224"
       cy="127.01723"
       rx="6.8085122"
       ry="6.5738606" />
    <ellipse
       style="fill:#000000;fill-opacity:1;stroke:#1e1a1a;stroke-width:0.0927953;stroke-linejoin:bevel;stroke-miterlimit:3.4"
       id="path2097-3"
       cx="134.44757"
       cy="125.60141"
       rx="6.8085122"
       ry="6.5738606" />
    <path
       style="fill:#008000;stroke:#000000;stroke-width:0.623157;stroke-linecap:butt;stroke-linejoin:miter;stroke-dasharray:none;stroke-opacity:1"
       d="M 100.37154,92.233873 C 97.647491,84.288875 95.823232,81.090308 91.734907,77.055401 86.882916,72.2668 83.678897,71.484802 74.577282,69.069449 c 1.391845,7.292892 4.158537,11.10189 8.582666,15.107639 3.136677,2.840053 6.088521,4.986431 17.211592,8.056785 z"
       id="path8291"
       sodipodi:nodetypes="cscsc" />
    <g
       id="g903"
       transform="matrix(0.20217448,0,0,0.20217448,78.447719,145.6034)">
      <g
         clip-path="url(#s)"
         id="g709"
         transform="matrix(5.2916667,0,0,5.2916667,-117.25938,52.121728)">
        <path
           d="M 0,0 V 30 H 60 V 0 Z"
           fill="#012169"
           id="path699" />
        <path
           d="M 0,0 60,30 M 60,0 0,30"
           stroke="#ffffff"
           stroke-width="6"
           id="path701" />
        <path
           d="M 0,0 60,30 M 60,0 0,30"
           clip-path="url(#t-7)"
           stroke="#c8102e"
           stroke-width="4"
           id="path703" />
        <path
           d="M 30,0 V 30 M 0,15 h 60"
           stroke="#ffffff"
           stroke-width="10"
           id="path705" />
        <path
           d="M 30,0 V 30 M 0,15 h 60"
           stroke="#c8102e"
           stroke-width="6"
           id="path707" />
      </g>
    </g>
    <rect
       style="fill:none;stroke:#000000;stroke-width:0.483494;stroke-linejoin:bevel;stroke-miterlimit:3.4;stroke-opacity:1"
       id="rect13105"
       width="64.473457"
       height="32.216843"
       x="54.606525"
       y="156.10614" />
  </g>
</svg>
