<?xml version="1.0" encoding="UTF-8" standalone="no"?>
<!-- Created with Inkscape (http://www.inkscape.org/) -->

<svg
   width="210mm"
   height="297mm"
   viewBox="0 0 210 297"
   version="1.1"
   id="svg5"
   inkscape:version="1.2.2 (b0a84865, 2022-12-01)"
   sodipodi:docname="logo-girly.svg"
   xmlns:inkscape="http://www.inkscape.org/namespaces/inkscape"
   xmlns:sodipodi="http://sodipodi.sourceforge.net/DTD/sodipodi-0.dtd"
   xmlns="http://www.w3.org/2000/svg"
   xmlns:svg="http://www.w3.org/2000/svg">
  <sodipodi:namedview
     id="namedview7"
     pagecolor="#ffffff"
     bordercolor="#999999"
     borderopacity="1"
     inkscape:showpageshadow="0"
     inkscape:pageopacity="0"
     inkscape:pagecheckerboard="0"
     inkscape:deskcolor="#d1d1d1"
     inkscape:document-units="mm"
     showgrid="false"
     inkscape:zoom="0.70649647"
     inkscape:cx="345.3662"
     inkscape:cy="425.33829"
     inkscape:window-width="1440"
     inkscape:window-height="847"
     inkscape:window-x="0"
     inkscape:window-y="25"
     inkscape:window-maximized="1"
     inkscape:current-layer="layer1" />
  <defs
     id="defs2">
    <linearGradient
       id="linearGradient13268"
       inkscape:swatch="solid">
      <stop
         style="stop-color:#eaeaea;stop-opacity:1;"
         offset="0"
         id="stop13266" />
    </linearGradient>
  </defs>
  <g
     inkscape:label="Layer 1"
     inkscape:groupmode="layer"
     id="layer1">
    <circle
       style="fill:#ff69b4;stroke:#1e1a1a;stroke-width:0.6;stroke-linejoin:bevel;stroke-miterlimit:3.4;stroke-dasharray:none"
       id="path577"
       cx="104.84738"
       cy="140.36922"
       r="49.950783" />
    <ellipse
       style="fill:#ffffff;stroke:#1e1a1a;stroke-width:0.6;stroke-linejoin:bevel;stroke-miterlimit:3.4;stroke-dasharray:none"
       id="path789"
       cx="130.32359"
       cy="122.94245"
       rx="11.302401"
       ry="12.686368" />
    <ellipse
       style="fill:#ffffff;stroke:#1e1a1a;stroke-width:0.6;stroke-linejoin:bevel;stroke-miterlimit:3.4;stroke-dasharray:none"
       id="path789-0"
       cx="102.4136"
       cy="125.47973"
       rx="11.302401"
       ry="12.686368" />
    <path
       style="fill:#cc1466;fill-opacity:1;stroke:#000000;stroke-width:0.6;stroke-linecap:butt;stroke-linejoin:miter;stroke-opacity:1;stroke-dasharray:none"
       d="m 135.29273,148.41464 c -4.41659,1.4602 -9.07107,1.57648 -16.05635,2.47412 -10.80109,1.38798 -13.75474,1.62222 -15.70254,3.85011 -2.5424,2.90799 -4.305824,6.768 -2.52151,9.20747 1.55524,2.12628 3.65572,3.33748 7.22763,3.33748 3.57191,0 9.72606,-1.99618 14.67851,-1.90143 5.58164,0.10679 11.22154,-2.61686 15.61774,-3.71591 4.63695,-3.18801 3.41254,-4.47987 3.63809,-7.42886 -1.13681,-4.02316 -2.2876,-6.70648 -6.88157,-5.82298 z"
       id="path1369"
       sodipodi:nodetypes="csssssccc" />
    <ellipse
       style="fill:#000000;fill-opacity:1;stroke:#1e1a1a;stroke-width:0.0927953;stroke-linejoin:bevel;stroke-miterlimit:3.4"
       id="path2097"
       cx="106.83224"
       cy="127.01723"
       rx="6.8085122"
       ry="6.5738606" />
    <ellipse
       style="fill:#000000;fill-opacity:1;stroke:#1e1a1a;stroke-width:0.0927953;stroke-linejoin:bevel;stroke-miterlimit:3.4"
       id="path2097-3"
       cx="134.44757"
       cy="125.60141"
       rx="6.8085122"
       ry="6.5738606" />
    <path
       style="fill:#ff69b4;stroke:#000000;stroke-width:0.623157;stroke-linecap:butt;stroke-linejoin:miter;stroke-dasharray:none;stroke-opacity:1"
       d="M 100.37154,92.233873 C 97.647491,84.288875 95.823232,81.090308 91.734907,77.055401 86.882916,72.2668 83.678897,71.484802 74.577282,69.069449 c 1.391845,7.292892 4.158537,11.10189 8.582666,15.107639 3.136677,2.840053 6.088521,4.986431 17.211592,8.056785 z"
       id="path8291"
       sodipodi:nodetypes="cscsc" />
    <!-- Eyelashes on left eye -->
    <path
       style="fill:none;stroke:#000000;stroke-width:0.8;stroke-linecap:round;stroke-linejoin:miter;stroke-opacity:1"
       d="m 96.5,117.5 -2.5,-4.5"
       id="eyelash-left-1" />
    <path
       style="fill:none;stroke:#000000;stroke-width:0.8;stroke-linecap:round;stroke-linejoin:miter;stroke-opacity:1"
       d="m 100.5,115.0 -1.0,-5.0"
       id="eyelash-left-2" />
    <path
       style="fill:none;stroke:#000000;stroke-width:0.8;stroke-linecap:round;stroke-linejoin:miter;stroke-opacity:1"
       d="m 104.5,114.0 0.5,-5.0"
       id="eyelash-left-3" />
    <!-- Eyelashes on right eye -->
    <path
       style="fill:none;stroke:#000000;stroke-width:0.8;stroke-linecap:round;stroke-linejoin:miter;stroke-opacity:1"
       d="m 124.5,113.5 -1.0,-5.0"
       id="eyelash-right-1" />
    <path
       style="fill:none;stroke:#000000;stroke-width:0.8;stroke-linecap:round;stroke-linejoin:miter;stroke-opacity:1"
       d="m 128.5,112.5 0.0,-5.0"
       id="eyelash-right-2" />
    <path
       style="fill:none;stroke:#000000;stroke-width:0.8;stroke-linecap:round;stroke-linejoin:miter;stroke-opacity:1"
       d="m 132.5,113.0 1.5,-4.5"
       id="eyelash-right-3" />
    <!-- Rosy cheeks -->
    <ellipse
       style="fill:#ff1493;fill-opacity:0.45;stroke:none"
       id="cheek-left"
       cx="90.0"
       cy="140.0"
       rx="6.5"
       ry="4.0" />
    <ellipse
       style="fill:#ff1493;fill-opacity:0.45;stroke:none"
       id="cheek-right"
       cx="143.0"
       cy="137.0"
       rx="6.5"
       ry="4.0" />
    <!-- Bow on top -->
    <g id="bow" transform="translate(104.8, 91.0)">
      <path
         style="fill:#ff1493;fill-opacity:1;stroke:#cc1066;stroke-width:0.5;stroke-linecap:round;stroke-linejoin:round;stroke-opacity:1"
         d="M 0,0 C -4,-3 -12,-8 -14,-4 -16,0 -8,2 0,0 Z"
         id="bow-left" />
      <path
         style="fill:#ff1493;fill-opacity:1;stroke:#cc1066;stroke-width:0.5;stroke-linecap:round;stroke-linejoin:round;stroke-opacity:1"
         d="M 0,0 C 4,-3 12,-8 14,-4 16,0 8,2 0,0 Z"
         id="bow-right" />
      <circle
         style="fill:#ff1493;fill-opacity:1;stroke:#cc1066;stroke-width:0.4"
         id="bow-center"
         cx="0"
         cy="-1"
         r="2.5" />
    </g>
  </g>
</svg>
