<?xml version="1.0" encoding="UTF-8" standalone="no"?>
<!-- Created with Inkscape (http://www.inkscape.org/) -->

<svg
   width="386.33234mm"
   height="161.21608mm"
   viewBox="0 0 386.33234 161.21608"
   version="1.1"
   id="svg5"
   inkscape:version="1.2.2 (b0a84865, 2022-12-01)"
   sodipodi:docname="logo-triple-party-sticker.svg"
   xmlns:inkscape="http://www.inkscape.org/namespaces/inkscape"
   xmlns:sodipodi="http://sodipodi.sourceforge.net/DTD/sodipodi-0.dtd"
   xmlns="http://www.w3.org/2000/svg"
   xmlns:svg="http://www.w3.org/2000/svg">
  <sodipodi:namedview
     id="namedview7"
     pagecolor="#ffffff"
     bordercolor="#999999"
     borderopacity="1"
     inkscape:showpageshadow="0"
     inkscape:pageopacity="0"
     inkscape:pagecheckerboard="0"
     inkscape:deskcolor="#d1d1d1"
     inkscape:document-units="mm"
     showgrid="false"
     inkscape:zoom="0.44470169"
     inkscape:cx="836.51582"
     inkscape:cy="12.367841"
     inkscape:window-width="1440"
     inkscape:window-height="847"
     inkscape:window-x="-1"
     inkscape:window-y="25"
     inkscape:window-maximized="0"
     inkscape:current-layer="layer1" />
  <defs
     id="defs2">
    <linearGradient
       id="linearGradient13268"
       inkscape:swatch="solid">
      <stop
         style="stop-color:#eaeaea;stop-opacity:1;"
         offset="0"
         id="stop13266" />
    </linearGradient>
  </defs>
  <g
     inkscape:label="Layer 1"
     inkscape:groupmode="layer"
     id="layer1"
     transform="translate(29.512799,-167.38674)">
    <circle
       style="fill:#008000;stroke:#1e1a1a;stroke-width:0.6;stroke-linejoin:bevel;stroke-miterlimit:3.4;stroke-dasharray:none"
       id="path577"
       cx="20.737984"
       cy="239.11496"
       r="49.950783"
       inkscape:export-filename="../../../../../Downloads/logo-tub.png"
       inkscape:export-xdpi="119.05297"
       inkscape:export-ydpi="119.05297" />
    <ellipse
       style="fill:#ffffff;stroke:#1e1a1a;stroke-width:0.575864;stroke-linejoin:bevel;stroke-miterlimit:3.4;stroke-dasharray:none"
       id="path789"
       cx="46.214207"
       cy="222.71286"
       rx="11.314468"
       ry="11.673779" />
    <ellipse
       style="fill:#ffffff;stroke:#1e1a1a;stroke-width:0.6;stroke-linejoin:bevel;stroke-miterlimit:3.4;stroke-dasharray:none"
       id="path789-0"
       cx="18.304195"
       cy="224.22548"
       rx="11.302401"
       ry="12.686368" />
    <path
       style="fill:#901600;fill-opacity:1;stroke:#000000;stroke-width:0.6;stroke-linecap:butt;stroke-linejoin:miter;stroke-dasharray:none;stroke-opacity:1"
       d="m 51.183342,247.16016 c -4.04259,-0.4098 -7.94607,-0.79346 -14.93435,0.0805 -6.91149,0.86438 -14.87674,4.01582 -16.824541,6.24371 -2.542402,2.90799 -2.215182,7.54231 -1.205181,9.51719 1.199511,2.34543 2.937382,4.55097 6.313882,5.71622 4.63928,1.60105 9.12692,2.22963 14.07937,2.32438 5.58164,0.10679 9.61823,-2.73329 14.37022,-6.14497 4.63695,-3.18801 4.85662,-8.96508 5.08217,-11.91407 -1.13681,-4.02316 -4.0828,-5.36008 -6.88157,-5.82298 z"
       id="path1369"
       sodipodi:nodetypes="csssssccc" />
    <path
       style="fill:#ffffff;fill-opacity:1;stroke:#000000;stroke-width:0.6;stroke-linecap:butt;stroke-linejoin:miter;stroke-dasharray:none;stroke-opacity:1"
       d="m 47.636592,211.12603 c 0,0 28.47864,2.83529 28.96047,13.32803 0.48184,10.49275 -29.81847,9.89036 -29.81847,9.89036"
       id="path397-3"
       sodipodi:nodetypes="csc" />
    <path
       style="fill:#ffffff;fill-opacity:1;stroke:#000000;stroke-width:0.625274;stroke-linecap:butt;stroke-linejoin:miter;stroke-dasharray:none;stroke-opacity:1"
       d="m 19.798241,211.65733 c 0,0 28.939391,2.75791 29.398521,14.15613 0.45913,11.39822 -30.216082,11.0659 -30.216082,11.0659"
       id="path397"
       sodipodi:nodetypes="csc" />
    <ellipse
       style="fill:#000000;fill-opacity:1;stroke:#1e1a1a;stroke-width:0.0588889;stroke-linejoin:bevel;stroke-miterlimit:3.4"
       id="path2097"
       cx="45.564518"
       cy="225.84407"
       rx="3.404506"
       ry="5.294591" />
    <ellipse
       style="fill:#000000;fill-opacity:1;stroke:#1e1a1a;stroke-width:0.0560965;stroke-linejoin:bevel;stroke-miterlimit:3.4"
       id="path2097-8"
       cx="72.95018"
       cy="224.52878"
       rx="3.3469965"
       ry="4.886941" />
    <path
       style="fill:#008000;stroke:#000000;stroke-width:0.623157;stroke-linecap:butt;stroke-linejoin:miter;stroke-dasharray:none;stroke-opacity:1"
       d="m 16.262149,190.97939 c -2.724051,-7.945 -4.548311,-11.14356 -8.6366366,-15.17847 -4.851991,-4.7886 -8.05600916,-5.5706 -17.1576187,-7.98595 1.3918441,7.29289 4.1585346,11.10189 8.58266087,15.10764 3.13667583,2.84005 6.08851983,4.98643 17.21159443,8.05678 z"
       id="path8291"
       sodipodi:nodetypes="cscsc" />
    <text
       xml:space="preserve"
       style="font-style:normal;font-variant:normal;font-weight:normal;font-stretch:normal;font-size:28.2222px;line-height:1.25;font-family:'Lao MN';-inkscape-font-specification:'Lao MN, Normal';font-variant-ligatures:normal;font-variant-caps:normal;font-variant-numeric:normal;font-variant-east-asian:normal;white-space:pre;inline-size:568.576;display:inline;fill:#000000;fill-opacity:1;stroke:none;stroke-width:0.264583"
       x="56.735039"
       y="192.58684"
       id="text257"
       transform="translate(-62.555316,127.0725)"
       inkscape:export-filename="../../../../../Downloads/logo-tub.png"
       inkscape:export-xdpi="501.19189"
       inkscape:export-ydpi="501.19189"><tspan
         x="56.735039"
         y="192.58684"
         id="tspan661"><tspan
           style="font-size:38.8056px"
           id="tspan659">Moblin Triple Party</tspan></tspan></text>
    <circle
       style="fill:#008000;stroke:#1e1a1a;stroke-width:0.334428;stroke-linejoin:bevel;stroke-miterlimit:3.4;stroke-dasharray:none"
       id="path577-22"
       cx="177.38904"
       cy="244.00226"
       r="27.841583"
       inkscape:export-filename="logo-china.png"
       inkscape:export-xdpi="126.31773"
       inkscape:export-ydpi="126.31773" />
    <path
       style="fill:#f43434;fill-opacity:1;stroke:#000000;stroke-width:0.167214;stroke-linecap:butt;stroke-linejoin:miter;stroke-dasharray:none;stroke-opacity:1"
       d="m 151.68314,263.97949 7.35678,-0.19884 -3.57897,2.78366 z"
       id="path899-5" />
    <circle
       style="fill:#53b1eb;fill-opacity:1;stroke:#000000;stroke-width:0.167214;stroke-linejoin:bevel;stroke-miterlimit:3.4;stroke-dasharray:none;stroke-opacity:1"
       id="path953-1-6"
       cx="152.94209"
       cy="255.42929"
       r="2.6842332" />
    <ellipse
       style="fill:#ffffff;stroke:#1e1a1a;stroke-width:0.334428;stroke-linejoin:bevel;stroke-miterlimit:3.4;stroke-dasharray:none"
       id="path789-49"
       cx="189.88992"
       cy="234.79863"
       rx="6.2997355"
       ry="7.0711317" />
    <ellipse
       style="fill:#ffffff;stroke:#1e1a1a;stroke-width:0.334428;stroke-linejoin:bevel;stroke-miterlimit:3.4;stroke-dasharray:none"
       id="path789-0-3"
       cx="174.33345"
       cy="236.21286"
       rx="6.2997355"
       ry="7.0711317" />
    <path
       style="fill:#901600;fill-opacity:1;stroke:#000000;stroke-width:0.334428;stroke-linecap:butt;stroke-linejoin:miter;stroke-dasharray:none;stroke-opacity:1"
       d="m 190.2789,251.74746 c -0.6907,0.43765 -1.41861,0.47251 -2.51104,0.74155 -1.68917,0.41601 -2.15109,0.48621 -2.4557,1.15397 -0.39761,0.8716 -0.67339,2.02853 -0.39434,2.7597 0.24323,0.6373 0.57171,1.00032 1.13033,1.00032 0.55861,0 1.52105,-0.59831 2.29556,-0.5699 0.8729,0.032 1.75492,-0.78433 2.44243,-1.11375 0.72518,-0.95553 0.53369,-1.34272 0.56897,-2.22661 -0.17779,-1.20584 -0.35776,-2.0101 -1.07621,-1.74528 z"
       id="path1369-7"
       sodipodi:nodetypes="csssssccc" />
    <ellipse
       style="fill:#000000;fill-opacity:1;stroke:#1e1a1a;stroke-width:0.0517223;stroke-linejoin:bevel;stroke-miterlimit:3.4"
       id="path2097-7"
       cx="175.12656"
       cy="239.29619"
       rx="3.7949307"
       ry="3.6641407" />
    <ellipse
       style="fill:#000000;fill-opacity:1;stroke:#1e1a1a;stroke-width:0.0517223;stroke-linejoin:bevel;stroke-miterlimit:3.4"
       id="path2097-3-5"
       cx="189.77667"
       cy="231.45692"
       rx="3.7949307"
       ry="3.6641407" />
    <path
       style="fill:#008000;stroke:#000000;stroke-width:0.347335;stroke-linecap:butt;stroke-linejoin:miter;stroke-dasharray:none;stroke-opacity:1"
       d="m 174.89358,217.1726 c -1.51833,-4.42839 -2.53514,-6.21121 -4.81389,-8.46018 -2.7044,-2.66908 -4.49026,-3.10494 -9.56332,-4.45122 0.77579,4.06492 2.31789,6.18798 4.78381,8.4207 1.74832,1.583 3.39362,2.77934 9.5934,4.4907 z"
       id="path8291-4"
       sodipodi:nodetypes="cscsc" />
    <path
       style="fill:#ce2910;fill-opacity:1;stroke:#000000;stroke-width:0.334428;stroke-linecap:butt;stroke-linejoin:miter;stroke-dasharray:none;stroke-opacity:1"
       d="m 154.1197,203.42912 -4.27272,32.75271 36.35948,-19.1508 z"
       id="path893" />
    <path
       style="fill:#f4f034;fill-opacity:1;stroke:#000000;stroke-width:0.167214;stroke-linecap:butt;stroke-linejoin:miter;stroke-dasharray:none;stroke-opacity:1"
       d="m 192.32284,215.91864 0.19883,6.36262 3.97664,-3.1813 z"
       id="path897" />
    <path
       style="fill:#34a1f4;fill-opacity:1;stroke:#000000;stroke-width:0.167214;stroke-linecap:butt;stroke-linejoin:miter;stroke-dasharray:none;stroke-opacity:1"
       d="m 199.54798,227.64994 7.35678,-0.19883 -3.57897,2.78365 z"
       id="path899" />
    <circle
       style="fill:#9c2d9a;stroke:#000000;stroke-width:0.167214;stroke-linejoin:bevel;stroke-miterlimit:3.4;stroke-dasharray:none;stroke-opacity:1"
       id="path953-1"
       cx="200.80696"
       cy="221.22115"
       r="2.6842332" />
    <path
       style="fill:none;stroke:#000000;stroke-width:0.147473px;stroke-linecap:butt;stroke-linejoin:miter;stroke-opacity:1"
       d="m 164.89456,262.70157 v 0"
       id="path11077"
       sodipodi:nodetypes="cc" />
    <path
       style="fill:#227cb3;fill-opacity:1;stroke:#000000;stroke-width:0.167214;stroke-linecap:butt;stroke-linejoin:miter;stroke-dasharray:none;stroke-opacity:1"
       d="m 199.17678,252.47087 3.8168,-2.1394 c 3.08045,-1.058 4.71746,2.97133 2.95201,4.61097 l -3.61033,2.7962 z"
       id="path13360"
       sodipodi:nodetypes="ccccc" />
    <path
       style="fill:none;stroke:#000000;stroke-width:0.334428;stroke-linecap:butt;stroke-linejoin:miter;stroke-dasharray:none;stroke-opacity:1"
       d="m 195.08447,248.91903 c -1.79081,2.89741 -1.58774,6.50066 2.45254,7.80653"
       id="path25115-0"
       sodipodi:nodetypes="cc" />
    <path
       style="fill:#227cb3;fill-opacity:1;stroke:#000000;stroke-width:0.167214;stroke-linecap:butt;stroke-linejoin:miter;stroke-dasharray:none;stroke-opacity:1"
       d="m 185.97856,255.64668 14.03364,2.57391 1.85245,-3.23302 -13.10024,-1.55017 z"
       id="path17014"
       sodipodi:nodetypes="ccccc" />
    <ellipse
       style="fill:#53b1eb;fill-opacity:1;stroke:#000000;stroke-width:0.167214;stroke-linejoin:bevel;stroke-miterlimit:3.4;stroke-dasharray:none;stroke-opacity:1"
       id="path11906"
       cx="200.61124"
       cy="255.21124"
       rx="2.8987567"
       ry="3.1434903" />
    <ellipse
       style="fill:#156da2;fill-opacity:1;stroke:#000000;stroke-width:0.167214;stroke-linejoin:bevel;stroke-miterlimit:3.4;stroke-dasharray:none;stroke-opacity:1"
       id="path11906-4"
       cx="200.58682"
       cy="255.41769"
       rx="1.4929014"
       ry="1.6526823" />
    <path
       style="fill:#f42500;fill-opacity:1;stroke:none;stroke-width:0.147473px;stroke-linecap:butt;stroke-linejoin:miter;stroke-opacity:1"
       d="m 154.26369,203.68537 7.22265,26.18508 -11.51998,6.18893 z"
       id="path24387"
       sodipodi:nodetypes="cccc" />
    <path
       style="fill:none;stroke:#000000;stroke-width:0.334428;stroke-linecap:butt;stroke-linejoin:miter;stroke-dasharray:none;stroke-opacity:1"
       d="m 178.6778,252.1802 c 3.40707,2.0311 4.13956,5.29746 1.53809,8.43221"
       id="path25115"
       sodipodi:nodetypes="cc" />
    <circle
       style="fill:#008000;stroke:#1e1a1a;stroke-width:0.334428;stroke-linejoin:bevel;stroke-miterlimit:3.4;stroke-dasharray:none"
       id="path577-22-9"
       cx="252.47873"
       cy="243.65627"
       r="27.841583"
       inkscape:export-filename="logo-china.png"
       inkscape:export-xdpi="126.31773"
       inkscape:export-ydpi="126.31773" />
    <path
       style="fill:#f43434;fill-opacity:1;stroke:#000000;stroke-width:0.167214;stroke-linecap:butt;stroke-linejoin:miter;stroke-dasharray:none;stroke-opacity:1"
       d="m 226.77299,263.63345 7.35678,-0.19884 -3.57897,2.78366 z"
       id="path899-5-2" />
    <circle
       style="fill:#53b1eb;fill-opacity:1;stroke:#000000;stroke-width:0.167214;stroke-linejoin:bevel;stroke-miterlimit:3.4;stroke-dasharray:none;stroke-opacity:1"
       id="path953-1-6-6"
       cx="228.03198"
       cy="255.08322"
       r="2.6842332" />
    <ellipse
       style="fill:#ffffff;stroke:#1e1a1a;stroke-width:0.334428;stroke-linejoin:bevel;stroke-miterlimit:3.4;stroke-dasharray:none"
       id="path789-49-9"
       cx="264.97925"
       cy="234.45264"
       rx="6.2997355"
       ry="7.0711317" />
    <ellipse
       style="fill:#ffffff;stroke:#1e1a1a;stroke-width:0.334428;stroke-linejoin:bevel;stroke-miterlimit:3.4;stroke-dasharray:none"
       id="path789-0-3-6"
       cx="249.4232"
       cy="235.86687"
       rx="6.2997355"
       ry="7.0711317" />
    <path
       style="fill:#901600;fill-opacity:1;stroke:#000000;stroke-width:0.334428;stroke-linecap:butt;stroke-linejoin:miter;stroke-dasharray:none;stroke-opacity:1"
       d="m 265.36875,251.40142 c -0.6907,0.43765 -1.41861,0.47251 -2.51104,0.74155 -1.68917,0.41601 -2.15109,0.48621 -2.4557,1.15397 -0.39761,0.8716 -0.67339,2.02853 -0.39434,2.7597 0.24323,0.6373 0.57171,1.00032 1.13033,1.00032 0.55861,0 1.52105,-0.59831 2.29556,-0.5699 0.8729,0.032 1.75492,-0.78433 2.44243,-1.11375 0.72518,-0.95553 0.53369,-1.34272 0.56897,-2.22661 -0.17779,-1.20584 -0.35776,-2.0101 -1.07621,-1.74528 z"
       id="path1369-7-4"
       sodipodi:nodetypes="csssssccc" />
    <ellipse
       style="fill:#000000;fill-opacity:1;stroke:#1e1a1a;stroke-width:0.0517223;stroke-linejoin:bevel;stroke-miterlimit:3.4"
       id="path2097-7-8"
       cx="250.21631"
       cy="238.9502"
       rx="3.7949307"
       ry="3.6641407" />
    <ellipse
       style="fill:#000000;fill-opacity:1;stroke:#1e1a1a;stroke-width:0.0517223;stroke-linejoin:bevel;stroke-miterlimit:3.4"
       id="path2097-3-5-7"
       cx="264.866"
       cy="231.11093"
       rx="3.7949307"
       ry="3.6641407" />
    <path
       style="fill:#008000;stroke:#000000;stroke-width:0.347335;stroke-linecap:butt;stroke-linejoin:miter;stroke-dasharray:none;stroke-opacity:1"
       d="m 249.98343,216.82656 c -1.51833,-4.42839 -2.53514,-6.21121 -4.81389,-8.46018 -2.7044,-2.66908 -4.49026,-3.10494 -9.56332,-4.45122 0.77579,4.06492 2.31789,6.18798 4.78381,8.4207 1.74832,1.583 3.39362,2.77934 9.5934,4.4907 z"
       id="path8291-4-3"
       sodipodi:nodetypes="cscsc" />
    <path
       style="fill:#ce2910;fill-opacity:1;stroke:#000000;stroke-width:0.334428;stroke-linecap:butt;stroke-linejoin:miter;stroke-dasharray:none;stroke-opacity:1"
       d="m 229.20955,203.08308 -4.27272,32.75271 36.35948,-19.1508 z"
       id="path893-4" />
    <path
       style="fill:#f4f034;fill-opacity:1;stroke:#000000;stroke-width:0.167214;stroke-linecap:butt;stroke-linejoin:miter;stroke-dasharray:none;stroke-opacity:1"
       d="m 267.41269,215.5726 0.19883,6.36262 3.97664,-3.1813 z"
       id="path897-7" />
    <path
       style="fill:#34a1f4;fill-opacity:1;stroke:#000000;stroke-width:0.167214;stroke-linecap:butt;stroke-linejoin:miter;stroke-dasharray:none;stroke-opacity:1"
       d="m 274.63783,227.3039 7.35678,-0.19883 -3.57897,2.78365 z"
       id="path899-9" />
    <circle
       style="fill:#9c2d9a;stroke:#000000;stroke-width:0.167214;stroke-linejoin:bevel;stroke-miterlimit:3.4;stroke-dasharray:none;stroke-opacity:1"
       id="path953-1-0"
       cx="275.89594"
       cy="220.87515"
       r="2.6842332" />
    <path
       style="fill:none;stroke:#000000;stroke-width:0.147473px;stroke-linecap:butt;stroke-linejoin:miter;stroke-opacity:1"
       d="m 239.98441,262.35553 v 0"
       id="path11077-6"
       sodipodi:nodetypes="cc" />
    <path
       style="fill:#227cb3;fill-opacity:1;stroke:#000000;stroke-width:0.167214;stroke-linecap:butt;stroke-linejoin:miter;stroke-dasharray:none;stroke-opacity:1"
       d="m 274.26663,252.12483 3.8168,-2.1394 c 3.08045,-1.058 4.71746,2.97133 2.95201,4.61097 l -3.61033,2.7962 z"
       id="path13360-0"
       sodipodi:nodetypes="ccccc" />
    <path
       style="fill:none;stroke:#000000;stroke-width:0.334428;stroke-linecap:butt;stroke-linejoin:miter;stroke-dasharray:none;stroke-opacity:1"
       d="m 270.17432,248.57299 c -1.79081,2.89741 -1.58774,6.50066 2.45254,7.80653"
       id="path25115-0-6"
       sodipodi:nodetypes="cc" />
    <path
       style="fill:#227cb3;fill-opacity:1;stroke:#000000;stroke-width:0.167214;stroke-linecap:butt;stroke-linejoin:miter;stroke-dasharray:none;stroke-opacity:1"
       d="m 261.06841,255.30064 14.03364,2.57391 1.85245,-3.23302 -13.10024,-1.55017 z"
       id="path17014-0"
       sodipodi:nodetypes="ccccc" />
    <ellipse
       style="fill:#53b1eb;fill-opacity:1;stroke:#000000;stroke-width:0.167214;stroke-linejoin:bevel;stroke-miterlimit:3.4;stroke-dasharray:none;stroke-opacity:1"
       id="path11906-2"
       cx="275.70026"
       cy="254.86517"
       rx="2.8987567"
       ry="3.1434903" />
    <ellipse
       style="fill:#156da2;fill-opacity:1;stroke:#000000;stroke-width:0.167214;stroke-linejoin:bevel;stroke-miterlimit:3.4;stroke-dasharray:none;stroke-opacity:1"
       id="path11906-4-5"
       cx="275.67584"
       cy="255.07162"
       rx="1.4929014"
       ry="1.6526823" />
    <path
       style="fill:#f42500;fill-opacity:1;stroke:none;stroke-width:0.147473px;stroke-linecap:butt;stroke-linejoin:miter;stroke-opacity:1"
       d="m 229.35354,203.33933 7.22265,26.18508 -11.51998,6.18893 z"
       id="path24387-2"
       sodipodi:nodetypes="cccc" />
    <path
       style="fill:none;stroke:#000000;stroke-width:0.334428;stroke-linecap:butt;stroke-linejoin:miter;stroke-dasharray:none;stroke-opacity:1"
       d="m 253.76765,251.83416 c 3.40707,2.0311 4.13956,5.29746 1.53809,8.43221"
       id="path25115-6"
       sodipodi:nodetypes="cc" />
    <circle
       style="fill:#008000;stroke:#1e1a1a;stroke-width:0.334428;stroke-linejoin:bevel;stroke-miterlimit:3.4;stroke-dasharray:none"
       id="path577-22-4"
       cx="327.0502"
       cy="244.20317"
       r="27.841583"
       inkscape:export-filename="logo-china.png"
       inkscape:export-xdpi="126.31773"
       inkscape:export-ydpi="126.31773" />
    <path
       style="fill:#f43434;fill-opacity:1;stroke:#000000;stroke-width:0.167214;stroke-linecap:butt;stroke-linejoin:miter;stroke-dasharray:none;stroke-opacity:1"
       d="m 301.34542,264.18047 7.35678,-0.19884 -3.57897,2.78366 z"
       id="path899-5-6" />
    <circle
       style="fill:#53b1eb;fill-opacity:1;stroke:#000000;stroke-width:0.167214;stroke-linejoin:bevel;stroke-miterlimit:3.4;stroke-dasharray:none;stroke-opacity:1"
       id="path953-1-6-9"
       cx="302.6033"
       cy="255.63031"
       r="2.6842332" />
    <ellipse
       style="fill:#ffffff;stroke:#1e1a1a;stroke-width:0.334428;stroke-linejoin:bevel;stroke-miterlimit:3.4;stroke-dasharray:none"
       id="path789-49-3"
       cx="339.55109"
       cy="234.99954"
       rx="6.2997355"
       ry="7.0711317" />
    <ellipse
       style="fill:#ffffff;stroke:#1e1a1a;stroke-width:0.334428;stroke-linejoin:bevel;stroke-miterlimit:3.4;stroke-dasharray:none"
       id="path789-0-3-7"
       cx="323.99463"
       cy="236.41377"
       rx="6.2997355"
       ry="7.0711317" />
    <path
       style="fill:#901600;fill-opacity:1;stroke:#000000;stroke-width:0.334428;stroke-linecap:butt;stroke-linejoin:miter;stroke-dasharray:none;stroke-opacity:1"
       d="m 339.94118,251.94844 c -0.6907,0.43765 -1.41861,0.47251 -2.51104,0.74155 -1.68917,0.41601 -2.15109,0.48621 -2.4557,1.15397 -0.39761,0.8716 -0.67339,2.02853 -0.39434,2.7597 0.24323,0.6373 0.57171,1.00032 1.13033,1.00032 0.55861,0 1.52105,-0.59831 2.29556,-0.5699 0.8729,0.032 1.75492,-0.78433 2.44243,-1.11375 0.72518,-0.95553 0.53369,-1.34272 0.56897,-2.22661 -0.17779,-1.20584 -0.35776,-2.0101 -1.07621,-1.74528 z"
       id="path1369-7-7"
       sodipodi:nodetypes="csssssccc" />
    <ellipse
       style="fill:#000000;fill-opacity:1;stroke:#1e1a1a;stroke-width:0.0517223;stroke-linejoin:bevel;stroke-miterlimit:3.4"
       id="path2097-7-1"
       cx="324.78772"
       cy="239.4971"
       rx="3.7949307"
       ry="3.6641407" />
    <ellipse
       style="fill:#000000;fill-opacity:1;stroke:#1e1a1a;stroke-width:0.0517223;stroke-linejoin:bevel;stroke-miterlimit:3.4"
       id="path2097-3-5-9"
       cx="339.43784"
       cy="231.65784"
       rx="3.7949307"
       ry="3.6641407" />
    <path
       style="fill:#008000;stroke:#000000;stroke-width:0.347335;stroke-linecap:butt;stroke-linejoin:miter;stroke-dasharray:none;stroke-opacity:1"
       d="m 324.55586,217.37358 c -1.51833,-4.42839 -2.53514,-6.21121 -4.81389,-8.46018 -2.7044,-2.66908 -4.49026,-3.10494 -9.56332,-4.45122 0.77579,4.06492 2.31789,6.18798 4.78381,8.4207 1.74832,1.583 3.39362,2.77934 9.5934,4.4907 z"
       id="path8291-4-5"
       sodipodi:nodetypes="cscsc" />
    <path
       style="fill:#ce2910;fill-opacity:1;stroke:#000000;stroke-width:0.334428;stroke-linecap:butt;stroke-linejoin:miter;stroke-dasharray:none;stroke-opacity:1"
       d="m 303.78198,203.6301 -4.27272,32.75271 36.35948,-19.1508 z"
       id="path893-9" />
    <path
       style="fill:#f4f034;fill-opacity:1;stroke:#000000;stroke-width:0.167214;stroke-linecap:butt;stroke-linejoin:miter;stroke-dasharray:none;stroke-opacity:1"
       d="m 341.98512,216.11962 0.19883,6.36262 3.97664,-3.1813 z"
       id="path897-9" />
    <path
       style="fill:#34a1f4;fill-opacity:1;stroke:#000000;stroke-width:0.167214;stroke-linecap:butt;stroke-linejoin:miter;stroke-dasharray:none;stroke-opacity:1"
       d="m 349.21026,227.85092 7.35678,-0.19883 -3.57897,2.78365 z"
       id="path899-1" />
    <circle
       style="fill:#9c2d9a;stroke:#000000;stroke-width:0.167214;stroke-linejoin:bevel;stroke-miterlimit:3.4;stroke-dasharray:none;stroke-opacity:1"
       id="path953-1-9"
       cx="350.46814"
       cy="221.42206"
       r="2.6842332" />
    <path
       style="fill:none;stroke:#000000;stroke-width:0.147473px;stroke-linecap:butt;stroke-linejoin:miter;stroke-opacity:1"
       d="m 314.55684,262.90255 v 0"
       id="path11077-3"
       sodipodi:nodetypes="cc" />
    <path
       style="fill:#227cb3;fill-opacity:1;stroke:#000000;stroke-width:0.167214;stroke-linecap:butt;stroke-linejoin:miter;stroke-dasharray:none;stroke-opacity:1"
       d="m 348.83906,252.67185 3.8168,-2.1394 c 3.08045,-1.058 4.71746,2.97133 2.95201,4.61097 l -3.61033,2.7962 z"
       id="path13360-3"
       sodipodi:nodetypes="ccccc" />
    <path
       style="fill:none;stroke:#000000;stroke-width:0.334428;stroke-linecap:butt;stroke-linejoin:miter;stroke-dasharray:none;stroke-opacity:1"
       d="m 344.74675,249.12001 c -1.79081,2.89741 -1.58774,6.50066 2.45254,7.80653"
       id="path25115-0-61"
       sodipodi:nodetypes="cc" />
    <path
       style="fill:#227cb3;fill-opacity:1;stroke:#000000;stroke-width:0.167214;stroke-linecap:butt;stroke-linejoin:miter;stroke-dasharray:none;stroke-opacity:1"
       d="m 335.64084,255.84766 14.03364,2.57391 1.85245,-3.23302 -13.10024,-1.55017 z"
       id="path17014-8"
       sodipodi:nodetypes="ccccc" />
    <ellipse
       style="fill:#53b1eb;fill-opacity:1;stroke:#000000;stroke-width:0.167214;stroke-linejoin:bevel;stroke-miterlimit:3.4;stroke-dasharray:none;stroke-opacity:1"
       id="path11906-8"
       cx="350.2724"
       cy="255.41226"
       rx="2.8987567"
       ry="3.1434903" />
    <ellipse
       style="fill:#156da2;fill-opacity:1;stroke:#000000;stroke-width:0.167214;stroke-linejoin:bevel;stroke-miterlimit:3.4;stroke-dasharray:none;stroke-opacity:1"
       id="path11906-4-7"
       cx="350.24799"
       cy="255.61871"
       rx="1.4929014"
       ry="1.6526823" />
    <path
       style="fill:#f42500;fill-opacity:1;stroke:none;stroke-width:0.147473px;stroke-linecap:butt;stroke-linejoin:miter;stroke-opacity:1"
       d="m 303.92597,203.88635 7.22265,26.18508 -11.51998,6.18893 z"
       id="path24387-6"
       sodipodi:nodetypes="cccc" />
    <path
       style="fill:none;stroke:#000000;stroke-width:0.334428;stroke-linecap:butt;stroke-linejoin:miter;stroke-dasharray:none;stroke-opacity:1"
       d="m 328.34008,252.38118 c 3.40707,2.0311 4.13956,5.29746 1.53809,8.43221"
       id="path25115-1"
       sodipodi:nodetypes="cc"
       inkscape:export-filename="../../../../../Downloads/logo-tub.png"
       inkscape:export-xdpi="141.05087"
       inkscape:export-ydpi="141.05087" />
  </g>
</svg>
