<?xml version="1.0" encoding="UTF-8" standalone="no"?>
<!-- Created with Inkscape (http://www.inkscape.org/) -->

<svg
   width="210mm"
   height="297mm"
   viewBox="0 0 210 297"
   version="1.1"
   id="svg5"
   inkscape:version="1.2.2 (b0a84865, 2022-12-01)"
   sodipodi:docname="logo-king-pocket.svg"
   xmlns:inkscape="http://www.inkscape.org/namespaces/inkscape"
   xmlns:sodipodi="http://sodipodi.sourceforge.net/DTD/sodipodi-0.dtd"
   xmlns="http://www.w3.org/2000/svg"
   xmlns:svg="http://www.w3.org/2000/svg">
  <sodipodi:namedview
     id="namedview7"
     pagecolor="#ffffff"
     bordercolor="#999999"
     borderopacity="1"
     inkscape:showpageshadow="0"
     inkscape:pageopacity="0"
     inkscape:pagecheckerboard="0"
     inkscape:deskcolor="#d1d1d1"
     inkscape:document-units="mm"
     showgrid="false"
     inkscape:zoom="0.41892983"
     inkscape:cx="192.15628"
     inkscape:cy="366.40981"
     inkscape:window-width="1440"
     inkscape:window-height="847"
     inkscape:window-x="38"
     inkscape:window-y="264"
     inkscape:window-maximized="0"
     inkscape:current-layer="layer1">
    <inkscape:grid
       type="xygrid"
       id="grid2999" />
  </sodipodi:namedview>
  <defs
     id="defs2">
    <linearGradient
       id="linearGradient13268"
       inkscape:swatch="solid">
      <stop
         style="stop-color:#eaeaea;stop-opacity:1;"
         offset="0"
         id="stop13266" />
    </linearGradient>
  </defs>
  <g
     inkscape:label="Layer 1"
     inkscape:groupmode="layer"
     id="layer1">
    <path
       id="path577"
       style="fill:#008000;stroke:#1e1a1a;stroke-width:0.6;stroke-linejoin:bevel;stroke-miterlimit:3.4;stroke-dasharray:none"
       d="M 104.78068 51.497115 A 49.950783 49.950783 0 0 0 54.829728 101.44807 A 49.950783 49.950783 0 0 0 63.257121 129.18488 C 90.440975 132.35891 118.82497 132.6951 145.91564 129.77089 A 49.950783 49.950783 0 0 0 154.73112 101.44807 A 49.950783 49.950783 0 0 0 104.78068 51.497115 z " />
    <ellipse
       style="fill:#ffffff;stroke:#1e1a1a;stroke-width:0.6;stroke-linejoin:bevel;stroke-miterlimit:3.4;stroke-dasharray:none"
       id="path789"
       cx="130.25667"
       cy="84.021378"
       rx="11.302401"
       ry="12.686368" />
    <ellipse
       style="fill:#ffffff;stroke:#1e1a1a;stroke-width:0.6;stroke-linejoin:bevel;stroke-miterlimit:3.4;stroke-dasharray:none"
       id="path789-0"
       cx="102.34669"
       cy="86.558655"
       rx="11.302401"
       ry="12.686368" />
    <path
       style="fill:#901600;fill-opacity:1;stroke:#000000;stroke-width:0.6;stroke-linecap:butt;stroke-linejoin:miter;stroke-dasharray:none;stroke-opacity:1"
       d="m 135.22583,109.49358 c -4.41659,1.4602 -9.07107,1.57648 -16.05635,2.47412 -10.80109,1.38798 -13.75474,1.62222 -15.70254,3.85011 -2.5424,2.90799 -4.305828,6.768 -2.52151,9.20747 1.55524,2.12628 3.65572,3.33748 7.22763,3.33748 3.57191,0 9.72606,-1.99618 14.67851,-1.90143 5.58164,0.10679 11.22154,-2.61686 15.61774,-3.71591 4.63695,-3.18801 3.41254,-4.47987 3.63809,-7.42886 -1.13681,-4.02316 -2.2876,-6.70648 -6.88157,-5.82298 z"
       id="path1369"
       sodipodi:nodetypes="csssssccc" />
    <ellipse
       style="fill:#000000;fill-opacity:1;stroke:#1e1a1a;stroke-width:0.0927953;stroke-linejoin:bevel;stroke-miterlimit:3.4"
       id="path2097"
       cx="106.76534"
       cy="88.096153"
       rx="6.8085122"
       ry="6.5738606" />
    <ellipse
       style="fill:#000000;fill-opacity:1;stroke:#1e1a1a;stroke-width:0.0927953;stroke-linejoin:bevel;stroke-miterlimit:3.4"
       id="path2097-3"
       cx="134.38065"
       cy="86.680336"
       rx="6.8085122"
       ry="6.5738606" />
    <path
       style="fill:#008000;stroke:#000000;stroke-width:0.623157;stroke-linecap:butt;stroke-linejoin:miter;stroke-dasharray:none;stroke-opacity:1"
       d="M 100.30464,53.312801 C 97.580587,45.367803 95.756328,42.169236 91.668003,38.134329 86.816012,33.345728 83.611993,32.56373 74.510378,30.148377 c 1.391845,7.292892 4.158537,11.10189 8.582666,15.107639 3.136677,2.840053 6.088521,4.986431 17.211596,8.056785 z"
       id="path8291"
       sodipodi:nodetypes="cscsc" />
    <path
       style="fill:none;stroke:#000000;stroke-width:1;stroke-linecap:butt;stroke-linejoin:miter;stroke-dasharray:none;stroke-opacity:1"
       d="m 36.17762,124.94663 c 44.840422,8.68589 95.74073,9.39048 139.99979,0 2.14599,26.84424 0.83287,92.31066 -2.60244,105 -10.45368,14.20795 -45.55465,23.66243 -68.23195,30 -23.624684,-5.97822 -56.218079,-11.43639 -67.9184,-29.88916 -2.687678,-13.90536 -3.438998,-77.60544 -1.247,-105.11084 z"
       id="path1405-9"
       sodipodi:nodetypes="cccccc" />
    <path
       style="fill:none;stroke:#000000;stroke-width:1;stroke-linecap:butt;stroke-linejoin:miter;stroke-dasharray:none;stroke-opacity:1"
       d="m 34.319763,153.42943 c 49.331634,11.54191 97.854497,11.04329 142.138837,-0.12765"
       id="path1458"
       sodipodi:nodetypes="cc" />
    <path
       style="fill:none;stroke:#000000;stroke-width:1;stroke-linecap:butt;stroke-linejoin:miter;stroke-dasharray:4, 4;stroke-dashoffset:0;stroke-opacity:1"
       d="m 38.736861,130.09714 c -2.794982,65.55009 0.554601,64.92616 1.035825,96.89514 5.767878,11.68298 24.229526,20.56833 65.577164,28.99201 26.08299,-6.50227 56.55582,-15.65497 65.44462,-27.95519 3.24987,-27.53486 5.09104,-66.27505 2.09261,-99.87847"
       id="path5233"
       sodipodi:nodetypes="ccccc" />
    <path
       style="fill:#fff80e;fill-opacity:1;stroke:#000000;stroke-width:0.264583px;stroke-linecap:butt;stroke-linejoin:miter;stroke-opacity:1"
       d="m 63.57975,71.105818 -2.728176,-35.146164 10.829967,9.925875 8.500715,-10.814065 10.042946,9.628121 9.58293,-11.391137 9.630658,9.641489 9.66569,-11.021475 8.58851,9.745193 9.00335,-11.348497 2.9833,33.17067 z"
       id="path2486"
       sodipodi:nodetypes="cccccccccccc" />
    <ellipse
       style="fill:#ff0a00;fill-opacity:1;stroke:none;stroke-width:0.41451;stroke-linejoin:bevel;stroke-miterlimit:3.4"
       id="path2540"
       cx="77.116508"
       cy="61.897781"
       rx="1.581391"
       ry="4.7441726"
       transform="rotate(-3.639922)" />
    <ellipse
       style="fill:#ff0a00;fill-opacity:1;stroke:none;stroke-width:0.41451;stroke-linejoin:bevel;stroke-miterlimit:3.4"
       id="path2540-5"
       cx="96.74572"
       cy="61.356174"
       rx="1.581391"
       ry="4.7441726"
       transform="rotate(-3.639922)" />
    <ellipse
       style="fill:#ff0a00;fill-opacity:1;stroke:none;stroke-width:0.41451;stroke-linejoin:bevel;stroke-miterlimit:3.4"
       id="path2540-4"
       cx="116.80829"
       cy="60.209438"
       rx="1.581391"
       ry="4.7441726"
       transform="rotate(-3.639922)" />
  </g>
</svg>
