<?xml version="1.0" encoding="UTF-8" standalone="no"?>
<!-- Created with Inkscape (http://www.inkscape.org/) -->

<svg
   width="386.33234mm"
   height="161.21608mm"
   viewBox="0 0 386.33234 161.21608"
   version="1.1"
   id="svg5"
   inkscape:version="1.2.2 (b0a84865, 2022-12-01)"
   sodipodi:docname="logo-triple-party-sticker-path.svg"
   xmlns:inkscape="http://www.inkscape.org/namespaces/inkscape"
   xmlns:sodipodi="http://sodipodi.sourceforge.net/DTD/sodipodi-0.dtd"
   xmlns="http://www.w3.org/2000/svg"
   xmlns:svg="http://www.w3.org/2000/svg">
  <sodipodi:namedview
     id="namedview7"
     pagecolor="#ffffff"
     bordercolor="#999999"
     borderopacity="1"
     inkscape:showpageshadow="0"
     inkscape:pageopacity="0"
     inkscape:pagecheckerboard="0"
     inkscape:deskcolor="#d1d1d1"
     inkscape:document-units="mm"
     showgrid="false"
     inkscape:zoom="0.44470169"
     inkscape:cx="827.52103"
     inkscape:cy="12.367841"
     inkscape:window-width="1440"
     inkscape:window-height="847"
     inkscape:window-x="0"
     inkscape:window-y="25"
     inkscape:window-maximized="0"
     inkscape:current-layer="text257" />
  <defs
     id="defs2">
    <linearGradient
       id="linearGradient13268"
       inkscape:swatch="solid">
      <stop
         style="stop-color:#eaeaea;stop-opacity:1;"
         offset="0"
         id="stop13266" />
    </linearGradient>
  </defs>
  <g
     inkscape:label="Layer 1"
     inkscape:groupmode="layer"
     id="layer1"
     transform="translate(29.512799,-167.38674)">
    <circle
       style="fill:#008000;stroke:#1e1a1a;stroke-width:0.6;stroke-linejoin:bevel;stroke-miterlimit:3.4;stroke-dasharray:none"
       id="path577"
       cx="20.737984"
       cy="239.11496"
       r="49.950783"
       inkscape:export-filename="../../../../../Downloads/logo-tub.png"
       inkscape:export-xdpi="119.05297"
       inkscape:export-ydpi="119.05297" />
    <ellipse
       style="fill:#ffffff;stroke:#1e1a1a;stroke-width:0.575864;stroke-linejoin:bevel;stroke-miterlimit:3.4;stroke-dasharray:none"
       id="path789"
       cx="46.214207"
       cy="222.71286"
       rx="11.314468"
       ry="11.673779" />
    <ellipse
       style="fill:#ffffff;stroke:#1e1a1a;stroke-width:0.6;stroke-linejoin:bevel;stroke-miterlimit:3.4;stroke-dasharray:none"
       id="path789-0"
       cx="18.304195"
       cy="224.22548"
       rx="11.302401"
       ry="12.686368" />
    <path
       style="fill:#901600;fill-opacity:1;stroke:#000000;stroke-width:0.6;stroke-linecap:butt;stroke-linejoin:miter;stroke-dasharray:none;stroke-opacity:1"
       d="m 51.183342,247.16016 c -4.04259,-0.4098 -7.94607,-0.79346 -14.93435,0.0805 -6.91149,0.86438 -14.87674,4.01582 -16.824541,6.24371 -2.542402,2.90799 -2.215182,7.54231 -1.205181,9.51719 1.199511,2.34543 2.937382,4.55097 6.313882,5.71622 4.63928,1.60105 9.12692,2.22963 14.07937,2.32438 5.58164,0.10679 9.61823,-2.73329 14.37022,-6.14497 4.63695,-3.18801 4.85662,-8.96508 5.08217,-11.91407 -1.13681,-4.02316 -4.0828,-5.36008 -6.88157,-5.82298 z"
       id="path1369"
       sodipodi:nodetypes="csssssccc" />
    <path
       style="fill:#ffffff;fill-opacity:1;stroke:#000000;stroke-width:0.6;stroke-linecap:butt;stroke-linejoin:miter;stroke-dasharray:none;stroke-opacity:1"
       d="m 47.636592,211.12603 c 0,0 28.47864,2.83529 28.96047,13.32803 0.48184,10.49275 -29.81847,9.89036 -29.81847,9.89036"
       id="path397-3"
       sodipodi:nodetypes="csc" />
    <path
       style="fill:#ffffff;fill-opacity:1;stroke:#000000;stroke-width:0.625274;stroke-linecap:butt;stroke-linejoin:miter;stroke-dasharray:none;stroke-opacity:1"
       d="m 19.798241,211.65733 c 0,0 28.939391,2.75791 29.398521,14.15613 0.45913,11.39822 -30.216082,11.0659 -30.216082,11.0659"
       id="path397"
       sodipodi:nodetypes="csc" />
    <ellipse
       style="fill:#000000;fill-opacity:1;stroke:#1e1a1a;stroke-width:0.0588889;stroke-linejoin:bevel;stroke-miterlimit:3.4"
       id="path2097"
       cx="45.564518"
       cy="225.84407"
       rx="3.404506"
       ry="5.294591" />
    <ellipse
       style="fill:#000000;fill-opacity:1;stroke:#1e1a1a;stroke-width:0.0560965;stroke-linejoin:bevel;stroke-miterlimit:3.4"
       id="path2097-8"
       cx="72.95018"
       cy="224.52878"
       rx="3.3469965"
       ry="4.886941" />
    <path
       style="fill:#008000;stroke:#000000;stroke-width:0.623157;stroke-linecap:butt;stroke-linejoin:miter;stroke-dasharray:none;stroke-opacity:1"
       d="m 16.262149,190.97939 c -2.724051,-7.945 -4.548311,-11.14356 -8.6366366,-15.17847 -4.851991,-4.7886 -8.05600916,-5.5706 -17.1576187,-7.98595 1.3918441,7.29289 4.1585346,11.10189 8.58266087,15.10764 3.13667583,2.84005 6.08851983,4.98643 17.21159443,8.05678 z"
       id="path8291"
       sodipodi:nodetypes="cscsc" />
    <g
       aria-label="Moblin Triple Party"
       transform="translate(-62.555316,127.0725)"
       id="text257"
       style="font-size:28.2222px;line-height:1.25;font-family:'Lao MN';-inkscape-font-specification:'Lao MN, Normal';white-space:pre;inline-size:568.576;display:inline;stroke-width:0.264583">
      <path
         d="m 60.145023,167.46173 h 4.320155 l 9.777192,19.27016 h 0.208428 l 9.587712,-19.27016 h 4.244362 v 25.12511 H 84.03851 v -20.59653 h -0.132636 l -10.307738,20.59653 h -0.87161 l -10.421425,-20.426 H 62.02088 v 20.426 h -1.875857 z"
         style="font-size:38.8056px"
         id="path423" />
      <path
         d="m 104.04765,193.00369 q -2.23587,0 -4.11173,-0.77687 -1.875857,-0.77687 -3.240116,-2.10323 -1.364259,-1.34531 -2.141129,-3.12643 -0.757922,-1.80006 -0.757922,-3.84645 0,-2.14113 0.757922,-4.01699 0.77687,-1.8948 2.141129,-3.29696 1.364259,-1.40215 3.240116,-2.19797 1.87586,-0.81476 4.11173,-0.81476 2.21692,0 4.07383,0.73897 1.87585,0.73897 3.24011,2.02744 1.36426,1.28847 2.12218,3.03169 0.77687,1.72427 0.77687,3.71381 0,2.19798 -0.77687,4.14963 -0.75792,1.9327 -2.12218,3.3917 -1.36426,1.44005 -3.24011,2.29271 -1.85691,0.83371 -4.07383,0.83371 z m 0.73897,-1.4211 q 1.13688,0 2.08428,-0.58739 0.94741,-0.58739 1.62954,-1.57269 0.68213,-1.00424 1.06109,-2.31166 0.37896,-1.30741 0.37896,-2.76641 0,-2.10324 -0.36001,-3.9412 -0.36002,-1.83796 -1.17478,-3.20222 -0.81477,-1.36426 -2.12218,-2.14113 -1.30742,-0.79581 -3.18328,-0.79581 -0.96635,0 -1.87585,0.56844 -0.90951,0.54949 -1.610587,1.51584 -0.68213,0.96635 -1.098987,2.27377 -0.416857,1.28846 -0.416857,2.74746 0,2.12219 0.435805,3.97909 0.454753,1.85691 1.307416,3.24012 0.87161,1.38321 2.10323,2.19797 1.25057,0.79582 2.84221,0.79582 z"
         style="font-size:38.8056px"
         id="path425" />
      <path
         d="m 119.73663,164.3732 2.72852,-1.08004 h 1.13688 v 13.54785 q 0.4737,-0.81476 1.23162,-1.55374 0.77687,-0.73897 1.66743,-1.26952 0.90951,-0.54949 1.87586,-0.87161 0.9853,-0.32211 1.87586,-0.32211 1.68637,0 3.10747,0.68212 1.42111,0.68213 2.4443,1.85691 1.0232,1.17478 1.59164,2.74747 0.58739,1.55374 0.58739,3.33486 0,2.4064 -0.85266,4.50963 -0.83372,2.10323 -2.31167,3.67592 -1.459,1.55374 -3.42959,2.46325 -1.9706,0.9095 -4.20647,0.9095 -2.16008,0 -4.07383,-0.56844 -1.8948,-0.56844 -3.37275,-1.72427 z m 3.8654,25.04931 q 0.36001,0.34107 0.77687,0.70108 0.43581,0.36001 0.96635,0.66318 0.53055,0.28422 1.17478,0.4737 0.66318,0.17054 1.47795,0.17054 1.34531,0 2.4443,-0.64424 1.09898,-0.66318 1.87585,-1.81901 0.79582,-1.17478 1.21268,-2.76641 0.4358,-1.61059 0.4358,-3.50539 0,-1.44005 -0.45475,-2.69063 -0.43581,-1.26951 -1.21268,-2.19797 -0.75792,-0.9474 -1.80006,-1.47795 -1.02319,-0.54949 -2.19797,-0.54949 -0.66319,0 -1.36426,0.18948 -0.68213,0.18948 -1.30742,0.5116 -0.62528,0.32212 -1.15583,0.75792 -0.53054,0.41686 -0.87161,0.90951 z"
         style="font-size:38.8056px"
         id="path427" />
      <path
         d="m 147.34393,192.58684 h -3.8654 v -28.1947 l 2.74746,-1.09898 h 1.11794 z"
         style="font-size:38.8056px"
         id="path429" />
      <path
         d="m 154.44945,173.92301 2.70957,-1.09898 h 1.11794 v 19.76281 h -3.82751 z m -0.30317,-8.16661 q 0,-0.45475 0.17053,-0.85266 0.17054,-0.39791 0.47371,-0.70108 0.30316,-0.30316 0.70107,-0.4737 0.39791,-0.17053 0.85267,-0.17053 0.45475,0 0.85266,0.17053 0.39791,0.17054 0.70108,0.4737 0.30316,0.30317 0.4737,0.70108 0.17053,0.39791 0.17053,0.85266 0,0.45476 -0.17053,0.85267 -0.17054,0.39791 -0.4737,0.70107 -0.30317,0.30317 -0.70108,0.4737 -0.39791,0.17054 -0.85266,0.17054 -0.45476,0 -0.85267,-0.17054 -0.39791,-0.17053 -0.70107,-0.4737 -0.30317,-0.30316 -0.47371,-0.70107 -0.17053,-0.39791 -0.17053,-0.85267 z"
         style="font-size:38.8056px"
         id="path431" />
      <path
         d="m 168.12994,172.82403 h 1.09898 v 3.92224 q 1.76217,-1.9706 3.65698,-2.93695 1.8948,-0.98529 3.84645,-0.98529 1.02319,0 1.8948,0.45475 0.89056,0.45475 1.55374,1.25057 0.66319,0.79582 1.04215,1.87586 0.37896,1.06109 0.37896,2.27376 v 13.90787 h -3.84646 v -13.24469 q 0,-0.96635 -0.22737,-1.68637 -0.22738,-0.73898 -0.64424,-1.23163 -0.41685,-0.49265 -0.98529,-0.73897 -0.5495,-0.26527 -1.23163,-0.26527 -0.60634,0 -1.28846,0.20843 -0.68213,0.20842 -1.40216,0.58739 -0.70108,0.36001 -1.40216,0.87161 -0.70107,0.51159 -1.34531,1.13688 v 14.36262 h -3.8654 v -18.68278 z"
         style="font-size:38.8056px"
         id="path433" />
      <path
         d="m 214.49581,167.46173 v 1.62953 h -9.09507 v 23.49558 h -4.22541 v -23.49558 h -9.09506 v -1.62953 z"
         style="font-size:38.8056px"
         id="path435" />
      <path
         d="m 219.15703,172.82403 h 0.58739 l 0.5116,3.96014 q 0.45475,-0.87161 1.13688,-1.59164 0.68213,-0.72002 1.4969,-1.25057 0.83371,-0.53055 1.74322,-0.81477 0.92845,-0.30316 1.87585,-0.30316 0.85267,0 1.66743,0.22737 0.83372,0.22738 1.55374,0.72003 l -1.21267,3.24011 q -0.37896,-0.41685 -0.79582,-0.66318 -0.41686,-0.26527 -0.85266,-0.39791 -0.43581,-0.15158 -0.89056,-0.18948 -0.45475,-0.0379 -0.90951,-0.0379 -0.72002,0 -1.4211,0.20842 -0.68213,0.20843 -1.30742,0.62529 -0.62528,0.39791 -1.15583,1.04214 -0.53054,0.62529 -0.92845,1.47795 v 13.50996 h -3.84646 v -18.70172 z"
         style="font-size:38.8056px"
         id="path437" />
      <path
         d="m 233.48175,173.92301 2.70957,-1.09898 h 1.11793 v 19.76281 h -3.8275 z m -0.30317,-8.16661 q 0,-0.45475 0.17053,-0.85266 0.17053,-0.39791 0.4737,-0.70108 0.30317,-0.30316 0.70108,-0.4737 0.39791,-0.17053 0.85266,-0.17053 0.45475,0 0.85266,0.17053 0.39791,0.17054 0.70108,0.4737 0.30317,0.30317 0.4737,0.70108 0.17053,0.39791 0.17053,0.85266 0,0.45476 -0.17053,0.85267 -0.17053,0.39791 -0.4737,0.70107 -0.30317,0.30317 -0.70108,0.4737 -0.39791,0.17054 -0.85266,0.17054 -0.45475,0 -0.85266,-0.17054 -0.39791,-0.17053 -0.70108,-0.4737 -0.30317,-0.30316 -0.4737,-0.70107 -0.17053,-0.39791 -0.17053,-0.85267 z"
         style="font-size:38.8056px"
         id="path439" />
      <path
         d="m 247.16223,172.82403 h 1.09899 v 4.35805 q 0.58739,-0.73898 1.28847,-1.51585 0.72002,-0.77687 1.57268,-1.40215 0.87161,-0.64424 1.91376,-1.04215 1.04214,-0.3979 2.27376,-0.3979 1.72427,0 3.12643,0.72002 1.40215,0.72003 2.38745,1.95165 1.00425,1.23162 1.53479,2.89905 0.5495,1.64848 0.5495,3.52434 0,2.4064 -0.66318,4.45279 -0.66319,2.02744 -1.89481,3.50539 -1.23162,1.47794 -2.99379,2.31166 -1.76217,0.81476 -3.94119,0.81476 -0.79582,0 -1.4969,-0.0947 -0.68213,-0.0758 -1.30741,-0.24632 -0.60634,-0.17053 -1.19373,-0.43581 -0.56844,-0.26527 -1.15583,-0.64423 v 9.17086 h -3.8654 v -26.84939 z m 1.09899,14.53315 q 0,0.87161 0.37896,1.64848 0.37896,0.75792 1.06109,1.34531 0.68213,0.56844 1.62953,0.9095 0.9474,0.32212 2.08429,0.32212 1.08004,0 2.02744,-0.54949 0.96635,-0.5495 1.66743,-1.55374 0.72002,-1.0232 1.11793,-2.42535 0.41686,-1.40216 0.41686,-3.10748 0,-2.14113 -0.37896,-3.73277 -0.37896,-1.61058 -1.06109,-2.67167 -0.66319,-1.06109 -1.59164,-1.59164 -0.90951,-0.53054 -2.00849,-0.53054 -0.83372,0 -1.61059,0.26527 -0.75792,0.24632 -1.44005,0.68213 -0.68213,0.43581 -1.26952,1.00425 -0.56844,0.56844 -1.02319,1.19372 z"
         style="font-size:38.8056px"
         id="path441" />
      <path
         d="m 272.28734,192.58684 h -3.8654 v -28.1947 l 2.74747,-1.09898 h 1.11793 z"
         style="font-size:38.8056px"
         id="path443" />
      <path
         d="m 287.2942,193.00369 q -1.9706,0 -3.71382,-0.73897 -1.72427,-0.73897 -3.01274,-2.00849 -1.28846,-1.26952 -2.04639,-2.97485 -0.73897,-1.72427 -0.73897,-3.65697 0,-2.33061 0.68213,-4.3012 0.68213,-1.98955 1.9327,-3.4296 1.25057,-1.44005 2.99379,-2.25482 1.76217,-0.81476 3.92225,-0.81476 1.8948,0 3.48644,0.68212 1.59163,0.66319 2.72852,1.80007 1.15583,1.11793 1.78111,2.59588 0.64424,1.47795 0.64424,3.08853 H 281.4961 q 0,1.95165 0.49265,3.61908 0.51159,1.66743 1.4211,2.8801 0.90951,1.21268 2.16008,1.89481 1.25057,0.68213 2.74746,0.68213 1.25057,0 2.40641,-0.39791 1.15583,-0.41686 2.08428,-1.08004 0.9474,-0.66318 1.61058,-1.51584 0.66319,-0.85267 0.92846,-1.76217 l 1.11793,0.49265 q -0.41685,1.49689 -1.34531,2.80431 -0.92845,1.30741 -2.17902,2.29271 -1.23163,0.96635 -2.69063,1.53479 -1.459,0.56844 -2.95589,0.56844 z m 3.8275,-13.5668 q 0,-1.09898 -0.3979,-2.04639 -0.37897,-0.9474 -1.0611,-1.62953 -0.68212,-0.70108 -1.59163,-1.09898 -0.90951,-0.39791 -1.95165,-0.39791 -0.87161,0 -1.66743,0.39791 -0.79582,0.37896 -1.4211,1.08003 -0.62529,0.68213 -1.04214,1.62954 -0.39791,0.9474 -0.47371,2.04639 z"
         style="font-size:38.8056px"
         id="path445" />
      <path
         d="m 309.89922,167.46173 h 7.95818 q 1.9706,0 3.69487,0.4737 1.72427,0.4737 2.99379,1.40215 1.28847,0.90951 2.00849,2.25482 0.73898,1.32637 0.73898,3.05064 0,1.70532 -0.72003,2.97484 -0.70108,1.26952 -1.87586,2.10323 -1.15583,0.83372 -2.63377,1.25058 -1.47795,0.3979 -3.01274,0.3979 -0.66319,0 -1.38321,-0.0189 -0.72003,-0.0379 -1.38321,-0.0947 -0.66318,-0.0568 -1.23162,-0.13264 -0.56844,-0.0758 -0.92846,-0.15158 v 11.61515 h -4.22541 z m 4.22541,12.08885 q 0.72003,0.24633 1.5348,0.41686 0.81476,0.15158 1.66742,0.15158 1.36426,0 2.38746,-0.39791 1.02319,-0.41685 1.70532,-1.11793 0.68213,-0.72003 1.00425,-1.66743 0.34106,-0.96635 0.34106,-2.04639 0,-1.26952 -0.4358,-2.29271 -0.43581,-1.0232 -1.21268,-1.74322 -0.75792,-0.73898 -1.80006,-1.13688 -1.0232,-0.39791 -2.19797,-0.39791 h -2.9938 z"
         style="font-size:38.8056px"
         id="path447" />
      <path
         d="m 344.40362,192.58684 q -0.75792,-0.37896 -1.28847,-1.06109 -0.5116,-0.70108 -0.5116,-1.59164 -0.68212,0.5116 -1.34531,1.06109 -0.64423,0.5495 -1.4211,1.00425 -0.75792,0.4358 -1.70532,0.72002 -0.92846,0.28422 -2.16008,0.28422 -1.13688,0 -2.06534,-0.37896 -0.9095,-0.36001 -1.55374,-1.00424 -0.62528,-0.64424 -0.9853,-1.53479 -0.34106,-0.89056 -0.34106,-1.91376 0,-1.25057 0.49265,-2.25481 0.49265,-1.00425 1.34531,-1.78112 0.87161,-0.79582 2.00849,-1.40216 1.13688,-0.62528 2.42535,-1.09898 1.28847,-0.49265 2.65273,-0.87161 1.36426,-0.37896 2.65272,-0.70108 v -1.21268 q 0,-1.32636 -0.18948,-2.23587 -0.18948,-0.9095 -0.58739,-1.459 -0.3979,-0.56844 -1.02319,-0.79581 -0.60634,-0.24633 -1.459,-0.24633 -0.81477,0 -1.49689,0.32212 -0.68213,0.32212 -1.21268,0.87161 -0.5116,0.53054 -0.85266,1.26952 -0.32212,0.72002 -0.43581,1.53479 h -3.52433 q 0.15158,-1.25057 0.85266,-2.23587 0.72002,-0.9853 1.80006,-1.64848 1.08004,-0.68213 2.4443,-1.04214 1.38321,-0.36001 2.86116,-0.36001 1.8948,0 3.18327,0.37896 1.28846,0.36001 2.06533,1.02319 0.77687,0.66318 1.09899,1.62953 0.34107,0.94741 0.34107,2.10324 v 11.97516 q 0,0.89056 0.51159,1.59164 0.53055,0.68213 1.28847,1.06109 z m -1.80007,-11.29304 q -0.83371,0.26527 -1.72427,0.60634 -0.89056,0.34106 -1.74322,0.77687 -0.85266,0.41686 -1.62953,0.90951 -0.77687,0.49264 -1.36426,1.06109 -0.58739,0.56844 -0.92845,1.19372 -0.34107,0.62529 -0.34107,1.30742 0,0.72002 0.26527,1.36426 0.26528,0.62528 0.70108,1.11793 0.43581,0.4737 1.00425,0.75792 0.56844,0.26528 1.17478,0.26528 0.64423,0 1.23162,-0.17054 0.58739,-0.17053 1.13688,-0.45475 0.5495,-0.30317 1.09899,-0.68213 0.54949,-0.37896 1.11793,-0.81476 z"
         style="font-size:38.8056px"
         id="path449" />
      <path
         d="m 355.45032,172.82403 h 0.58739 l 0.5116,3.96014 q 0.45475,-0.87161 1.13688,-1.59164 0.68213,-0.72002 1.4969,-1.25057 0.83371,-0.53055 1.74322,-0.81477 0.92845,-0.30316 1.87585,-0.30316 0.85267,0 1.66743,0.22737 0.83372,0.22738 1.55374,0.72003 l -1.21267,3.24011 q -0.37897,-0.41685 -0.79582,-0.66318 -0.41686,-0.26527 -0.85266,-0.39791 -0.43581,-0.15158 -0.89056,-0.18948 -0.45476,-0.0379 -0.90951,-0.0379 -0.72002,0 -1.4211,0.20842 -0.68213,0.20843 -1.30742,0.62529 -0.62528,0.39791 -1.15583,1.04214 -0.53054,0.62529 -0.92845,1.47795 v 13.50996 h -3.84646 v -18.70172 z"
         style="font-size:38.8056px"
         id="path451" />
      <path
         d="m 373.88676,166.59012 h 1.09899 v 6.59392 h 4.32015 v 1.64848 h -4.32015 v 13.66154 q 0,0.4358 0.15158,0.81477 0.17053,0.37896 0.43581,0.66318 0.28422,0.28422 0.66318,0.45475 0.37896,0.15158 0.83371,0.15158 0.64424,0 1.17478,-0.32211 0.53055,-0.32212 0.92846,-0.79582 l 0.96635,0.64423 q -0.79582,1.34531 -2.06534,2.12218 -1.26952,0.77687 -3.14538,0.77687 -0.96635,0 -1.68637,-0.34106 -0.72003,-0.32212 -1.19373,-0.90951 -0.45475,-0.60633 -0.68213,-1.4211 -0.22738,-0.83371 -0.22738,-1.83796 v -13.66154 h -3.37275 v -0.72003 l 3.37275,-0.92845 v -5.51388 z"
         style="font-size:38.8056px"
         id="path453" />
      <path
         d="m 384.53559,197.17227 q 0.22737,0.0947 0.49265,0.24632 0.28422,0.15158 0.60633,0.28422 0.34107,0.15158 0.73898,0.24632 0.39791,0.0948 0.89056,0.0948 0.60633,0 1.13688,-0.34107 0.53054,-0.34106 0.96635,-0.85266 0.4358,-0.5116 0.77687,-1.11794 0.34106,-0.60633 0.56844,-1.13688 l 1.30741,-2.918 -9.90982,-18.49329 h 4.377 l 7.46553,14.02155 6.12021,-14.02155 h 2.06534 l -9.90983,22.81345 q -0.62528,1.4211 -1.44005,2.46324 -0.79582,1.04214 -1.70532,1.72427 -0.90951,0.68213 -1.87586,1.00425 -0.96635,0.34107 -1.87586,0.34107 -0.68213,0 -1.32636,-0.20843 -0.64423,-0.20843 -1.08004,-0.5495 z"
         style="font-size:38.8056px"
         id="path455" />
    </g>
    <circle
       style="fill:#008000;stroke:#1e1a1a;stroke-width:0.334428;stroke-linejoin:bevel;stroke-miterlimit:3.4;stroke-dasharray:none"
       id="path577-22"
       cx="177.38904"
       cy="244.00226"
       r="27.841583"
       inkscape:export-filename="logo-china.png"
       inkscape:export-xdpi="126.31773"
       inkscape:export-ydpi="126.31773" />
    <path
       style="fill:#f43434;fill-opacity:1;stroke:#000000;stroke-width:0.167214;stroke-linecap:butt;stroke-linejoin:miter;stroke-dasharray:none;stroke-opacity:1"
       d="m 151.68314,263.97949 7.35678,-0.19884 -3.57897,2.78366 z"
       id="path899-5" />
    <circle
       style="fill:#53b1eb;fill-opacity:1;stroke:#000000;stroke-width:0.167214;stroke-linejoin:bevel;stroke-miterlimit:3.4;stroke-dasharray:none;stroke-opacity:1"
       id="path953-1-6"
       cx="152.94209"
       cy="255.42929"
       r="2.6842332" />
    <ellipse
       style="fill:#ffffff;stroke:#1e1a1a;stroke-width:0.334428;stroke-linejoin:bevel;stroke-miterlimit:3.4;stroke-dasharray:none"
       id="path789-49"
       cx="189.88992"
       cy="234.79863"
       rx="6.2997355"
       ry="7.0711317" />
    <ellipse
       style="fill:#ffffff;stroke:#1e1a1a;stroke-width:0.334428;stroke-linejoin:bevel;stroke-miterlimit:3.4;stroke-dasharray:none"
       id="path789-0-3"
       cx="174.33345"
       cy="236.21286"
       rx="6.2997355"
       ry="7.0711317" />
    <path
       style="fill:#901600;fill-opacity:1;stroke:#000000;stroke-width:0.334428;stroke-linecap:butt;stroke-linejoin:miter;stroke-dasharray:none;stroke-opacity:1"
       d="m 190.2789,251.74746 c -0.6907,0.43765 -1.41861,0.47251 -2.51104,0.74155 -1.68917,0.41601 -2.15109,0.48621 -2.4557,1.15397 -0.39761,0.8716 -0.67339,2.02853 -0.39434,2.7597 0.24323,0.6373 0.57171,1.00032 1.13033,1.00032 0.55861,0 1.52105,-0.59831 2.29556,-0.5699 0.8729,0.032 1.75492,-0.78433 2.44243,-1.11375 0.72518,-0.95553 0.53369,-1.34272 0.56897,-2.22661 -0.17779,-1.20584 -0.35776,-2.0101 -1.07621,-1.74528 z"
       id="path1369-7"
       sodipodi:nodetypes="csssssccc" />
    <ellipse
       style="fill:#000000;fill-opacity:1;stroke:#1e1a1a;stroke-width:0.0517223;stroke-linejoin:bevel;stroke-miterlimit:3.4"
       id="path2097-7"
       cx="175.12656"
       cy="239.29619"
       rx="3.7949307"
       ry="3.6641407" />
    <ellipse
       style="fill:#000000;fill-opacity:1;stroke:#1e1a1a;stroke-width:0.0517223;stroke-linejoin:bevel;stroke-miterlimit:3.4"
       id="path2097-3-5"
       cx="189.77667"
       cy="231.45692"
       rx="3.7949307"
       ry="3.6641407" />
    <path
       style="fill:#008000;stroke:#000000;stroke-width:0.347335;stroke-linecap:butt;stroke-linejoin:miter;stroke-dasharray:none;stroke-opacity:1"
       d="m 174.89358,217.1726 c -1.51833,-4.42839 -2.53514,-6.21121 -4.81389,-8.46018 -2.7044,-2.66908 -4.49026,-3.10494 -9.56332,-4.45122 0.77579,4.06492 2.31789,6.18798 4.78381,8.4207 1.74832,1.583 3.39362,2.77934 9.5934,4.4907 z"
       id="path8291-4"
       sodipodi:nodetypes="cscsc" />
    <path
       style="fill:#ce2910;fill-opacity:1;stroke:#000000;stroke-width:0.334428;stroke-linecap:butt;stroke-linejoin:miter;stroke-dasharray:none;stroke-opacity:1"
       d="m 154.1197,203.42912 -4.27272,32.75271 36.35948,-19.1508 z"
       id="path893" />
    <path
       style="fill:#f4f034;fill-opacity:1;stroke:#000000;stroke-width:0.167214;stroke-linecap:butt;stroke-linejoin:miter;stroke-dasharray:none;stroke-opacity:1"
       d="m 192.32284,215.91864 0.19883,6.36262 3.97664,-3.1813 z"
       id="path897" />
    <path
       style="fill:#34a1f4;fill-opacity:1;stroke:#000000;stroke-width:0.167214;stroke-linecap:butt;stroke-linejoin:miter;stroke-dasharray:none;stroke-opacity:1"
       d="m 199.54798,227.64994 7.35678,-0.19883 -3.57897,2.78365 z"
       id="path899" />
    <circle
       style="fill:#9c2d9a;stroke:#000000;stroke-width:0.167214;stroke-linejoin:bevel;stroke-miterlimit:3.4;stroke-dasharray:none;stroke-opacity:1"
       id="path953-1"
       cx="200.80696"
       cy="221.22115"
       r="2.6842332" />
    <path
       style="fill:none;stroke:#000000;stroke-width:0.147473px;stroke-linecap:butt;stroke-linejoin:miter;stroke-opacity:1"
       d="m 164.89456,262.70157 v 0"
       id="path11077"
       sodipodi:nodetypes="cc" />
    <path
       style="fill:#227cb3;fill-opacity:1;stroke:#000000;stroke-width:0.167214;stroke-linecap:butt;stroke-linejoin:miter;stroke-dasharray:none;stroke-opacity:1"
       d="m 199.17678,252.47087 3.8168,-2.1394 c 3.08045,-1.058 4.71746,2.97133 2.95201,4.61097 l -3.61033,2.7962 z"
       id="path13360"
       sodipodi:nodetypes="ccccc" />
    <path
       style="fill:none;stroke:#000000;stroke-width:0.334428;stroke-linecap:butt;stroke-linejoin:miter;stroke-dasharray:none;stroke-opacity:1"
       d="m 195.08447,248.91903 c -1.79081,2.89741 -1.58774,6.50066 2.45254,7.80653"
       id="path25115-0"
       sodipodi:nodetypes="cc" />
    <path
       style="fill:#227cb3;fill-opacity:1;stroke:#000000;stroke-width:0.167214;stroke-linecap:butt;stroke-linejoin:miter;stroke-dasharray:none;stroke-opacity:1"
       d="m 185.97856,255.64668 14.03364,2.57391 1.85245,-3.23302 -13.10024,-1.55017 z"
       id="path17014"
       sodipodi:nodetypes="ccccc" />
    <ellipse
       style="fill:#53b1eb;fill-opacity:1;stroke:#000000;stroke-width:0.167214;stroke-linejoin:bevel;stroke-miterlimit:3.4;stroke-dasharray:none;stroke-opacity:1"
       id="path11906"
       cx="200.61124"
       cy="255.21124"
       rx="2.8987567"
       ry="3.1434903" />
    <ellipse
       style="fill:#156da2;fill-opacity:1;stroke:#000000;stroke-width:0.167214;stroke-linejoin:bevel;stroke-miterlimit:3.4;stroke-dasharray:none;stroke-opacity:1"
       id="path11906-4"
       cx="200.58682"
       cy="255.41769"
       rx="1.4929014"
       ry="1.6526823" />
    <path
       style="fill:#f42500;fill-opacity:1;stroke:none;stroke-width:0.147473px;stroke-linecap:butt;stroke-linejoin:miter;stroke-opacity:1"
       d="m 154.26369,203.68537 7.22265,26.18508 -11.51998,6.18893 z"
       id="path24387"
       sodipodi:nodetypes="cccc" />
    <path
       style="fill:none;stroke:#000000;stroke-width:0.334428;stroke-linecap:butt;stroke-linejoin:miter;stroke-dasharray:none;stroke-opacity:1"
       d="m 178.6778,252.1802 c 3.40707,2.0311 4.13956,5.29746 1.53809,8.43221"
       id="path25115"
       sodipodi:nodetypes="cc" />
    <circle
       style="fill:#008000;stroke:#1e1a1a;stroke-width:0.334428;stroke-linejoin:bevel;stroke-miterlimit:3.4;stroke-dasharray:none"
       id="path577-22-9"
       cx="252.47873"
       cy="243.65627"
       r="27.841583"
       inkscape:export-filename="logo-china.png"
       inkscape:export-xdpi="126.31773"
       inkscape:export-ydpi="126.31773" />
    <path
       style="fill:#f43434;fill-opacity:1;stroke:#000000;stroke-width:0.167214;stroke-linecap:butt;stroke-linejoin:miter;stroke-dasharray:none;stroke-opacity:1"
       d="m 226.77299,263.63345 7.35678,-0.19884 -3.57897,2.78366 z"
       id="path899-5-2" />
    <circle
       style="fill:#53b1eb;fill-opacity:1;stroke:#000000;stroke-width:0.167214;stroke-linejoin:bevel;stroke-miterlimit:3.4;stroke-dasharray:none;stroke-opacity:1"
       id="path953-1-6-6"
       cx="228.03198"
       cy="255.08322"
       r="2.6842332" />
    <ellipse
       style="fill:#ffffff;stroke:#1e1a1a;stroke-width:0.334428;stroke-linejoin:bevel;stroke-miterlimit:3.4;stroke-dasharray:none"
       id="path789-49-9"
       cx="264.97925"
       cy="234.45264"
       rx="6.2997355"
       ry="7.0711317" />
    <ellipse
       style="fill:#ffffff;stroke:#1e1a1a;stroke-width:0.334428;stroke-linejoin:bevel;stroke-miterlimit:3.4;stroke-dasharray:none"
       id="path789-0-3-6"
       cx="249.4232"
       cy="235.86687"
       rx="6.2997355"
       ry="7.0711317" />
    <path
       style="fill:#901600;fill-opacity:1;stroke:#000000;stroke-width:0.334428;stroke-linecap:butt;stroke-linejoin:miter;stroke-dasharray:none;stroke-opacity:1"
       d="m 265.36875,251.40142 c -0.6907,0.43765 -1.41861,0.47251 -2.51104,0.74155 -1.68917,0.41601 -2.15109,0.48621 -2.4557,1.15397 -0.39761,0.8716 -0.67339,2.02853 -0.39434,2.7597 0.24323,0.6373 0.57171,1.00032 1.13033,1.00032 0.55861,0 1.52105,-0.59831 2.29556,-0.5699 0.8729,0.032 1.75492,-0.78433 2.44243,-1.11375 0.72518,-0.95553 0.53369,-1.34272 0.56897,-2.22661 -0.17779,-1.20584 -0.35776,-2.0101 -1.07621,-1.74528 z"
       id="path1369-7-4"
       sodipodi:nodetypes="csssssccc" />
    <ellipse
       style="fill:#000000;fill-opacity:1;stroke:#1e1a1a;stroke-width:0.0517223;stroke-linejoin:bevel;stroke-miterlimit:3.4"
       id="path2097-7-8"
       cx="250.21631"
       cy="238.9502"
       rx="3.7949307"
       ry="3.6641407" />
    <ellipse
       style="fill:#000000;fill-opacity:1;stroke:#1e1a1a;stroke-width:0.0517223;stroke-linejoin:bevel;stroke-miterlimit:3.4"
       id="path2097-3-5-7"
       cx="264.866"
       cy="231.11093"
       rx="3.7949307"
       ry="3.6641407" />
    <path
       style="fill:#008000;stroke:#000000;stroke-width:0.347335;stroke-linecap:butt;stroke-linejoin:miter;stroke-dasharray:none;stroke-opacity:1"
       d="m 249.98343,216.82656 c -1.51833,-4.42839 -2.53514,-6.21121 -4.81389,-8.46018 -2.7044,-2.66908 -4.49026,-3.10494 -9.56332,-4.45122 0.77579,4.06492 2.31789,6.18798 4.78381,8.4207 1.74832,1.583 3.39362,2.77934 9.5934,4.4907 z"
       id="path8291-4-3"
       sodipodi:nodetypes="cscsc" />
    <path
       style="fill:#ce2910;fill-opacity:1;stroke:#000000;stroke-width:0.334428;stroke-linecap:butt;stroke-linejoin:miter;stroke-dasharray:none;stroke-opacity:1"
       d="m 229.20955,203.08308 -4.27272,32.75271 36.35948,-19.1508 z"
       id="path893-4" />
    <path
       style="fill:#f4f034;fill-opacity:1;stroke:#000000;stroke-width:0.167214;stroke-linecap:butt;stroke-linejoin:miter;stroke-dasharray:none;stroke-opacity:1"
       d="m 267.41269,215.5726 0.19883,6.36262 3.97664,-3.1813 z"
       id="path897-7" />
    <path
       style="fill:#34a1f4;fill-opacity:1;stroke:#000000;stroke-width:0.167214;stroke-linecap:butt;stroke-linejoin:miter;stroke-dasharray:none;stroke-opacity:1"
       d="m 274.63783,227.3039 7.35678,-0.19883 -3.57897,2.78365 z"
       id="path899-9" />
    <circle
       style="fill:#9c2d9a;stroke:#000000;stroke-width:0.167214;stroke-linejoin:bevel;stroke-miterlimit:3.4;stroke-dasharray:none;stroke-opacity:1"
       id="path953-1-0"
       cx="275.89594"
       cy="220.87515"
       r="2.6842332" />
    <path
       style="fill:none;stroke:#000000;stroke-width:0.147473px;stroke-linecap:butt;stroke-linejoin:miter;stroke-opacity:1"
       d="m 239.98441,262.35553 v 0"
       id="path11077-6"
       sodipodi:nodetypes="cc" />
    <path
       style="fill:#227cb3;fill-opacity:1;stroke:#000000;stroke-width:0.167214;stroke-linecap:butt;stroke-linejoin:miter;stroke-dasharray:none;stroke-opacity:1"
       d="m 274.26663,252.12483 3.8168,-2.1394 c 3.08045,-1.058 4.71746,2.97133 2.95201,4.61097 l -3.61033,2.7962 z"
       id="path13360-0"
       sodipodi:nodetypes="ccccc" />
    <path
       style="fill:none;stroke:#000000;stroke-width:0.334428;stroke-linecap:butt;stroke-linejoin:miter;stroke-dasharray:none;stroke-opacity:1"
       d="m 270.17432,248.57299 c -1.79081,2.89741 -1.58774,6.50066 2.45254,7.80653"
       id="path25115-0-6"
       sodipodi:nodetypes="cc" />
    <path
       style="fill:#227cb3;fill-opacity:1;stroke:#000000;stroke-width:0.167214;stroke-linecap:butt;stroke-linejoin:miter;stroke-dasharray:none;stroke-opacity:1"
       d="m 261.06841,255.30064 14.03364,2.57391 1.85245,-3.23302 -13.10024,-1.55017 z"
       id="path17014-0"
       sodipodi:nodetypes="ccccc" />
    <ellipse
       style="fill:#53b1eb;fill-opacity:1;stroke:#000000;stroke-width:0.167214;stroke-linejoin:bevel;stroke-miterlimit:3.4;stroke-dasharray:none;stroke-opacity:1"
       id="path11906-2"
       cx="275.70026"
       cy="254.86517"
       rx="2.8987567"
       ry="3.1434903" />
    <ellipse
       style="fill:#156da2;fill-opacity:1;stroke:#000000;stroke-width:0.167214;stroke-linejoin:bevel;stroke-miterlimit:3.4;stroke-dasharray:none;stroke-opacity:1"
       id="path11906-4-5"
       cx="275.67584"
       cy="255.07162"
       rx="1.4929014"
       ry="1.6526823" />
    <path
       style="fill:#f42500;fill-opacity:1;stroke:none;stroke-width:0.147473px;stroke-linecap:butt;stroke-linejoin:miter;stroke-opacity:1"
       d="m 229.35354,203.33933 7.22265,26.18508 -11.51998,6.18893 z"
       id="path24387-2"
       sodipodi:nodetypes="cccc" />
    <path
       style="fill:none;stroke:#000000;stroke-width:0.334428;stroke-linecap:butt;stroke-linejoin:miter;stroke-dasharray:none;stroke-opacity:1"
       d="m 253.76765,251.83416 c 3.40707,2.0311 4.13956,5.29746 1.53809,8.43221"
       id="path25115-6"
       sodipodi:nodetypes="cc" />
    <circle
       style="fill:#008000;stroke:#1e1a1a;stroke-width:0.334428;stroke-linejoin:bevel;stroke-miterlimit:3.4;stroke-dasharray:none"
       id="path577-22-4"
       cx="327.0502"
       cy="244.20317"
       r="27.841583"
       inkscape:export-filename="logo-china.png"
       inkscape:export-xdpi="126.31773"
       inkscape:export-ydpi="126.31773" />
    <path
       style="fill:#f43434;fill-opacity:1;stroke:#000000;stroke-width:0.167214;stroke-linecap:butt;stroke-linejoin:miter;stroke-dasharray:none;stroke-opacity:1"
       d="m 301.34542,264.18047 7.35678,-0.19884 -3.57897,2.78366 z"
       id="path899-5-6" />
    <circle
       style="fill:#53b1eb;fill-opacity:1;stroke:#000000;stroke-width:0.167214;stroke-linejoin:bevel;stroke-miterlimit:3.4;stroke-dasharray:none;stroke-opacity:1"
       id="path953-1-6-9"
       cx="302.6033"
       cy="255.63031"
       r="2.6842332" />
    <ellipse
       style="fill:#ffffff;stroke:#1e1a1a;stroke-width:0.334428;stroke-linejoin:bevel;stroke-miterlimit:3.4;stroke-dasharray:none"
       id="path789-49-3"
       cx="339.55109"
       cy="234.99954"
       rx="6.2997355"
       ry="7.0711317" />
    <ellipse
       style="fill:#ffffff;stroke:#1e1a1a;stroke-width:0.334428;stroke-linejoin:bevel;stroke-miterlimit:3.4;stroke-dasharray:none"
       id="path789-0-3-7"
       cx="323.99463"
       cy="236.41377"
       rx="6.2997355"
       ry="7.0711317" />
    <path
       style="fill:#901600;fill-opacity:1;stroke:#000000;stroke-width:0.334428;stroke-linecap:butt;stroke-linejoin:miter;stroke-dasharray:none;stroke-opacity:1"
       d="m 339.94118,251.94844 c -0.6907,0.43765 -1.41861,0.47251 -2.51104,0.74155 -1.68917,0.41601 -2.15109,0.48621 -2.4557,1.15397 -0.39761,0.8716 -0.67339,2.02853 -0.39434,2.7597 0.24323,0.6373 0.57171,1.00032 1.13033,1.00032 0.55861,0 1.52105,-0.59831 2.29556,-0.5699 0.8729,0.032 1.75492,-0.78433 2.44243,-1.11375 0.72518,-0.95553 0.53369,-1.34272 0.56897,-2.22661 -0.17779,-1.20584 -0.35776,-2.0101 -1.07621,-1.74528 z"
       id="path1369-7-7"
       sodipodi:nodetypes="csssssccc" />
    <ellipse
       style="fill:#000000;fill-opacity:1;stroke:#1e1a1a;stroke-width:0.0517223;stroke-linejoin:bevel;stroke-miterlimit:3.4"
       id="path2097-7-1"
       cx="324.78772"
       cy="239.4971"
       rx="3.7949307"
       ry="3.6641407" />
    <ellipse
       style="fill:#000000;fill-opacity:1;stroke:#1e1a1a;stroke-width:0.0517223;stroke-linejoin:bevel;stroke-miterlimit:3.4"
       id="path2097-3-5-9"
       cx="339.43784"
       cy="231.65784"
       rx="3.7949307"
       ry="3.6641407" />
    <path
       style="fill:#008000;stroke:#000000;stroke-width:0.347335;stroke-linecap:butt;stroke-linejoin:miter;stroke-dasharray:none;stroke-opacity:1"
       d="m 324.55586,217.37358 c -1.51833,-4.42839 -2.53514,-6.21121 -4.81389,-8.46018 -2.7044,-2.66908 -4.49026,-3.10494 -9.56332,-4.45122 0.77579,4.06492 2.31789,6.18798 4.78381,8.4207 1.74832,1.583 3.39362,2.77934 9.5934,4.4907 z"
       id="path8291-4-5"
       sodipodi:nodetypes="cscsc" />
    <path
       style="fill:#ce2910;fill-opacity:1;stroke:#000000;stroke-width:0.334428;stroke-linecap:butt;stroke-linejoin:miter;stroke-dasharray:none;stroke-opacity:1"
       d="m 303.78198,203.6301 -4.27272,32.75271 36.35948,-19.1508 z"
       id="path893-9" />
    <path
       style="fill:#f4f034;fill-opacity:1;stroke:#000000;stroke-width:0.167214;stroke-linecap:butt;stroke-linejoin:miter;stroke-dasharray:none;stroke-opacity:1"
       d="m 341.98512,216.11962 0.19883,6.36262 3.97664,-3.1813 z"
       id="path897-9" />
    <path
       style="fill:#34a1f4;fill-opacity:1;stroke:#000000;stroke-width:0.167214;stroke-linecap:butt;stroke-linejoin:miter;stroke-dasharray:none;stroke-opacity:1"
       d="m 349.21026,227.85092 7.35678,-0.19883 -3.57897,2.78365 z"
       id="path899-1" />
    <circle
       style="fill:#9c2d9a;stroke:#000000;stroke-width:0.167214;stroke-linejoin:bevel;stroke-miterlimit:3.4;stroke-dasharray:none;stroke-opacity:1"
       id="path953-1-9"
       cx="350.46814"
       cy="221.42206"
       r="2.6842332" />
    <path
       style="fill:none;stroke:#000000;stroke-width:0.147473px;stroke-linecap:butt;stroke-linejoin:miter;stroke-opacity:1"
       d="m 314.55684,262.90255 v 0"
       id="path11077-3"
       sodipodi:nodetypes="cc" />
    <path
       style="fill:#227cb3;fill-opacity:1;stroke:#000000;stroke-width:0.167214;stroke-linecap:butt;stroke-linejoin:miter;stroke-dasharray:none;stroke-opacity:1"
       d="m 348.83906,252.67185 3.8168,-2.1394 c 3.08045,-1.058 4.71746,2.97133 2.95201,4.61097 l -3.61033,2.7962 z"
       id="path13360-3"
       sodipodi:nodetypes="ccccc" />
    <path
       style="fill:none;stroke:#000000;stroke-width:0.334428;stroke-linecap:butt;stroke-linejoin:miter;stroke-dasharray:none;stroke-opacity:1"
       d="m 344.74675,249.12001 c -1.79081,2.89741 -1.58774,6.50066 2.45254,7.80653"
       id="path25115-0-61"
       sodipodi:nodetypes="cc" />
    <path
       style="fill:#227cb3;fill-opacity:1;stroke:#000000;stroke-width:0.167214;stroke-linecap:butt;stroke-linejoin:miter;stroke-dasharray:none;stroke-opacity:1"
       d="m 335.64084,255.84766 14.03364,2.57391 1.85245,-3.23302 -13.10024,-1.55017 z"
       id="path17014-8"
       sodipodi:nodetypes="ccccc" />
    <ellipse
       style="fill:#53b1eb;fill-opacity:1;stroke:#000000;stroke-width:0.167214;stroke-linejoin:bevel;stroke-miterlimit:3.4;stroke-dasharray:none;stroke-opacity:1"
       id="path11906-8"
       cx="350.2724"
       cy="255.41226"
       rx="2.8987567"
       ry="3.1434903" />
    <ellipse
       style="fill:#156da2;fill-opacity:1;stroke:#000000;stroke-width:0.167214;stroke-linejoin:bevel;stroke-miterlimit:3.4;stroke-dasharray:none;stroke-opacity:1"
       id="path11906-4-7"
       cx="350.24799"
       cy="255.61871"
       rx="1.4929014"
       ry="1.6526823" />
    <path
       style="fill:#f42500;fill-opacity:1;stroke:none;stroke-width:0.147473px;stroke-linecap:butt;stroke-linejoin:miter;stroke-opacity:1"
       d="m 303.92597,203.88635 7.22265,26.18508 -11.51998,6.18893 z"
       id="path24387-6"
       sodipodi:nodetypes="cccc" />
    <path
       style="fill:none;stroke:#000000;stroke-width:0.334428;stroke-linecap:butt;stroke-linejoin:miter;stroke-dasharray:none;stroke-opacity:1"
       d="m 328.34008,252.38118 c 3.40707,2.0311 4.13956,5.29746 1.53809,8.43221"
       id="path25115-1"
       sodipodi:nodetypes="cc"
       inkscape:export-filename="../../../../../Downloads/logo-tub.png"
       inkscape:export-xdpi="141.05087"
       inkscape:export-ydpi="141.05087" />
  </g>
</svg>
