<?xml version="1.0" encoding="UTF-8" standalone="no"?>
<!-- Created with Inkscape (http://www.inkscape.org/) -->

<svg
   width="210mm"
   height="297mm"
   viewBox="0 0 210 297"
   version="1.1"
   id="svg5"
   inkscape:version="1.2.2 (b0a84865, 2022-12-01)"
   sodipodi:docname="logo-tub-square.svg"
   inkscape:export-filename="logo-tub.png"
   inkscape:export-xdpi="60.476189"
   inkscape:export-ydpi="60.476189"
   xmlns:inkscape="http://www.inkscape.org/namespaces/inkscape"
   xmlns:sodipodi="http://sodipodi.sourceforge.net/DTD/sodipodi-0.dtd"
   xmlns="http://www.w3.org/2000/svg"
   xmlns:svg="http://www.w3.org/2000/svg">
  <sodipodi:namedview
     id="namedview7"
     pagecolor="#ffffff"
     bordercolor="#999999"
     borderopacity="1"
     inkscape:showpageshadow="0"
     inkscape:pageopacity="0"
     inkscape:pagecheckerboard="0"
     inkscape:deskcolor="#d1d1d1"
     inkscape:document-units="mm"
     showgrid="false"
     inkscape:zoom="0.62055483"
     inkscape:cx="222.38164"
     inkscape:cy="424.62001"
     inkscape:window-width="1296"
     inkscape:window-height="719"
     inkscape:window-x="144"
     inkscape:window-y="146"
     inkscape:window-maximized="0"
     inkscape:current-layer="layer1"
     showguides="false" />
  <defs
     id="defs2">
    <linearGradient
       id="linearGradient13268"
       inkscape:swatch="solid">
      <stop
         style="stop-color:#eaeaea;stop-opacity:1;"
         offset="0"
         id="stop13266" />
    </linearGradient>
  </defs>
  <g
     inkscape:label="Layer 1"
     inkscape:groupmode="layer"
     id="layer1">
    <rect
       style="fill:#1e1f22;stroke:#1e1f22;stroke-width:0.535711;stroke-linejoin:bevel;stroke-miterlimit:3.4"
       id="rect906"
       width="129.46428"
       height="129.46429"
       x="40.267857"
       y="64.267853"
       inkscape:export-filename="../Docs/logo-square.png"
       inkscape:export-xdpi="200.07385"
       inkscape:export-ydpi="200.07385" />
    <ellipse
       style="fill:#29a429;fill-opacity:1;stroke:#1e1a1a;stroke-width:0.559765;stroke-linejoin:bevel;stroke-miterlimit:3.4;stroke-dasharray:none"
       id="path577-5"
       cx="98.20433"
       cy="128.66278"
       inkscape:export-filename="logo-tub.png"
       inkscape:export-xdpi="124.58931"
       inkscape:export-ydpi="124.58931"
       rx="49.970901"
       ry="43.45863"
       transform="rotate(-3.2663822)" />
    <ellipse
       style="fill:#ffffff;stroke:#1e1a1a;stroke-width:0.565679;stroke-linejoin:bevel;stroke-miterlimit:3.4;stroke-dasharray:none"
       id="path789-4"
       cx="118.7866"
       cy="122.75079"
       rx="9.4349384"
       ry="9.4167328"
       transform="rotate(-3.2663822)" />
    <ellipse
       style="fill:#ffffff;stroke:#1e1a1a;stroke-width:0.550443;stroke-linejoin:bevel;stroke-miterlimit:3.4;stroke-dasharray:none"
       id="path789-0-5"
       cx="90.788689"
       cy="123.48872"
       rx="9.5218973"
       ry="9.4501829"
       transform="rotate(-3.2663822)" />
    <ellipse
       style="fill:#000000;fill-opacity:1;stroke:#1e1a1a;stroke-width:0.0812139;stroke-linejoin:bevel;stroke-miterlimit:3.4"
       id="path2097-30"
       cx="90.852959"
       cy="127.27952"
       rx="6.1259942"
       ry="5.5963531"
       transform="rotate(-3.2663822)" />
    <ellipse
       style="fill:#000000;fill-opacity:1;stroke:#1e1a1a;stroke-width:0.0799088;stroke-linejoin:bevel;stroke-miterlimit:3.4"
       id="path2097-3-1"
       cx="118.75091"
       cy="126.65399"
       rx="5.929987"
       ry="5.5970058"
       transform="rotate(-3.2663822)" />
    <path
       style="fill:none;stroke:#000000;stroke-width:0.574924;stroke-linecap:butt;stroke-linejoin:miter;stroke-dasharray:none;stroke-opacity:1"
       d="m 97.984024,149.18494 c 11.391306,3.09302 24.836266,0.48591 31.828836,-2.69775"
       id="path15573"
       sodipodi:nodetypes="cc" />
    <path
       style="fill:none;stroke:#000000;stroke-width:0.6;stroke-linecap:butt;stroke-linejoin:miter;stroke-dasharray:none;stroke-opacity:1"
       d="m 113.01863,126.14641 c 4.68059,3.60922 8.62106,9.64857 7.00705,10.71547 -3.34149,1.37645 -5.4176,1.66981 -10.27833,1.80668"
       id="path1740"
       sodipodi:nodetypes="ccc" />
    <path
       style="fill:#cdb263;fill-opacity:1;stroke:#000000;stroke-width:0.6;stroke-linecap:butt;stroke-linejoin:miter;stroke-dasharray:none;stroke-opacity:1"
       d="m 103.21006,78.531097 c -13.120906,0.602294 -26.839401,1.770961 -35.173564,10.115707 -9.626959,8.974631 -11.627145,20.742286 -12.897351,30.428026 -0.713928,17.09497 7.791103,25.28026 8.737718,45.50862 l 3.973244,-12.24067 c 2.732338,3.34351 4.430486,5.58793 5.43461,13.39536 1.181554,-4.33404 3.077325,-8.06821 4.259806,-18.10971 3.69981,11.43726 5.028072,12.71617 7.676948,16.54326 -1.206405,-22.25631 -4.460081,-48.31156 6.078945,-67.079232 2.760764,4.625252 3.709794,6.041552 6.213456,7.921692 1.598329,-3.7867 2.812538,-5.676084 5.309448,-7.541725 3.31975,4.507605 6.04494,9.251835 8.20761,14.219935 1.54005,-5.4618 1.88382,-10.85532 1.06479,-16.182473 3.00545,1.059354 5.77281,2.385645 6.58641,5.902173 1.72491,-1.695817 2.91521,-2.569741 4.76533,-6.238905 18.06541,8.549705 15.9078,34.495705 17.40642,64.138095 2.25292,-4.24405 4.8912,-10.49022 6.41061,-18.80658 1.4199,10.83403 0.3302,4.97498 1.55498,18.91619 1.99319,-7.26511 2.40813,-9.73875 3.28379,-14.55632 0.43921,8.27844 3.47577,13.65556 3.68529,12.74225 0.32986,-1.32614 -0.81707,-4.92338 -0.92117,-18.00887 -0.0207,-2.60233 0.40321,-16.80252 0.36481,-20.18019 C 155.08037,106.06361 148.22323,92.547423 141.97357,85.557913 131.54897,74.43268 117.92689,77.38912 103.2101,78.531095 Z"
       id="path3381"
       sodipodi:nodetypes="ccccccccccccccccccccssccc" />
    <path
       style="fill:none;stroke:#000000;stroke-width:0.6;stroke-linecap:butt;stroke-linejoin:miter;stroke-dasharray:none;stroke-opacity:1"
       d="m 112.119,95.636527 c -0.46372,-3.396656 -0.72508,-4.382316 -3.52538,-8.363106"
       id="path25489"
       sodipodi:nodetypes="cc" />
    <path
       style="fill:none;stroke:#000000;stroke-width:0.6;stroke-linecap:butt;stroke-linejoin:miter;stroke-dasharray:none;stroke-opacity:1"
       d="m 147.24442,141.21494 c 0.82735,-7.40914 0.26385,-16.11234 -1.09896,-22.89467"
       id="path25495"
       sodipodi:nodetypes="cc" />
    <path
       style="fill:none;stroke:#000000;stroke-width:0.6;stroke-linecap:butt;stroke-linejoin:miter;stroke-dasharray:none;stroke-opacity:1"
       d="M 77.590632,147.49004 C 76.907546,143.6726 76.145348,135.92152 76.524765,131.49731"
       id="path25522"
       sodipodi:nodetypes="cc" />
    <rect
       style="fill:#ba00bd;fill-opacity:1;stroke:#1e1a1a;stroke-width:0.632155;stroke-linecap:round;stroke-linejoin:round;stroke-miterlimit:4.7;stroke-dasharray:none"
       id="rect1145"
       width="99.669464"
       height="8.9015341"
       x="55.826927"
       y="172.59294"
       ry="4.4507675" />
    <rect
       style="fill:#f800fc;fill-opacity:1;stroke:#1e1a1a;stroke-width:0.632155;stroke-linecap:round;stroke-linejoin:round;stroke-miterlimit:4.7;stroke-dasharray:none"
       id="rect1145-8"
       width="99.669464"
       height="8.9015341"
       x="55.920826"
       y="163.7515"
       ry="4.4507675" />
    <g
       id="g3988"
       style="fill:#ff0a00;fill-opacity:1"
       transform="matrix(1.9593521,-0.6428175,0.74845358,1.9858253,-354.07432,70.267536)">
      <path
         style="fill:#ff0a00;fill-opacity:1;stroke:#000000;stroke-width:0.264583px;stroke-linecap:butt;stroke-linejoin:miter;stroke-opacity:1"
         d="m 177.72832,103.21526 -4.51816,-4.935088 c 0,0 -2.38729,-2.231374 -0.32188,-4.149985 2.14478,-1.992344 4.86842,0.888714 4.86842,0.888714"
         id="path3952"
         sodipodi:nodetypes="ccsc" />
      <path
         style="fill:#ff0a00;fill-opacity:1;stroke:#000000;stroke-width:0.264583px;stroke-linecap:butt;stroke-linejoin:miter;stroke-opacity:1"
         d="m 177.5911,103.21811 4.51816,-4.935087 c 0,0 2.38729,-2.23138 0.32189,-4.14999 -2.14478,-1.99234 -4.86843,0.88872 -4.86843,0.88872"
         id="path3952-0"
         sodipodi:nodetypes="ccsc" />
    </g>
    <rect
       style="fill:#fd61ff;fill-opacity:1;stroke:#1e1a1a;stroke-width:0.632155;stroke-linecap:round;stroke-linejoin:round;stroke-miterlimit:4.7;stroke-dasharray:none"
       id="rect1145-7"
       width="99.669464"
       height="8.9015341"
       x="55.661034"
       y="154.90016"
       ry="4.4507675"
       inkscape:export-filename="logo-tub-square.png"
       inkscape:export-xdpi="200.07385"
       inkscape:export-ydpi="200.07385" />
  </g>
</svg>
