<?xml version="1.0" encoding="UTF-8" standalone="no"?>
<!-- Created with Inkscape (http://www.inkscape.org/) -->

<svg
   width="210mm"
   height="297mm"
   viewBox="0 0 210 297"
   version="1.1"
   id="svg5"
   inkscape:version="1.4 (e7c3feb1, 2024-10-09)"
   sodipodi:docname="logo-moblink-feature-graphics.svg"
   xml:space="preserve"
   xmlns:inkscape="http://www.inkscape.org/namespaces/inkscape"
   xmlns:sodipodi="http://sodipodi.sourceforge.net/DTD/sodipodi-0.dtd"
   xmlns="http://www.w3.org/2000/svg"
   xmlns:svg="http://www.w3.org/2000/svg"><sodipodi:namedview
     id="namedview7"
     pagecolor="#ffffff"
     bordercolor="#999999"
     borderopacity="1"
     inkscape:showpageshadow="0"
     inkscape:pageopacity="0"
     inkscape:pagecheckerboard="0"
     inkscape:deskcolor="#d1d1d1"
     inkscape:document-units="mm"
     showgrid="false"
     inkscape:zoom="0.4483021"
     inkscape:cx="325.67325"
     inkscape:cy="778.4929"
     inkscape:window-width="1440"
     inkscape:window-height="847"
     inkscape:window-x="0"
     inkscape:window-y="25"
     inkscape:window-maximized="1"
     inkscape:current-layer="layer1" /><defs
     id="defs2"><linearGradient
       id="linearGradient13268"
       inkscape:swatch="solid"><stop
         style="stop-color:#eaeaea;stop-opacity:1;"
         offset="0"
         id="stop13266" /></linearGradient></defs><g
     inkscape:label="Layer 1"
     inkscape:groupmode="layer"
     id="layer1"><rect
       style="fill:#1e1f22;stroke:#1e1f22;stroke-width:0.766441;stroke-linejoin:bevel;stroke-miterlimit:3.4"
       id="rect906"
       width="265.47357"
       height="129.23355"
       x="-30.361864"
       y="82.89122"
       inkscape:export-filename="../Docs/logo-moblink-feature-graphics.png"
       inkscape:export-xdpi="97.692299"
       inkscape:export-ydpi="97.692299" /><circle
       style="fill:#008000;stroke:#1e1a1a;stroke-width:0.6;stroke-linejoin:bevel;stroke-miterlimit:3.4;stroke-dasharray:none"
       id="path577-0"
       cx="106.25958"
       cy="157.50377"
       r="49.950783"
       inkscape:export-filename="logo.png"
       inkscape:export-xdpi="25.18"
       inkscape:export-ydpi="25.18" /><ellipse
       style="fill:#ffffff;stroke:#1e1a1a;stroke-width:0.6;stroke-linejoin:bevel;stroke-miterlimit:3.4;stroke-dasharray:none"
       id="path789-3"
       cx="131.73582"
       cy="140.07701"
       rx="11.302401"
       ry="12.686368" /><ellipse
       style="fill:#ffffff;stroke:#1e1a1a;stroke-width:0.6;stroke-linejoin:bevel;stroke-miterlimit:3.4;stroke-dasharray:none"
       id="path789-0-2"
       cx="103.82581"
       cy="142.61427"
       rx="11.302401"
       ry="12.686368" /><path
       style="fill:#901600;fill-opacity:1;stroke:#000000;stroke-width:0.6;stroke-linecap:butt;stroke-linejoin:miter;stroke-dasharray:none;stroke-opacity:1"
       d="m 136.70493,165.5493 c -4.41659,1.4602 -9.07107,1.57648 -16.05635,2.47412 -10.80109,1.38798 -13.75474,1.62222 -15.70254,3.85011 -2.5424,2.90799 -4.30582,6.768 -2.52151,9.20747 1.55524,2.12628 3.65572,3.33748 7.22763,3.33748 3.57191,0 9.72606,-1.99618 14.67851,-1.90143 5.58164,0.10679 11.22154,-2.61686 15.61774,-3.71591 4.63695,-3.18801 3.41254,-4.47987 3.63809,-7.42886 -1.13681,-4.02316 -2.2876,-6.70648 -6.88157,-5.82298 z"
       id="path1369-6"
       sodipodi:nodetypes="csssssccc" /><ellipse
       style="fill:#000000;fill-opacity:1;stroke:#1e1a1a;stroke-width:0.0927953;stroke-linejoin:bevel;stroke-miterlimit:3.4"
       id="path2097-9"
       cx="108.24445"
       cy="144.15178"
       rx="6.8085122"
       ry="6.5738606" /><ellipse
       style="fill:#000000;fill-opacity:1;stroke:#1e1a1a;stroke-width:0.0927953;stroke-linejoin:bevel;stroke-miterlimit:3.4"
       id="path2097-3-4"
       cx="135.8598"
       cy="142.73598"
       rx="6.8085122"
       ry="6.5738606" /><path
       style="fill:#008000;stroke:#000000;stroke-width:0.623157;stroke-linecap:butt;stroke-linejoin:miter;stroke-dasharray:none;stroke-opacity:1"
       d="m 101.78374,109.36853 c -2.724034,-7.94501 -4.548296,-11.143579 -8.636626,-15.178489 -4.85199,-4.7886 -8.05601,-5.5706 -17.15762,-7.98595 1.39184,7.29289 4.15854,11.10189 8.58267,15.107639 3.13667,2.84007 6.08852,4.98645 17.211576,8.0568 z"
       id="path8291-1"
       sodipodi:nodetypes="cscsc" /><path
       d="m 66.945915,191.58195 a 1.6070492,1.6070492 0 0 1 -2.408228,2.12858 c -3.806446,-4.30323 -5.750793,-8.87293 -5.675125,-13.51832 0.07896,-4.52365 2.069364,-9.03085 6.122557,-13.33407 a 1.6120649,1.6120649 0 0 1 2.345718,2.20753 c -3.480744,3.69459 -5.178347,7.48459 -5.250725,11.17919 -0.0658,3.81303 1.605485,7.64908 4.865803,11.33709 z m 13.597279,-7.79384 v 21.50296 a 1.49363,1.49363 0 0 1 -2.98726,0 v -21.50296 a 3.7899975,3.7899975 0 1 1 2.98726,0 z m 7.15559,4.66182 a 1.6090156,1.6090156 0 0 1 -2.49706,-2.02988 c 1.60878,-1.97396 2.44442,-4.06964 2.451,-6.1423 0.007,-2.07265 -0.77971,-4.09596 -2.40823,-6.09294 a 1.6090185,1.6090185 0 1 1 2.49706,-2.02989 c 2.11542,2.59247 3.132,5.35271 3.12543,8.12283 0,2.83264 -1.09226,5.61263 -3.1682,8.17218 z m -14.80139,-2.02988 a 1.6090161,1.6090161 0 0 1 -2.497054,2.02988 c -2.075944,-2.55955 -3.158331,-5.33954 -3.168201,-8.17218 0,-2.77012 1.010009,-5.53036 3.128722,-8.12283 a 1.608775,1.608775 0 1 1 2.493763,2.02989 c -1.64496,1.99698 -2.411515,4.06635 -2.408225,6.09294 0.0032,2.0266 0.845515,4.16834 2.450995,6.1423 z m 20.66404,7.29048 a 1.6070492,1.6070492 0 0 1 -2.40823,-2.12858 c 3.26362,-3.68801 4.9349,-7.52406 4.86581,-11.33709 -0.0626,-3.71104 -1.76998,-7.4846 -5.26389,-11.18576 a 1.6120649,1.6120649 0 1 1 2.34572,-2.20754 c 4.05319,4.30323 6.043592,8.81043 6.119262,13.33408 0.079,4.64538 -1.865382,9.21179 -5.671832,13.51831 z"
       id="path1-3"
       style="stroke:#ffffff;stroke-width:0.929;stroke-dasharray:none;stroke-opacity:1"
       inkscape:export-filename="logo-moblink-feature-graphics.png"
       inkscape:export-xdpi="97.692299"
       inkscape:export-ydpi="97.692299" /></g></svg>
