<?xml version="1.0" encoding="UTF-8" standalone="no"?>
<!-- Created with Inkscape (http://www.inkscape.org/) -->

<svg
   width="210mm"
   height="297mm"
   viewBox="0 0 210 297"
   version="1.1"
   id="svg5"
   inkscape:version="1.2.2 (b0a84865, 2022-12-01)"
   sodipodi:docname="logo-tub.svg"
   inkscape:export-filename="logo-tub.png"
   inkscape:export-xdpi="60.476189"
   inkscape:export-ydpi="60.476189"
   xmlns:inkscape="http://www.inkscape.org/namespaces/inkscape"
   xmlns:sodipodi="http://sodipodi.sourceforge.net/DTD/sodipodi-0.dtd"
   xmlns="http://www.w3.org/2000/svg"
   xmlns:svg="http://www.w3.org/2000/svg">
  <sodipodi:namedview
     id="namedview7"
     pagecolor="#ffffff"
     bordercolor="#999999"
     borderopacity="1"
     inkscape:showpageshadow="0"
     inkscape:pageopacity="0"
     inkscape:pagecheckerboard="0"
     inkscape:deskcolor="#d1d1d1"
     inkscape:document-units="mm"
     showgrid="false"
     inkscape:zoom="0.50832047"
     inkscape:cx="533.12824"
     inkscape:cy="402.30526"
     inkscape:window-width="1440"
     inkscape:window-height="847"
     inkscape:window-x="0"
     inkscape:window-y="25"
     inkscape:window-maximized="1"
     inkscape:current-layer="layer1" />
  <defs
     id="defs2">
    <linearGradient
       id="linearGradient13268"
       inkscape:swatch="solid">
      <stop
         style="stop-color:#eaeaea;stop-opacity:1;"
         offset="0"
         id="stop13266" />
    </linearGradient>
  </defs>
  <g
     inkscape:label="Layer 1"
     inkscape:groupmode="layer"
     id="layer1">
    <ellipse
       style="fill:#29a429;fill-opacity:1;stroke:#1e1a1a;stroke-width:0.559765;stroke-linejoin:bevel;stroke-miterlimit:3.4;stroke-dasharray:none"
       id="path577-5"
       cx="94.234833"
       cy="133.20647"
       inkscape:export-filename="logo-tub.png"
       inkscape:export-xdpi="124.58931"
       inkscape:export-ydpi="124.58931"
       rx="49.970901"
       ry="43.45863"
       transform="rotate(-3.2663822)" />
    <ellipse
       style="fill:#ffffff;stroke:#1e1a1a;stroke-width:0.565679;stroke-linejoin:bevel;stroke-miterlimit:3.4;stroke-dasharray:none"
       id="path789-4"
       cx="114.81712"
       cy="127.29449"
       rx="9.4349384"
       ry="9.4167328"
       transform="rotate(-3.2663822)" />
    <ellipse
       style="fill:#ffffff;stroke:#1e1a1a;stroke-width:0.550443;stroke-linejoin:bevel;stroke-miterlimit:3.4;stroke-dasharray:none"
       id="path789-0-5"
       cx="86.819191"
       cy="128.03241"
       rx="9.5218973"
       ry="9.4501829"
       transform="rotate(-3.2663822)" />
    <ellipse
       style="fill:#000000;fill-opacity:1;stroke:#1e1a1a;stroke-width:0.0812139;stroke-linejoin:bevel;stroke-miterlimit:3.4"
       id="path2097-30"
       cx="89.117287"
       cy="129.83058"
       rx="6.1259942"
       ry="5.5963531"
       transform="rotate(-3.2663822)" />
    <ellipse
       style="fill:#000000;fill-opacity:1;stroke:#1e1a1a;stroke-width:0.0799088;stroke-linejoin:bevel;stroke-miterlimit:3.4"
       id="path2097-3-1"
       cx="116.98509"
       cy="129.73337"
       rx="5.929987"
       ry="5.5970058"
       transform="rotate(-3.2663822)" />
    <path
       style="fill:none;stroke:#000000;stroke-width:0.574924;stroke-linecap:butt;stroke-linejoin:miter;stroke-dasharray:none;stroke-opacity:1"
       d="m 94.279855,153.94747 c 11.391285,3.09302 24.836245,0.48591 31.828815,-2.69775"
       id="path15573"
       sodipodi:nodetypes="cc" />
    <path
       style="fill:none;stroke:#000000;stroke-width:0.6;stroke-linecap:butt;stroke-linejoin:miter;stroke-dasharray:none;stroke-opacity:1"
       d="m 109.31444,130.90894 c 4.68059,3.60922 8.62106,9.64857 7.00705,10.71547 -3.34149,1.37645 -5.4176,1.66981 -10.27833,1.80668"
       id="path1740"
       sodipodi:nodetypes="ccc" />
    <path
       style="fill:#cdb263;fill-opacity:1;stroke:#000000;stroke-width:0.6;stroke-linecap:butt;stroke-linejoin:miter;stroke-dasharray:none;stroke-opacity:1"
       d="M 99.505878,83.2936 C 86.384985,83.895894 72.66649,85.064561 64.332327,93.409307 54.705368,102.38395 52.705182,114.15162 51.434976,123.83736 c -0.713928,17.09497 7.791103,25.28026 8.737718,45.50862 l 3.973244,-12.24067 c 2.732338,3.34351 4.430486,5.58793 5.43461,13.39536 1.181554,-4.33404 3.077325,-8.06821 4.259806,-18.10971 3.69981,11.43726 5.028072,12.71617 7.676948,16.54326 -1.206405,-22.25631 -4.460081,-48.31156 6.078945,-67.07925 2.760764,4.62527 3.709794,6.04157 6.213456,7.92171 1.598329,-3.7867 2.812534,-5.67609 5.309431,-7.54174 3.319746,4.50762 6.044936,9.25185 8.207606,14.21995 1.54005,-5.4618 1.88382,-10.85532 1.06479,-16.1825 3.00545,1.05936 5.77281,2.38566 6.58641,5.9022 1.72491,-1.69582 2.91521,-2.56975 4.76533,-6.238932 18.06541,8.549732 15.9078,34.495732 17.40642,64.138122 2.25292,-4.24405 4.8912,-10.49022 6.41061,-18.80658 1.4199,10.83403 0.3302,4.97498 1.55498,18.91619 1.99319,-7.26511 2.40813,-9.73875 3.28379,-14.55632 0.43921,8.27844 3.47577,13.65556 3.68529,12.74225 0.32986,-1.32614 -0.81707,-4.92338 -0.92117,-18.00887 -0.0207,-2.60233 0.40321,-16.80252 0.36481,-20.18019 -0.15182,-13.35412 -7.00896,-26.870334 -13.25862,-33.859844 -10.4246,-11.125233 -24.04668,-8.168793 -38.763462,-7.026818 z"
       id="path3381"
       sodipodi:nodetypes="ccccccccccccccccccccssccc" />
    <path
       style="fill:none;stroke:#000000;stroke-width:0.6;stroke-linecap:butt;stroke-linejoin:miter;stroke-dasharray:none;stroke-opacity:1"
       d="m 108.37093,100.05243 c -0.46372,-3.396659 -0.72508,-4.382319 -3.52538,-8.363109"
       id="path25489"
       sodipodi:nodetypes="cc" />
    <path
       style="fill:none;stroke:#000000;stroke-width:0.6;stroke-linecap:butt;stroke-linejoin:miter;stroke-dasharray:none;stroke-opacity:1"
       d="m 143.54023,145.97747 c 0.82735,-7.40914 0.26385,-16.11234 -1.09896,-22.89467"
       id="path25495"
       sodipodi:nodetypes="cc" />
    <path
       style="fill:none;stroke:#000000;stroke-width:0.6;stroke-linecap:butt;stroke-linejoin:miter;stroke-dasharray:none;stroke-opacity:1"
       d="m 73.886463,152.25257 c -0.683086,-3.81744 -1.445284,-11.56852 -1.065867,-15.99273"
       id="path25522"
       sodipodi:nodetypes="cc" />
    <path
       style="fill:#fff80e;fill-opacity:1;stroke:#000000;stroke-width:0.183407;stroke-linecap:butt;stroke-linejoin:miter;stroke-dasharray:none;stroke-opacity:1"
       d="m 77.201436,95.827408 -3.907567,-32.733816 6.29093,9.358964 3.614111,-9.965624 5.86391,9.072961 4.131126,-10.490274 5.652247,9.080714 4.200117,-10.145371 5.12222,9.165358 3.83527,-10.457187 3.89857,30.898575 z"
       id="path2486"
       sodipodi:nodetypes="cccccccccccc" />
    <ellipse
       style="fill:#ff00ba;fill-opacity:1;stroke:none;stroke-width:0.348835;stroke-linejoin:bevel;stroke-miterlimit:3.4"
       id="path2540-5"
       cx="86.809029"
       cy="91.09523"
       rx="1.414221"
       ry="3.7571044"
       transform="matrix(0.99433986,-0.10624611,0.10285212,0.99469666,0,0)" />
    <ellipse
       style="fill:#ff00ba;fill-opacity:1;stroke:none;stroke-width:0.348835;stroke-linejoin:bevel;stroke-miterlimit:3.4"
       id="path2540-5-7"
       cx="72.534401"
       cy="91.492836"
       rx="1.414221"
       ry="3.7571044"
       transform="matrix(0.99433986,-0.10624611,0.10285212,0.99469666,0,0)" />
    <ellipse
       style="fill:#ff00ba;fill-opacity:1;stroke:none;stroke-width:0.348835;stroke-linejoin:bevel;stroke-miterlimit:3.4"
       id="path2540-5-1"
       cx="100.13466"
       cy="90.865959"
       rx="1.414221"
       ry="3.7571044"
       transform="matrix(0.99433986,-0.10624611,0.10285212,0.99469666,0,0)" />
  </g>
</svg>
