<?xml version="1.0" encoding="UTF-8" standalone="no"?>
<!-- Created with Inkscape (http://www.inkscape.org/) -->

<svg
   width="210mm"
   height="297mm"
   viewBox="0 0 210 297"
   version="1.1"
   id="svg5"
   inkscape:version="1.2.2 (b0a84865, 2022-12-01)"
   sodipodi:docname="logo-default-sticker-path.svg"
   xmlns:inkscape="http://www.inkscape.org/namespaces/inkscape"
   xmlns:sodipodi="http://sodipodi.sourceforge.net/DTD/sodipodi-0.dtd"
   xmlns="http://www.w3.org/2000/svg"
   xmlns:svg="http://www.w3.org/2000/svg">
  <sodipodi:namedview
     id="namedview7"
     pagecolor="#ffffff"
     bordercolor="#999999"
     borderopacity="1"
     inkscape:showpageshadow="0"
     inkscape:pageopacity="0"
     inkscape:pagecheckerboard="0"
     inkscape:deskcolor="#d1d1d1"
     inkscape:document-units="mm"
     showgrid="false"
     inkscape:zoom="0.55443067"
     inkscape:cx="352.61397"
     inkscape:cy="415.74179"
     inkscape:window-width="1440"
     inkscape:window-height="847"
     inkscape:window-x="0"
     inkscape:window-y="25"
     inkscape:window-maximized="1"
     inkscape:current-layer="layer1" />
  <defs
     id="defs2">
    <inkscape:path-effect
       effect="bend_path"
       id="path-effect3000"
       is_visible="true"
       lpeversion="1"
       bendpath="M 59.214842,182.08619 H 147.54702"
       prop_scale="1"
       scale_y_rel="false"
       vertical="false"
       hide_knot="false" />
    <linearGradient
       id="linearGradient13268"
       inkscape:swatch="solid">
      <stop
         style="stop-color:#eaeaea;stop-opacity:1;"
         offset="0"
         id="stop13266" />
    </linearGradient>
  </defs>
  <g
     inkscape:label="Layer 1"
     inkscape:groupmode="layer"
     id="layer1">
    <circle
       style="fill:#008000;stroke:#1e1a1a;stroke-width:0.6;stroke-linejoin:bevel;stroke-miterlimit:3.4;stroke-dasharray:none"
       id="path577"
       cx="104.84738"
       cy="140.36922"
       r="49.950783"
       inkscape:export-filename="logo.png"
       inkscape:export-xdpi="25.18"
       inkscape:export-ydpi="25.18" />
    <ellipse
       style="fill:#ffffff;stroke:#1e1a1a;stroke-width:0.6;stroke-linejoin:bevel;stroke-miterlimit:3.4;stroke-dasharray:none"
       id="path789"
       cx="130.32359"
       cy="122.94245"
       rx="11.302401"
       ry="12.686368" />
    <ellipse
       style="fill:#ffffff;stroke:#1e1a1a;stroke-width:0.6;stroke-linejoin:bevel;stroke-miterlimit:3.4;stroke-dasharray:none"
       id="path789-0"
       cx="102.4136"
       cy="125.47973"
       rx="11.302401"
       ry="12.686368" />
    <path
       style="fill:#901600;fill-opacity:1;stroke:#000000;stroke-width:0.6;stroke-linecap:butt;stroke-linejoin:miter;stroke-opacity:1;stroke-dasharray:none"
       d="m 135.29273,148.41464 c -4.41659,1.4602 -9.07107,1.57648 -16.05635,2.47412 -10.80109,1.38798 -13.75474,1.62222 -15.70254,3.85011 -2.5424,2.90799 -4.305824,6.768 -2.52151,9.20747 1.55524,2.12628 3.65572,3.33748 7.22763,3.33748 3.57191,0 9.72606,-1.99618 14.67851,-1.90143 5.58164,0.10679 11.22154,-2.61686 15.61774,-3.71591 4.63695,-3.18801 3.41254,-4.47987 3.63809,-7.42886 -1.13681,-4.02316 -2.2876,-6.70648 -6.88157,-5.82298 z"
       id="path1369"
       sodipodi:nodetypes="csssssccc" />
    <ellipse
       style="fill:#000000;fill-opacity:1;stroke:#1e1a1a;stroke-width:0.0927953;stroke-linejoin:bevel;stroke-miterlimit:3.4"
       id="path2097"
       cx="106.83224"
       cy="127.01723"
       rx="6.8085122"
       ry="6.5738606" />
    <ellipse
       style="fill:#000000;fill-opacity:1;stroke:#1e1a1a;stroke-width:0.0927953;stroke-linejoin:bevel;stroke-miterlimit:3.4"
       id="path2097-3"
       cx="134.44757"
       cy="125.60141"
       rx="6.8085122"
       ry="6.5738606" />
    <path
       style="fill:#008000;stroke:#000000;stroke-width:0.623157;stroke-linecap:butt;stroke-linejoin:miter;stroke-dasharray:none;stroke-opacity:1"
       d="M 100.37154,92.233873 C 97.647491,84.288875 95.823232,81.090308 91.734907,77.055401 86.882916,72.2668 83.678897,71.484802 74.577282,69.069449 c 1.391845,7.292892 4.158537,11.10189 8.582666,15.107639 3.136677,2.840053 6.088521,4.986431 17.211592,8.056785 z"
       id="path8291"
       sodipodi:nodetypes="cscsc" />
    <g
       aria-label="Moblin"
       transform="translate(1.3765141,21.436685)"
       id="text257"
       style="font-size:28.2222px;line-height:1.25;font-family:'Lao MN';-inkscape-font-specification:'Lao MN, Normal';white-space:pre;inline-size:107.25;display:inline;stroke-width:0.264583"
       inkscape:export-filename="../../../../../Downloads/logo-tub.png"
       inkscape:export-xdpi="505.46475"
       inkscape:export-ydpi="505.46475">
      <path
         d="m 59.114842,174.31406 h 3.141924 l 7.110672,14.01463 h 0.151584 l 6.972868,-14.01463 h 3.086803 v 18.27277 H 76.49189 v -14.97927 h -0.09646 l -7.496522,14.97927 h -0.6339 l -7.579204,-14.85524 h -0.206705 v 14.85524 h -1.364257 z"
         id="path2987" />
      <path
         d="m 91.043963,192.89 c -1.084056,0 -2.080836,-0.18833 -2.990341,-0.565 -0.909505,-0.37666 -1.694986,-0.88653 -2.356443,-1.52962 -0.661458,-0.65227 -1.180519,-1.41019 -1.557182,-2.27376 -0.367477,-0.87276 -0.551215,-1.80523 -0.551215,-2.79742 0,-1.03811 0.183738,-2.01193 0.551215,-2.92144 0.376663,-0.91868 0.895724,-1.71794 1.557182,-2.39778 0.661457,-0.67983 1.446938,-1.21267 2.356443,-1.59852 0.909505,-0.39504 1.906285,-0.59256 2.990341,-0.59256 1.074869,0 2.062462,0.17915 2.96278,0.53743 0.909504,0.3583 1.694985,0.8498 2.356443,1.4745 0.661458,0.62472 1.175925,1.35967 1.543402,2.20486 0.376663,0.83602 0.564995,1.73634 0.564995,2.70096 0,1.06568 -0.188332,2.07165 -0.564995,3.0179 -0.367477,0.93707 -0.881944,1.7593 -1.543402,2.46668 -0.661458,0.69821 -1.446939,1.25402 -2.356443,1.66743 -0.900318,0.40423 -1.887911,0.60634 -2.96278,0.60634 z m 0.537434,-1.03353 c 0.551215,0 1.056495,-0.14239 1.515841,-0.42719 0.459346,-0.28479 0.854383,-0.66605 1.185112,-1.14377 0.330729,-0.4869 0.587962,-1.04731 0.771701,-1.68121 0.183738,-0.6339 0.275607,-1.30454 0.275607,-2.01193 0,-1.01974 -0.08728,-1.97518 -0.261827,-2.86632 -0.174551,-0.89113 -0.459346,-1.66742 -0.854383,-2.32888 -0.395037,-0.66146 -0.909504,-1.18052 -1.543401,-1.55719 -0.633897,-0.38584 -1.405598,-0.57877 -2.315103,-0.57877 -0.468533,0 -0.923285,0.13781 -1.364257,0.41341 -0.440971,0.26643 -0.831415,0.6339 -1.171331,1.10243 -0.330729,0.46854 -0.59715,1.01975 -0.799262,1.65364 -0.202112,0.62472 -0.303168,1.29077 -0.303168,1.99816 0,1.02894 0.10565,1.99356 0.316949,2.89388 0.220486,0.90032 0.537434,1.6858 0.950845,2.35644 0.422598,0.67065 0.932472,1.20349 1.529621,1.59852 0.606337,0.38586 1.295355,0.57878 2.067056,0.57878 z"
         id="path2989" />
      <path
         d="m 102.45411,172.06785 1.98437,-0.78548 h 0.82683 v 9.85297 c 0.22967,-0.39504 0.52824,-0.7717 0.89572,-1.12999 0.37666,-0.35829 0.78088,-0.66605 1.21267,-0.92329 0.44097,-0.26642 0.89573,-0.47771 1.36426,-0.63389 0.47772,-0.15618 0.93247,-0.23427 1.36426,-0.23427 0.81763,0 1.57096,0.16537 2.25998,0.49609 0.68901,0.33074 1.28157,0.7809 1.77766,1.35048 0.49609,0.56959 0.88195,1.23564 1.15756,1.99815 0.28479,0.75333 0.42719,1.56178 0.42719,2.42535 0,1.16674 -0.20671,2.25999 -0.62012,3.27973 -0.40423,1.01975 -0.96463,1.91088 -1.6812,2.67339 -0.70739,0.75333 -1.53881,1.35048 -2.49425,1.79145 -0.95544,0.44098 -1.97519,0.66146 -3.05924,0.66146 -1.04731,0 -2.03491,-0.1378 -2.96278,-0.41342 -0.91869,-0.2756 -1.73633,-0.69361 -2.45291,-1.25401 z m 2.8112,18.21766 c 0.17455,0.16536 0.36288,0.33532 0.56499,0.50987 0.2113,0.17456 0.44557,0.33533 0.7028,0.48231 0.25723,0.13781 0.54203,0.25265 0.85438,0.34451 0.32155,0.0827 0.67984,0.12403 1.07487,0.12404 0.65227,-1e-5 1.24483,-0.15618 1.77767,-0.46854 0.53284,-0.32155 0.98759,-0.76252 1.36426,-1.32291 0.38585,-0.5696 0.67983,-1.24024 0.88194,-2.01195 0.2113,-0.78088 0.31695,-1.63067 0.31695,-2.54937 0,-0.6982 -0.11024,-1.35047 -0.33073,-1.95681 -0.2113,-0.61551 -0.50528,-1.14835 -0.88194,-1.59852 -0.36748,-0.45934 -0.80386,-0.81763 -1.30914,-1.07487 -0.49609,-0.26642 -1.02893,-0.39963 -1.59852,-0.39963 -0.32155,0 -0.65228,0.0459 -0.99219,0.1378 -0.33073,0.0919 -0.64767,0.2159 -0.95084,0.37207 -0.30317,0.15619 -0.58338,0.33992 -0.84061,0.55122 -0.25723,0.20212 -0.46853,0.4226 -0.63389,0.66145 z"
         id="path2991" />
      <path
         d="m 122.53211,192.58683 h -2.8112 v -20.50519 l 1.99816,-0.79927 h 0.81304 z"
         id="path2993" />
      <path
         d="m 127.69975,179.01316 1.9706,-0.79926 h 0.81304 v 14.37293 h -2.78364 z m -0.22048,-5.93934 c 0,-0.22048 0.0413,-0.42719 0.12402,-0.62011 0.0827,-0.19292 0.19752,-0.36288 0.34451,-0.50988 0.14699,-0.14698 0.31695,-0.26182 0.50987,-0.34451 0.19293,-0.0827 0.39963,-0.12402 0.62012,-0.12402 0.22049,0 0.42719,0.0413 0.62012,0.12402 0.19293,0.0827 0.36288,0.19753 0.50987,0.34451 0.14699,0.147 0.26183,0.31696 0.34451,0.50988 0.0827,0.19292 0.12402,0.39963 0.12402,0.62011 0,0.22049 -0.0413,0.4272 -0.12402,0.62013 -0.0827,0.19292 -0.19752,0.36288 -0.34451,0.50987 -0.14699,0.14699 -0.31694,0.26182 -0.50987,0.34451 -0.19293,0.0827 -0.39963,0.12402 -0.62012,0.12403 -0.22049,-1e-5 -0.42719,-0.0413 -0.62012,-0.12403 -0.19292,-0.0827 -0.36288,-0.19752 -0.50987,-0.34451 -0.14699,-0.14699 -0.26183,-0.31695 -0.34451,-0.50987 -0.0827,-0.19293 -0.12402,-0.39964 -0.12402,-0.62013 z"
         id="path2995" />
      <path
         d="m 137.64918,178.2139 h 0.79926 v 2.85254 c 0.85438,-0.95544 1.74092,-1.66742 2.65961,-2.13596 0.91869,-0.47772 1.85116,-0.71658 2.79741,-0.71658 0.49609,0 0.95544,0.11025 1.37804,0.33073 0.43179,0.22049 0.80845,0.52366 1.12999,0.9095 0.32155,0.38586 0.57419,0.84061 0.75792,1.36426 0.18374,0.51447 0.27561,1.06569 0.27561,1.65365 v 10.11479 h -2.79742 v -9.63248 c 0,-0.46853 -0.0551,-0.87734 -0.16536,-1.22645 -0.11024,-0.35829 -0.26642,-0.65687 -0.46853,-0.89573 -0.20211,-0.23886 -0.44097,-0.418 -0.71658,-0.53743 -0.26642,-0.12861 -0.565,-0.19293 -0.89573,-0.19292 -0.29398,-1e-5 -0.60633,0.0505 -0.93706,0.15159 -0.33073,0.10105 -0.67064,0.24344 -1.01975,0.42718 -0.33991,0.17455 -0.67983,0.38585 -1.01975,0.6339 -0.33991,0.24804 -0.66605,0.52365 -0.9784,0.82683 v 10.44551 h -2.8112 v -13.58744 z"
         id="path2997" />
    </g>
  </g>
</svg>
