<?xml version="1.0" encoding="UTF-8" standalone="no"?>
<!-- Created with Inkscape (http://www.inkscape.org/) -->

<svg
   width="210mm"
   height="297mm"
   viewBox="0 0 210 297"
   version="1.1"
   id="svg5"
   inkscape:version="1.2.2 (b0a84865, 2022-12-01)"
   sodipodi:docname="logo-looking.svg"
   xmlns:inkscape="http://www.inkscape.org/namespaces/inkscape"
   xmlns:sodipodi="http://sodipodi.sourceforge.net/DTD/sodipodi-0.dtd"
   xmlns="http://www.w3.org/2000/svg"
   xmlns:svg="http://www.w3.org/2000/svg">
  <sodipodi:namedview
     id="namedview7"
     pagecolor="#ffffff"
     bordercolor="#999999"
     borderopacity="1"
     inkscape:showpageshadow="0"
     inkscape:pageopacity="0"
     inkscape:pagecheckerboard="0"
     inkscape:deskcolor="#d1d1d1"
     inkscape:document-units="mm"
     showgrid="false"
     inkscape:zoom="0.632259"
     inkscape:cx="262.55063"
     inkscape:cy="521.14718"
     inkscape:window-width="1440"
     inkscape:window-height="847"
     inkscape:window-x="0"
     inkscape:window-y="25"
     inkscape:window-maximized="1"
     inkscape:current-layer="layer1" />
  <defs
     id="defs2">
    <linearGradient
       id="linearGradient13268"
       inkscape:swatch="solid">
      <stop
         style="stop-color:#eaeaea;stop-opacity:1;"
         offset="0"
         id="stop13266" />
    </linearGradient>
  </defs>
  <g
     inkscape:label="Layer 1"
     inkscape:groupmode="layer"
     id="layer1">
    <circle
       style="fill:#008000;stroke:#1e1a1a;stroke-width:0.6;stroke-linejoin:bevel;stroke-miterlimit:3.4;stroke-dasharray:none"
       id="path577"
       cx="104.84738"
       cy="140.36922"
       r="49.950783"
       inkscape:export-filename="logo-looking.png"
       inkscape:export-xdpi="119.34357"
       inkscape:export-ydpi="119.34357" />
    <ellipse
       style="fill:#ffffff;stroke:#1e1a1a;stroke-width:0.575864;stroke-linejoin:bevel;stroke-miterlimit:3.4;stroke-dasharray:none"
       id="path789"
       cx="130.32359"
       cy="123.96711"
       rx="11.314468"
       ry="11.673779" />
    <ellipse
       style="fill:#ffffff;stroke:#1e1a1a;stroke-width:0.6;stroke-linejoin:bevel;stroke-miterlimit:3.4;stroke-dasharray:none"
       id="path789-0"
       cx="102.4136"
       cy="125.47973"
       rx="11.302401"
       ry="12.686368" />
    <path
       style="fill:#901600;fill-opacity:1;stroke:#000000;stroke-width:0.6;stroke-linecap:butt;stroke-linejoin:miter;stroke-dasharray:none;stroke-opacity:1"
       d="m 135.29273,148.41464 c -4.04259,-0.4098 -7.94607,-0.79346 -14.93435,0.0805 -6.91149,0.86438 -14.87674,4.01582 -16.82454,6.24371 -2.5424,2.90799 -2.21518,7.54231 -1.20518,9.51719 1.19951,2.34543 2.93738,4.55097 6.31388,5.71622 4.63928,1.60105 9.12692,2.22963 14.07937,2.32438 5.58164,0.10679 9.61823,-2.73329 14.37022,-6.14497 4.63695,-3.18801 4.85662,-8.96508 5.08217,-11.91407 -1.13681,-4.02316 -4.0828,-5.36008 -6.88157,-5.82298 z"
       id="path1369"
       sodipodi:nodetypes="csssssccc" />
    <path
       style="fill:#ffffff;fill-opacity:1;stroke:#000000;stroke-width:0.6;stroke-linecap:butt;stroke-linejoin:miter;stroke-dasharray:none;stroke-opacity:1"
       d="m 131.74598,112.38051 c 0,0 28.47864,2.83529 28.96047,13.32803 0.48184,10.49275 -29.81847,9.89036 -29.81847,9.89036"
       id="path397-3"
       sodipodi:nodetypes="csc" />
    <path
       style="fill:#ffffff;fill-opacity:1;stroke:#000000;stroke-width:0.625274;stroke-linecap:butt;stroke-linejoin:miter;stroke-dasharray:none;stroke-opacity:1"
       d="m 103.90763,112.91181 c 0,0 28.93939,2.75791 29.39852,14.15613 0.45913,11.39822 -30.21608,11.0659 -30.21608,11.0659"
       id="path397"
       sodipodi:nodetypes="csc" />
    <ellipse
       style="fill:#000000;fill-opacity:1;stroke:#1e1a1a;stroke-width:0.0588889;stroke-linejoin:bevel;stroke-miterlimit:3.4"
       id="path2097"
       cx="129.6739"
       cy="127.09833"
       rx="3.404506"
       ry="5.294591" />
    <ellipse
       style="fill:#000000;fill-opacity:1;stroke:#1e1a1a;stroke-width:0.0560965;stroke-linejoin:bevel;stroke-miterlimit:3.4"
       id="path2097-8"
       cx="157.05957"
       cy="125.78303"
       rx="3.3469965"
       ry="4.886941" />
    <path
       style="fill:#008000;stroke:#000000;stroke-width:0.623157;stroke-linecap:butt;stroke-linejoin:miter;stroke-dasharray:none;stroke-opacity:1"
       d="M 100.37154,92.233873 C 97.647491,84.288875 95.823232,81.090308 91.734907,77.055401 86.882916,72.2668 83.678897,71.484802 74.577282,69.069449 c 1.391845,7.292892 4.158537,11.10189 8.582666,15.107639 3.136677,2.840053 6.088521,4.986431 17.211592,8.056785 z"
       id="path8291"
       sodipodi:nodetypes="cscsc" />
  </g>
</svg>
